<svg width="66" height="74" viewBox="0 0 66 74" fill="none" xmlns="http://www.w3.org/2000/svg">
<path d="M26.3474 30.8198C24.256 30.8198 22.605 32.6565 22.605 34.8973C22.605 37.1381 24.2927 38.9748 26.3474 38.9748C28.4387 38.9748 30.0897 37.1381 30.0897 34.8973C30.1264 32.6565 28.4387 30.8198 26.3474 30.8198ZM39.7392 30.8198C37.6479 30.8198 35.9968 32.6565 35.9968 34.8973C35.9968 37.1381 37.6846 38.9748 39.7392 38.9748C41.8306 38.9748 43.4816 37.1381 43.4816 34.8973C43.4816 32.6565 41.8306 30.8198 39.7392 30.8198Z" fill="white"/>
<path d="M57.5704 0H8.40574C4.25976 0 0.884277 3.37954 0.884277 7.56723V57.2318C0.884277 61.4195 4.25976 64.799 8.40574 64.799H50.0122L48.0677 58.0032L52.764 62.3746L57.2035 66.4888L65.0918 73.4683V7.56723C65.0918 3.37954 61.7164 0 57.5704 0ZM43.408 47.9748C43.408 47.9748 42.0872 46.3952 40.9865 44.9993C45.7929 43.6401 47.6274 40.628 47.6274 40.628C46.1231 41.6198 44.6922 42.3177 43.408 42.7953C41.5735 43.5667 39.8124 44.081 38.088 44.3748C34.5657 45.036 31.337 44.8524 28.5853 44.3381C26.4939 43.934 24.6961 43.3463 23.1918 42.7585C22.348 42.4279 21.4307 42.0238 20.5134 41.5096C20.4034 41.4361 20.2933 41.3994 20.1832 41.3259C20.1099 41.2892 20.0732 41.2524 20.0365 41.2157C19.3761 40.8484 19.0092 40.5912 19.0092 40.5912C19.0092 40.5912 20.7703 43.5299 25.4299 44.9258C24.3292 46.3217 22.9717 47.9748 22.9717 47.9748C14.8632 47.7176 11.7812 42.3912 11.7812 42.3912C11.7812 30.5628 17.0646 20.9752 17.0646 20.9752C22.3479 17.0079 27.3745 17.1181 27.3745 17.1181L27.7414 17.5589C21.1372 19.4691 18.0919 22.3711 18.0919 22.3711C18.0919 22.3711 18.8991 21.9303 20.2566 21.3058C24.1825 19.5793 27.3011 19.1017 28.5853 18.9915C28.8054 18.9548 28.9888 18.9181 29.209 18.9181C31.4471 18.6242 33.9787 18.5507 36.6204 18.8446C40.1059 19.2487 43.8483 20.2772 47.6641 22.3711C47.6641 22.3711 44.7656 19.616 38.5283 17.7059L39.0419 17.1181C39.0419 17.1181 44.0685 17.0079 49.3518 20.9752C49.3518 20.9752 54.6352 30.5628 54.6352 42.3912C54.6352 42.3912 51.5165 47.7176 43.408 47.9748Z" fill="white"/>
</svg>
