<svg width="111" height="32" viewBox="0 0 111 32" fill="none" xmlns="http://www.w3.org/2000/svg">
<g clip-path="url(#clip0)">
<path d="M106.682 23.9922H98.8701V31.8036H106.682V23.9922Z" fill="#DD7250"/>
<path d="M0.000208139 0.0698242V20.2262C0.000208139 20.2262 -0.209027 28.0376 6.62599 30.6182C13.461 33.2685 20.854 30.6182 20.854 30.6182C20.854 30.6182 26.2941 27.4099 26.4336 22.179C26.5731 16.9481 26.4336 0.0698242 26.4336 0.0698242H20.3658V19.7379C20.3658 19.7379 20.4355 24.6201 16.5995 25.8058C12.6938 26.9914 8.0209 26.2242 6.97472 22.8765C5.92854 19.5287 6.27727 0.0698242 6.27727 0.0698242H0.000208139Z" fill="#DD7250"/>
<path d="M34.5936 21.8301C34.5936 25.1081 34.5936 28.3164 34.5936 31.7339C33.5474 31.8734 32.571 31.8037 31.5248 31.8037C31.5248 31.4549 31.4551 31.176 31.4551 30.8272C31.4551 22.1091 31.4551 13.391 31.4551 4.67282C31.4551 2.99894 32.2223 1.88301 33.6869 1.25531C36.2675 0.0696415 39.0573 -0.139594 41.8471 0.139387C43.5907 0.348622 45.2646 0.906583 46.7293 2.0225C48.4031 3.34766 49.3796 5.09129 49.9375 7.1139C50.7745 10.4617 50.8442 13.8094 49.5888 17.0177C48.4031 20.0865 46.1016 21.8301 42.8933 22.5276C40.4522 23.0855 38.1506 22.7368 35.849 21.9696C35.57 21.8999 35.2213 21.7604 34.9423 21.6906C34.8028 21.7604 34.8028 21.7604 34.5936 21.8301ZM34.5936 11.5078C34.5936 13.5304 34.5936 15.6228 34.5936 17.6454C34.5936 18.2731 34.8028 18.5521 35.3608 18.8311C36.686 19.4588 38.0809 19.8075 39.5455 19.947C43.1025 20.226 45.8226 18.3429 46.7293 14.9951C47.4965 12.1355 47.2175 9.34574 46.3108 6.62568C45.7528 5.02154 44.7067 3.83588 43.0328 3.41741C40.6614 2.71996 38.2204 2.85945 35.849 3.69639C34.9423 4.04511 34.5936 4.67282 34.5936 5.64925C34.5936 7.53237 34.5936 9.48523 34.5936 11.5078Z" fill="#19243C"/>
<path d="M70.3036 10.2526C70.3036 8.99722 70.3734 7.8813 70.3036 6.76538C70.0944 4.81252 68.9087 3.62685 67.0256 3.20838C64.1661 2.51093 61.3763 2.9294 58.726 4.25455C58.447 4.39404 58.0982 4.60328 57.8193 4.74277C57.61 4.3243 57.4705 2.23195 57.6798 1.95297C57.8193 1.74373 58.0982 1.53449 58.3772 1.395C59.6326 0.767299 60.9578 0.488318 62.283 0.279083C64.4451 -0.0696428 66.6072 -0.209133 68.7692 0.418573C71.6985 1.25551 73.3724 3.27812 73.5817 6.34691C73.5817 6.76538 73.5817 7.18385 73.5817 7.60232C73.5817 10.7408 73.5817 13.8794 73.5817 16.9482C73.5817 17.2969 73.5817 17.7154 73.5817 18.0641C73.4422 19.738 72.675 20.9236 71.2103 21.6908C70.0944 22.2488 68.9087 22.458 67.7231 22.5975C65.4912 22.8068 63.1896 23.0857 61.0275 22.5278C60.1209 22.3185 59.1444 21.9698 58.3075 21.4816C56.7731 20.6447 55.8664 19.2498 55.5874 17.5061C55.3782 16.2507 55.4479 14.9256 55.7967 13.6701C56.4244 11.2291 57.9588 9.76442 60.3301 9.13671C63.4686 8.36952 66.5374 8.57875 69.5364 9.83416C69.7457 9.97365 70.0247 10.1131 70.3036 10.2526ZM70.3734 15.623C70.3734 15.623 70.4431 15.623 70.3734 15.623C70.3734 14.9953 70.3734 14.3676 70.3734 13.7399C70.3734 12.9029 70.3734 12.9029 69.5364 12.5542C67.3743 11.7173 65.0728 11.508 62.7712 11.787C61.9342 11.8568 61.167 12.2055 60.3998 12.5542C59.4931 12.9727 58.9352 13.8096 58.726 14.7861C58.2377 17.0179 59.2839 18.901 61.446 19.5985C63.8871 20.3657 66.3979 20.2262 68.839 19.6682C69.8852 19.3892 70.3036 18.8313 70.3036 17.7851C70.4431 17.0877 70.3734 16.3205 70.3734 15.623Z" fill="#19243C"/>
<path d="M88.3666 18.1338C90.6681 12.1357 92.9697 6.34687 95.2016 0.488281C96.2478 0.488281 97.1544 0.488281 98.2704 0.488281C98.2006 0.767262 98.1309 1.04624 98.0611 1.32522C95.0621 9.06693 91.9933 16.8086 88.9943 24.6201C88.3666 26.294 87.5296 27.8284 86.2045 29.0838C84.949 30.1997 83.4844 30.8972 81.7408 30.7577C81.5315 30.7577 81.3223 30.7577 81.1131 30.6879C80.1366 30.4787 80.0669 30.4089 80.0669 29.3628C80.0669 28.8048 80.0669 28.1771 80.0669 27.5494C80.4854 27.6191 80.8341 27.6889 81.1131 27.7586C82.7869 28.0376 84.1818 27.6191 85.0885 26.1545C85.7162 25.1083 86.2045 23.9226 86.6927 22.8067C86.8322 22.458 86.6229 21.9 86.4834 21.5513C84.1121 15.7625 81.7408 9.97362 79.3694 4.25452C79.0207 3.34783 78.6022 2.44114 78.2535 1.53446C78.114 1.25548 78.0443 0.976497 77.9048 0.488281C79.0207 0.488281 79.9971 0.488281 81.0433 0.488281C81.5315 0.488281 81.6013 0.906752 81.7408 1.25548C82.508 3.27809 83.2752 5.23095 84.1121 7.25356C85.3675 10.5316 86.6927 13.8793 87.9481 17.1574C87.9481 17.3666 88.0876 17.6456 88.3666 18.1338Z" fill="#19243C"/>
</g>
<defs>
<clipPath id="clip0">
<rect width="110.895" height="31.8038" fill="white"/>
</clipPath>
</defs>
</svg>
