<svg viewBox="0 0 42 42" fill="none" xmlns="http://www.w3.org/2000/svg">
<path d="M22.2182 33.0204C25.0238 32.6476 27.6222 31.3412 29.5949 29.3117L41.0801 17.5398C40.349 17.42 39.6088 17.3645 38.868 17.3741C36.8502 17.3863 34.8651 17.8852 33.0813 18.8287C31.9565 19.4294 30.9313 20.2004 30.042 21.1144L25.8059 25.4544C25.781 25.482 25.7533 25.5096 25.7257 25.5385C24.3943 26.9038 22.5782 27.689 20.6716 27.7237C18.7649 27.7584 16.9214 27.0399 15.5412 25.724L19.9654 30.0403C20.8629 30.9139 21.6225 31.9187 22.2182 33.0204Z" fill="url(#logo-paint0_linear)"/>
<path d="M11.7682 29.591L23.5414 41.0762C23.9905 38.3169 23.5259 35.4865 22.2184 33.0156C21.6228 31.9149 20.8636 30.911 19.9668 30.0381L15.5427 25.7218C14.8483 25.061 14.2921 24.2689 13.9062 23.3915C13.5202 22.5141 13.3123 21.5689 13.2945 20.6105C13.2766 19.6521 13.4492 18.6998 13.8021 17.8086C14.1551 16.9174 14.6814 16.1052 15.3507 15.4189L11.037 19.8418C10.1479 20.7557 9.12266 21.5263 7.99766 22.1262C8.36773 24.9713 9.69792 27.6047 11.7682 29.591Z" fill="url(#logo-paint1_linear)"/>
<path d="M-9.91821e-05 23.4228C0.730669 23.5415 1.47037 23.5965 2.21067 23.5872C4.22853 23.574 6.21349 23.0746 7.99732 22.1313C9.12232 21.5314 10.1476 20.7608 11.0366 19.8469L15.3543 15.4214C16.0182 14.7396 16.81 14.1953 17.6844 13.8197C18.5587 13.444 19.4986 13.2444 20.4502 13.2322C21.4017 13.22 22.3464 13.3954 23.2302 13.7485C24.1139 14.1016 24.9194 14.6254 25.6006 15.2899L21.2356 11.0314C20.3046 10.1265 19.5221 9.08035 18.917 7.93164C16.0922 8.2957 13.474 9.60573 11.489 11.6483L-9.91821e-05 23.4228Z" fill="url(#logo-paint2_linear)"/>
<path d="M25.8076 25.4573L30.0437 21.1173C30.933 20.2034 31.9582 19.4324 33.083 18.8316C32.7211 16.0442 31.4368 13.4581 29.4348 11.4852L17.6603 0C17.5408 0.730684 17.4858 1.47045 17.4959 2.21077C17.5085 4.20485 17.9958 6.16726 18.9175 7.93561C19.5227 9.08431 20.3052 10.1304 21.2361 11.0354L25.6011 15.2939C26.9626 16.6218 27.7474 18.4318 27.786 20.3333C27.8246 22.2348 27.114 24.0752 25.8076 25.4573Z" fill="url(#logo-paint3_linear)"/>
<defs>
<linearGradient id="logo-paint0_linear" x1="42.2342" y1="12.411" x2="22.5506" y2="25.7807" gradientUnits="userSpaceOnUse">
<stop stop-color="#C906F9"/>
<stop offset="0.448312" stop-color="#A803FC"/>
<stop offset="0.862484" stop-color="#8700FF"/>
</linearGradient>
<linearGradient id="logo-paint1_linear" x1="10.5574" y1="20.2095" x2="5.77137" y2="38.2556" gradientUnits="userSpaceOnUse">
<stop stop-color="#0044FF"/>
<stop offset="0.489583" stop-color="#0087FF"/>
<stop offset="1" stop-color="#00CAFF"/>
</linearGradient>
<linearGradient id="logo-paint2_linear" x1="-0.0447044" y1="23.9803" x2="9.75159" y2="26.9571" gradientUnits="userSpaceOnUse">
<stop stop-color="#B0FF33"/>
<stop offset="0.494792" stop-color="#55DF20"/>
<stop offset="1" stop-color="#0AC222"/>
</linearGradient>
<linearGradient id="logo-paint3_linear" x1="17.5427" y1="25.3108" x2="34.111" y2="21.3758" gradientUnits="userSpaceOnUse">
<stop stop-color="#FF8100"/>
<stop offset="0.0001" stop-color="#FF8100"/>
<stop offset="0.5" stop-color="#FF5D00"/>
<stop offset="1" stop-color="#FF3600"/>
</linearGradient>
</defs>
</svg>
