<svg width="92" height="20" viewBox="0 0 92 20" fill="none" xmlns="http://www.w3.org/2000/svg">
<path d="M91.3242 0.766645C91.3269 1.35019 91.3259 1.93374 91.3242 2.51762C91.3242 2.65732 91.3218 2.66071 91.1855 2.65902C90.8447 2.65563 90.899 2.70784 90.899 2.37521C90.8862 2.01824 90.8941 1.66083 90.9224 1.30476C90.9262 1.27768 90.922 1.25008 90.9102 1.22542C90.7658 1.53054 90.605 1.82766 90.4287 2.11548C90.4111 2.15076 90.391 2.18475 90.3687 2.2172C90.3578 2.23159 90.3439 2.24334 90.3278 2.25156C90.3118 2.25979 90.2941 2.26428 90.2761 2.2647C90.2581 2.26513 90.2403 2.26147 90.2239 2.25401C90.2075 2.24655 90.193 2.23547 90.1815 2.22161C90.1741 2.21285 90.168 2.20317 90.1632 2.19279C89.9805 1.90714 89.8128 1.6122 89.6607 1.30916C89.6608 1.28475 89.6553 1.26064 89.6447 1.23866C89.634 1.21668 89.6185 1.19743 89.5993 1.18235C89.5902 1.21012 89.5873 1.23953 89.5908 1.26853C89.5944 1.29753 89.6042 1.32541 89.6197 1.35019C89.6563 1.74589 89.6325 2.14261 89.6369 2.53933C89.6386 2.65631 89.6335 2.66004 89.5094 2.65902C89.1941 2.65732 89.2429 2.69666 89.2419 2.40743C89.2395 1.84117 89.2419 1.27424 89.2419 0.707989C89.2419 0.667978 89.2419 0.628643 89.2419 0.589311C89.2419 0.542179 89.2612 0.515055 89.3097 0.515055C89.3955 0.515055 89.4793 0.515055 89.5647 0.515055C89.619 0.515055 89.6444 0.548961 89.6664 0.589311C89.8743 0.958901 90.1093 1.31289 90.2883 1.70418C90.2998 1.69639 90.3198 1.6913 90.3242 1.67977C90.4879 1.31989 90.6707 0.969014 90.8718 0.628642C90.8878 0.590032 90.9162 0.557825 90.9524 0.53708C90.9887 0.516336 91.0309 0.50823 91.0722 0.514036C91.374 0.522513 91.3232 0.482161 91.3242 0.766645Z" fill="#262626"/>
<path d="M89.5992 1.18384C89.6184 1.19891 89.6339 1.21817 89.6445 1.24014C89.6552 1.26212 89.6607 1.28623 89.6606 1.31065C89.6399 1.29466 89.6259 1.27159 89.6212 1.24589C89.6168 1.28101 89.6168 1.31655 89.6212 1.35168C89.6055 1.32702 89.5953 1.29921 89.5915 1.27021C89.5877 1.24121 89.5904 1.21172 89.5992 1.18384Z" fill="#262626"/>
<path d="M89.0952 0.647262C89.0952 0.939205 89.1196 0.884613 88.8538 0.894785C88.7317 0.898854 88.5771 0.841213 88.4957 0.924286C88.4215 0.999561 88.474 1.15079 88.473 1.26845C88.4703 1.6872 88.473 2.1063 88.4713 2.52573C88.4713 2.65763 88.4686 2.66136 88.3428 2.66136C87.9949 2.65695 88.059 2.71121 88.0536 2.37993C88.0502 2.17649 88.0536 1.97304 88.0536 1.7696C88.0536 1.51427 88.0515 1.25929 88.0553 1.00498C88.0553 0.924622 88.0309 0.892411 87.9485 0.894785C87.8183 0.899193 87.6881 0.896819 87.5572 0.894785C87.4263 0.89275 87.4215 0.89207 87.4215 0.767291C87.4242 0.473653 87.3832 0.518075 87.6721 0.516379C88.1031 0.513667 88.5337 0.516379 88.9647 0.516379C89.0915 0.515362 89.0952 0.518075 89.0952 0.647262Z" fill="#262626"/>
<path d="M87.4903 17.1989C87.4903 13.1653 87.4903 9.13113 87.4903 5.09638C87.4903 4.82512 87.4903 4.82919 87.2231 4.84919C86.7999 4.8831 86.3781 4.90955 85.9553 4.93464C85.4423 4.9655 84.9296 4.99059 84.4155 5.01941C84.2243 5.03094 84.2243 5.03365 84.2243 5.22658C84.2243 6.29172 84.2243 7.3571 84.2243 8.42269C84.2316 8.49095 84.226 8.55997 84.2077 8.62614C83.7864 8.50192 83.3471 8.44942 82.9084 8.47084C82.2046 8.46783 81.5082 8.61366 80.8648 8.89875C80.1339 9.22024 79.5247 9.76669 79.126 10.4585C78.6852 11.2978 78.4756 12.2393 78.5187 13.1863C78.5187 13.4288 78.5342 13.6711 78.5651 13.9116C78.6253 14.4798 78.786 15.0327 79.0399 15.5446C79.4079 16.2471 79.9964 16.8094 80.7149 17.145C81.5192 17.5195 82.4082 17.6747 83.2918 17.595C83.7715 17.553 84.2384 17.4176 84.6661 17.1966C84.9044 17.0764 85.1359 16.9434 85.3599 16.7982C85.4918 16.9694 85.621 17.1338 85.7461 17.3007C85.7714 17.3406 85.807 17.373 85.8491 17.3945C85.8912 17.416 85.9383 17.4259 85.9855 17.4231C86.4154 17.4143 86.846 17.4204 87.2766 17.4193C87.5184 17.4193 87.4903 17.4492 87.4903 17.1989ZM84.0958 14.9309C83.9187 15.0298 83.7226 15.0897 83.5205 15.1067C83.3184 15.1236 83.115 15.0972 82.9239 15.0292C82.7328 14.9613 82.5585 14.8532 82.4126 14.7124C82.2666 14.5716 82.1524 14.4012 82.0776 14.2127C81.9953 14.0027 81.9398 13.7832 81.9125 13.5593C81.8518 13.1222 81.8738 12.6775 81.9773 12.2485C82.0574 11.8871 82.2396 11.5563 82.5021 11.2953C82.6345 11.1669 82.7952 11.0712 82.9711 11.016C83.1471 10.9608 83.3336 10.9475 83.5156 10.9773C83.7222 11.0088 83.9242 11.0658 84.1168 11.1468C84.1516 11.1551 84.182 11.1761 84.2022 11.2056C84.2224 11.2351 84.2308 11.2711 84.226 11.3065C84.2209 11.7259 84.2243 12.1444 84.2243 12.5638V13.0226C84.2243 13.5834 84.2199 14.1442 84.227 14.7054C84.2314 14.752 84.2211 14.7988 84.1976 14.8392C84.1741 14.8796 84.1385 14.9117 84.0958 14.9309Z" fill="#262626"/>
<path d="M77.5604 17.2118C77.5604 17.4468 77.5841 17.418 77.3498 17.4187C76.4038 17.4187 75.4574 17.4187 74.5104 17.4187H74.4596C74.2955 17.4187 74.2944 17.4187 74.2944 17.2512C74.2944 16.0434 74.2944 14.8362 74.2944 13.6295V5.2493C74.2944 5.03162 74.2944 5.03094 74.5148 5.01941C75.0275 4.99059 75.5412 4.9655 76.0542 4.93464C76.4771 4.90955 76.8992 4.8692 77.322 4.85191C77.6157 4.8397 77.5594 4.818 77.5594 5.07468C77.5612 7.09194 77.5612 9.10932 77.5594 11.1268L77.5604 17.2118Z" fill="#262626"/>
<path d="M73.1973 11.6106C73.0164 10.7578 72.5698 9.98423 71.9217 9.40119C71.5067 9.02971 71.0092 8.76238 70.4704 8.62132C69.5995 8.40014 68.6863 8.40644 67.8185 8.63963C66.9596 8.84877 66.1884 9.32336 65.6146 9.99593C64.9754 10.7619 64.6082 11.7181 64.5706 12.715C64.536 13.2061 64.5683 13.6997 64.6665 14.1821C64.8456 15.096 65.3405 15.9177 66.0645 16.5034C66.6028 16.9299 67.2276 17.2338 67.8955 17.3938C68.5054 17.5447 69.1322 17.6164 69.7604 17.6071C70.5178 17.6091 71.2716 17.5017 71.9983 17.2881C72.4257 17.1772 72.8335 17.0013 73.2074 16.7666C73.3339 16.6818 73.3359 16.6808 73.279 16.5428C73.0345 15.947 72.7907 15.3509 72.5408 14.7569C72.5113 14.6577 72.467 14.5635 72.4096 14.4775C72.1246 14.6172 71.83 14.7363 71.528 14.8338C70.8799 15.044 70.1931 15.1067 69.5176 15.0173C69.2888 14.9928 69.0673 14.9224 68.8663 14.8105C68.6652 14.6985 68.4888 14.5472 68.3475 14.3656C68.241 14.2346 68.1639 14.0823 68.1213 13.919H73.1735C73.3431 13.919 73.3431 13.919 73.3431 13.7566C73.3431 13.4514 73.3431 13.1442 73.3431 12.8384C73.3447 12.4247 73.2957 12.0124 73.1973 11.6106ZM70.1314 12.2948C69.7923 12.2965 69.4515 12.2948 69.1118 12.2948C68.7998 12.2948 68.4879 12.2948 68.1759 12.2948C68.0013 12.2948 68.0084 12.2948 68.025 12.1253C68.0467 11.9567 68.1036 11.7946 68.1921 11.6494C68.2806 11.5043 68.3987 11.3795 68.5387 11.283C68.6521 11.2009 68.781 11.1427 68.9176 11.1121C69.0542 11.0814 69.1956 11.0789 69.3332 11.1048C69.4708 11.1306 69.6017 11.1842 69.7179 11.2623C69.8341 11.3404 69.9331 11.4414 70.009 11.5591C70.125 11.753 70.2016 11.9679 70.2344 12.1914C70.2453 12.2799 70.2327 12.2952 70.1314 12.2952V12.2948Z" fill="#262626"/>
<path d="M63.6447 8.75887C63.8003 8.75887 63.7766 8.7721 63.7766 8.92299V17.2347C63.7766 17.4242 63.7993 17.4198 63.5942 17.4198H60.7046C60.4995 17.4198 60.5212 17.4243 60.5212 17.2357V10.147C60.5212 9.72795 60.5212 9.30885 60.5212 8.88976C60.5212 8.76226 60.5229 8.75956 60.652 8.75956C61.6496 8.75888 62.6472 8.75865 63.6447 8.75887Z" fill="#262626"/>
<path d="M63.9252 5.86263C63.9148 6.33002 63.7215 6.77468 63.3868 7.10107C63.0521 7.42747 62.6028 7.60954 62.1353 7.60818C61.6695 7.60999 61.2222 7.42676 60.8915 7.09879C60.5609 6.77081 60.374 6.32495 60.3721 5.85924C60.3725 5.38829 60.56 4.9368 60.8934 4.60411C61.2267 4.27141 61.6785 4.08476 62.1495 4.08521C62.6205 4.08566 63.0719 4.27317 63.4046 4.6065C63.7373 4.93984 63.924 5.39168 63.9235 5.86263H63.9252Z" fill="#262626"/>
<path d="M59.7303 7.68965C59.7493 7.91852 59.7598 7.89852 59.5503 7.89852H55.0114C54.8463 7.89852 54.8453 7.89852 54.8453 8.06432C54.8453 8.73908 54.8453 9.41361 54.8453 10.0879C54.8453 10.2775 54.8165 10.2751 55.0426 10.2751H58.3411C58.3805 10.2751 58.4205 10.2768 58.4598 10.2751C58.5368 10.2707 58.5673 10.3029 58.5761 10.3826C58.6439 11.0099 58.7175 11.6371 58.7901 12.2644C58.8121 12.4489 58.8372 12.6323 58.8643 12.8409H58.6538C57.4473 12.8409 56.2405 12.8409 55.0331 12.8409C54.8226 12.8409 54.8453 12.8205 54.8453 13.0338C54.8453 14.4335 54.8453 15.8332 54.8453 17.2329C54.8453 17.4363 54.8592 17.4197 54.6659 17.4197H51.759C51.7364 17.4185 51.7138 17.4185 51.6912 17.4197C51.5987 17.4302 51.5698 17.3858 51.5787 17.3C51.582 17.2661 51.5787 17.2322 51.5787 17.1983V5.53687C51.5787 5.29748 51.5471 5.32528 51.7821 5.32528C54.2759 5.32528 56.7692 5.32528 59.2621 5.32528C59.2847 5.32646 59.3073 5.32646 59.3299 5.32528C59.418 5.31375 59.453 5.33987 59.4655 5.44057C59.5493 6.18653 59.6418 6.92944 59.732 7.67371L59.7303 7.68965Z" fill="#262626"/>
<path d="M49.7991 17.1721C49.7991 17.2111 49.7991 17.2515 49.7991 17.2908C49.7964 17.4166 49.7957 17.4193 49.6634 17.42C49.0002 17.42 48.3371 17.42 47.6741 17.42C47.3455 17.42 47.017 17.42 46.6877 17.42C46.547 17.42 46.546 17.4176 46.5453 17.2813C46.5433 17.1046 46.5453 16.929 46.5453 16.7534C46.5453 15.2122 46.5453 13.6706 46.5453 12.1287C46.5493 11.9189 46.5018 11.7114 46.407 11.5242C46.3474 11.4046 46.2555 11.3041 46.1415 11.2343C46.0276 11.1645 45.8963 11.1282 45.7628 11.1295C45.5365 11.118 45.3099 11.1418 45.091 11.2C44.7308 11.2951 44.3771 11.4134 44.0321 11.554C43.9867 11.5664 43.9474 11.595 43.9216 11.6344C43.8958 11.6739 43.8853 11.7213 43.8921 11.768C43.8975 12.6007 43.8958 13.4342 43.8958 14.2669V17.1745C43.8958 17.2084 43.8958 17.2423 43.8958 17.2762C43.8941 17.4169 43.8941 17.4186 43.7578 17.4193C43.5594 17.4193 43.3611 17.4193 43.1627 17.4193H40.8475C40.8075 17.4193 40.7682 17.4176 40.7289 17.4193C40.6692 17.421 40.6475 17.3905 40.6492 17.3356C40.6492 17.3016 40.6492 17.2677 40.6492 17.2338V8.93838C40.6505 8.9158 40.6505 8.89316 40.6492 8.87057C40.636 8.77699 40.6831 8.75935 40.7672 8.75935C41.3395 8.76207 41.9118 8.76207 42.4839 8.75935C42.5141 8.75665 42.5445 8.76314 42.571 8.77796C42.5975 8.79278 42.6189 8.81524 42.6324 8.84243C42.7643 9.06011 42.9037 9.27305 43.043 9.48667C43.0701 9.54489 43.1102 9.59607 43.1604 9.6362C43.5497 9.39689 43.9545 9.18382 44.3722 8.9984C44.9799 8.71997 45.6316 8.54968 46.2978 8.49521C46.8231 8.44646 47.3529 8.49742 47.8592 8.64543C48.2176 8.75618 48.5472 8.94413 48.8251 9.19603C49.1029 9.44793 49.3222 9.75767 49.4675 10.1034C49.6439 10.4956 49.7498 10.9158 49.7804 11.3448C49.7926 11.4977 49.7988 11.65 49.7988 11.8019C49.8006 13.5906 49.8007 15.3807 49.7991 17.1721Z" fill="#262626"/>
<path d="M39.3263 17.1893C39.3263 17.2233 39.3263 17.2572 39.3263 17.2911C39.3236 17.4169 39.3225 17.4196 39.1906 17.4203C38.477 17.4203 37.7631 17.4203 37.049 17.4203C36.7652 17.4203 36.4821 17.4203 36.199 17.4203C36.0759 17.4203 36.0759 17.4165 36.0722 17.2995C36.0705 17.2656 36.0722 17.2317 36.0722 17.1978C36.0722 14.4561 36.0722 11.7137 36.0722 8.97086C36.0722 8.73351 36.041 8.76098 36.2756 8.76098C37.2221 8.76098 38.1681 8.76098 39.1137 8.76098C39.1425 8.76098 39.1703 8.76098 39.1991 8.76098C39.3242 8.76369 39.3259 8.76369 39.3259 8.89661C39.3259 9.6385 39.3259 10.3806 39.3259 11.123V17.1924L39.3263 17.1893Z" fill="#262626"/>
<path d="M39.4751 5.86163C39.4649 6.32922 39.2716 6.77415 38.9368 7.10075C38.602 7.42735 38.1524 7.60955 37.6847 7.6082C37.4542 7.60923 37.2257 7.56481 37.0122 7.4775C36.7988 7.39019 36.6047 7.26169 36.441 7.09934C36.2772 6.93699 36.1471 6.74397 36.058 6.53131C35.9688 6.31865 35.9225 6.09052 35.9216 5.85994C35.9183 5.62466 35.9619 5.39108 36.0496 5.17277C36.1374 4.95445 36.2677 4.75576 36.4329 4.58823C36.5982 4.42071 36.795 4.28767 37.0121 4.19688C37.2292 4.10608 37.4622 4.05933 37.6975 4.05933C37.9328 4.05933 38.1657 4.10608 38.3828 4.19688C38.5999 4.28767 38.7968 4.42071 38.962 4.58823C39.1272 4.75576 39.2575 4.95445 39.3453 5.17277C39.4331 5.39108 39.4766 5.62466 39.4734 5.85994L39.4751 5.86163Z" fill="#262626"/>
<path d="M35.0518 11.4536C34.8313 10.7355 34.4158 10.0927 33.8515 9.59686C33.3661 9.17821 32.7937 8.87258 32.1758 8.70204C31.559 8.53166 30.9204 8.45306 30.2807 8.46876C29.3544 8.46213 28.4423 8.69578 27.6332 9.14691C26.888 9.56507 26.2916 10.2051 25.927 10.9779C25.6501 11.5675 25.5023 12.2094 25.4937 12.8608C25.4678 13.4596 25.535 14.0589 25.6927 14.6372C25.8646 15.2802 26.2073 15.8648 26.6845 16.3288C27.1654 16.7877 27.7455 17.1297 28.3799 17.3281C28.9994 17.5281 29.6487 17.6198 30.2994 17.5993C30.5642 17.5926 30.8297 17.5993 31.0955 17.5688C31.6636 17.5081 32.2199 17.3651 32.7468 17.1443C33.3137 16.9099 33.8219 16.5534 34.2353 16.1003C34.8655 15.3934 35.2335 14.4914 35.2776 13.5454C35.3347 12.8401 35.2581 12.1304 35.0518 11.4536ZM31.7187 14.1855C31.6133 14.4102 31.4467 14.6006 31.2381 14.735C31.0295 14.8695 30.7872 14.9425 30.5391 14.9458C30.3359 14.9686 30.1302 14.9549 29.9318 14.9054C29.7349 14.851 29.5533 14.7518 29.4011 14.6156C29.249 14.4794 29.1304 14.3098 29.0546 14.1201C28.8852 13.7108 28.818 13.2663 28.859 12.8252C28.8672 12.4561 28.9724 12.0957 29.1642 11.7802C29.2868 11.5785 29.4598 11.4123 29.6662 11.2977C29.8725 11.1832 30.1051 11.1242 30.3411 11.1268C30.6836 11.0972 31.0241 11.2022 31.2905 11.4194C31.4774 11.5854 31.6236 11.7923 31.7177 12.0239C31.863 12.3641 31.9335 12.7314 31.9246 13.1012C31.9429 13.4738 31.8723 13.8455 31.7187 14.1855Z" fill="#262626"/>
<path d="M25.3519 16.5954C25.4306 16.7545 25.4618 16.7362 25.2821 16.8348C25.0343 16.9709 24.7753 17.0854 24.508 17.1773C23.8832 17.3939 23.2354 17.5376 22.5776 17.6055C22.3064 17.6334 22.0351 17.6289 21.8815 17.6334C21.028 17.6633 20.1762 17.5377 19.3676 17.2627C18.4246 16.9433 17.5841 16.3775 16.9332 15.624C16.2824 14.8705 15.8448 13.9567 15.6659 12.9772C15.5187 12.2618 15.4743 11.529 15.5341 10.801C15.6066 9.57935 16.0348 8.40557 16.7659 7.42417C17.2565 6.76987 17.8806 6.22744 18.5969 5.8329C19.3501 5.41379 20.1842 5.16093 21.0433 5.09135C22.2324 4.98172 23.43 5.17052 24.5276 5.64064C24.7666 5.74351 24.9971 5.86505 25.217 6.00413C25.2311 6.00971 25.2438 6.01839 25.2542 6.02952C25.2645 6.04066 25.2722 6.05397 25.2767 6.06847C25.2812 6.08298 25.2825 6.09831 25.2803 6.11334C25.2781 6.12838 25.2726 6.14274 25.2641 6.15536C24.9671 6.8213 24.6732 7.48815 24.3825 8.15589C24.3273 8.28169 24.3327 8.27118 24.213 8.23083C23.7453 8.06311 23.2668 7.92718 22.7807 7.82394C22.3486 7.73549 21.9056 7.71343 21.4668 7.7585C20.9702 7.8268 20.5063 8.04505 20.137 8.38409C19.5646 8.88239 19.1673 9.55133 19.0038 10.2924C18.8065 11.0813 18.8264 11.9088 19.0614 12.6873C19.2794 13.4707 19.7861 14.1425 20.4795 14.5674C21.012 14.8891 21.6359 15.0257 22.2542 14.956C22.8865 14.8949 23.4989 14.7012 24.0513 14.3874C24.192 14.3098 24.193 14.3104 24.2611 14.445C24.567 15.0513 24.8731 15.6573 25.1793 16.2631C25.2367 16.3754 25.2987 16.4836 25.3519 16.5954Z" fill="#262626"/>
<path d="M9.97573 13.9971C10.5625 13.9994 11.1354 14.1755 11.6221 14.5031C12.1088 14.8308 12.4875 15.2954 12.7103 15.8382C12.9332 16.3809 12.9902 16.9776 12.8742 17.5527C12.7581 18.1279 12.4742 18.6558 12.0584 19.0697C11.6425 19.4836 11.1133 19.765 10.5377 19.8783C9.96196 19.9917 9.36559 19.9319 8.82386 19.7065C8.28214 19.4811 7.81935 19.1002 7.49395 18.612C7.16855 18.1238 6.99514 17.55 6.99561 16.9633C6.99596 16.5727 7.07338 16.186 7.22344 15.8254C7.3735 15.4648 7.59325 15.1373 7.87009 14.8617C8.14693 14.5862 8.47543 14.368 8.83675 14.2196C9.19808 14.0712 9.58513 13.9956 9.97573 13.9971Z" fill="#262626"/>
<path d="M9.97112 7.094C10.5584 7.09521 11.1321 7.27064 11.6197 7.59808C12.1072 7.92552 12.4867 8.39025 12.71 8.93344C12.9333 9.47663 12.9904 10.0739 12.8741 10.6495C12.7579 11.2252 12.4734 11.7534 12.0568 12.1674C11.6401 12.5813 11.1101 12.8623 10.5336 12.9748C9.95722 13.0874 9.36037 13.0263 8.81865 12.7995C8.27693 12.5727 7.81467 12.1902 7.49042 11.7005C7.16616 11.2109 6.99448 10.636 6.9971 10.0487C7.00069 9.26282 7.31579 8.51043 7.8733 7.95654C8.43082 7.40265 9.18523 7.09247 9.97112 7.094Z" fill="#262626"/>
<path d="M9.97403 0.224137C10.5608 0.226081 11.1338 0.401854 11.6207 0.729256C12.1076 1.05666 12.4865 1.521 12.7097 2.06365C12.9329 2.6063 12.9902 3.20291 12.8745 3.77813C12.7588 4.35335 12.4752 4.88138 12.0596 5.29553C11.644 5.70969 11.1149 5.99139 10.5393 6.10506C9.96368 6.21873 9.36729 6.15928 8.82543 5.9342C8.28358 5.70913 7.82058 5.32853 7.4949 4.84047C7.16922 4.35241 6.99547 3.77879 6.99561 3.19205C6.99569 2.80144 7.07286 2.41468 7.2227 2.05395C7.37254 1.69322 7.59209 1.36561 7.86879 1.08989C8.14548 0.814178 8.47388 0.595777 8.83514 0.447213C9.1964 0.29865 9.58342 0.222844 9.97403 0.224137Z" fill="#262626"/>
<path d="M6.04463 16.9718C6.04307 17.559 5.86734 18.1325 5.53964 18.6197C5.21194 19.107 4.74702 19.486 4.20377 19.7089C3.66052 19.9317 3.06335 19.9884 2.48789 19.8716C1.91243 19.7549 1.38454 19.47 0.971078 19.0531C0.557615 18.6362 0.277166 18.1059 0.16524 17.5295C0.0533135 16.9531 0.114945 16.3564 0.34233 15.815C0.569715 15.2737 0.952626 14.812 1.44258 14.4883C1.93254 14.1647 2.5075 13.9938 3.09468 13.9971C3.48416 13.9971 3.8698 14.0742 4.22933 14.224C4.58885 14.3738 4.91515 14.5933 5.18941 14.8699C5.46366 15.1464 5.68044 15.4746 5.82722 15.8353C5.974 16.1961 6.04789 16.5823 6.04463 16.9718Z" fill="#262626"/>
<path d="M6.04499 10.0767C6.04174 10.6637 5.86441 11.2365 5.53544 11.7226C5.20648 12.2087 4.74067 12.5863 4.19699 12.8075C3.65331 13.0288 3.05621 13.0837 2.48129 12.9654C1.90638 12.847 1.3795 12.5608 0.967362 12.1429C0.555224 11.7249 0.276374 11.1941 0.166097 10.6176C0.0558198 10.0411 0.119087 9.4448 0.347886 8.90426C0.576684 8.36373 0.960725 7.90324 1.45139 7.58109C1.94205 7.25895 2.51726 7.08963 3.10421 7.09459C3.49355 7.09577 3.87882 7.17402 4.23778 7.32482C4.59674 7.47562 4.92229 7.69599 5.19567 7.97321C5.46905 8.25044 5.68485 8.57904 5.83062 8.94007C5.97639 9.3011 6.04924 9.68742 6.04499 10.0767Z" fill="#262626"/>
<path d="M6.04412 3.20361C6.04182 3.79083 5.86531 4.36416 5.53695 4.851C5.20859 5.33784 4.74316 5.71629 4.19957 5.93843C3.65598 6.16056 3.0587 6.21639 2.48336 6.09885C1.90802 5.9813 1.38048 5.69566 0.967589 5.27811C0.554693 4.86055 0.275008 4.32986 0.163923 3.75324C0.0528382 3.17662 0.11536 2.58 0.34358 2.03893C0.571801 1.49787 0.955449 1.0367 1.44594 0.713827C1.93644 0.39095 2.51172 0.220886 3.09893 0.225177C3.48833 0.225785 3.87375 0.303488 4.23298 0.453794C4.5922 0.604101 4.9181 0.824036 5.1919 1.10092C5.4657 1.37781 5.68197 1.70617 5.82824 2.06706C5.97451 2.42795 6.04788 2.81422 6.04412 3.20361Z" fill="#262626"/>
</svg>
