<svg width="116" height="24" viewBox="0 0 116 24" fill="none" xmlns="http://www.w3.org/2000/svg">
<path d="M17.1804 1.39341V15.4164C17.1804 17.0174 16.8346 18.4207 16.1428 19.6263C15.4609 20.8221 14.4677 21.7461 13.1633 22.3983C11.8687 23.0407 10.3172 23.3618 8.50869 23.3618C5.8207 23.3618 3.73058 22.6503 2.23835 21.2273C0.746117 19.8042 0 17.8475 0 15.3572V1.39341H3.55764V15.1052C3.55764 16.8939 3.9727 18.2132 4.80282 19.063C5.63293 19.9129 6.90775 20.3379 8.62728 20.3379C11.9675 20.3379 13.6376 18.5837 13.6376 15.0755V1.39341H17.1804Z" fill="white"/>
<path d="M36.7771 23.0654H33.2788V12.9854C33.2788 11.7205 33.0218 10.7767 32.5079 10.1541C32.004 9.53152 31.1985 9.22022 30.0917 9.22022C28.6192 9.22022 27.5421 9.65505 26.8602 10.5247C26.1783 11.3943 25.8374 12.852 25.8374 14.8976V23.0654H22.3538V6.67058H25.0814L25.5705 8.81999H25.7484C26.2425 8.03928 26.9442 7.43646 27.8534 7.01152C28.7625 6.58658 29.7705 6.37411 30.8774 6.37411C34.8105 6.37411 36.7771 8.37528 36.7771 12.3776V23.0654Z" fill="white"/>
<path d="M45.1079 23.0654H41.6244V6.67058H45.1079V23.0654ZM41.4169 2.32729C41.4169 1.7047 41.5849 1.22541 41.9209 0.88941C42.2668 0.553411 42.7559 0.385411 43.3884 0.385411C44.0011 0.385411 44.4755 0.553411 44.8115 0.88941C45.1573 1.22541 45.3303 1.7047 45.3303 2.32729C45.3303 2.92023 45.1573 3.38964 44.8115 3.73552C44.4755 4.07152 44.0011 4.23952 43.3884 4.23952C42.7559 4.23952 42.2668 4.07152 41.9209 3.73552C41.5849 3.38964 41.4169 2.92023 41.4169 2.32729Z" fill="white"/>
<path d="M61.1173 18.396C61.1173 19.9969 60.5343 21.2273 59.3681 22.087C58.202 22.9369 56.5319 23.3618 54.3578 23.3618C52.1738 23.3618 50.4197 23.0308 49.0955 22.3687V19.3595C51.0225 20.2489 52.8162 20.6936 54.4764 20.6936C56.6209 20.6936 57.6931 20.0463 57.6931 18.7517C57.6931 18.3367 57.5745 17.9908 57.3373 17.7141C57.1002 17.4374 56.7098 17.1508 56.1663 16.8543C55.6227 16.5579 54.8667 16.2219 53.8983 15.8463C52.0107 15.115 50.731 14.3837 50.059 13.6525C49.3969 12.9212 49.0658 11.9725 49.0658 10.8063C49.0658 9.40305 49.6291 8.31599 50.7557 7.54517C51.8922 6.76446 53.4338 6.37411 55.3806 6.37411C57.3077 6.37411 59.131 6.76446 60.8505 7.54517L59.7239 10.1689C57.955 9.43763 56.4677 9.07199 55.262 9.07199C53.4239 9.07199 52.5049 9.59575 52.5049 10.6433C52.5049 11.1572 52.742 11.592 53.2164 11.9477C53.7006 12.3035 54.7482 12.7927 56.359 13.4153C57.7129 13.939 58.6961 14.4183 59.3088 14.8532C59.9216 15.288 60.3761 15.792 60.6726 16.3652C60.9691 16.9284 61.1173 17.6054 61.1173 18.396Z" fill="white"/>
<path d="M72.0571 23.3618C69.5074 23.3618 67.5112 22.6207 66.0684 21.1383C64.6354 19.6461 63.919 17.5955 63.919 14.9866C63.919 12.3085 64.586 10.2035 65.9201 8.67175C67.2543 7.13999 69.0874 6.37411 71.4197 6.37411C73.5839 6.37411 75.2935 7.03128 76.5486 8.34564C77.8037 9.65999 78.4312 11.4685 78.4312 13.771V15.6536H67.5063C67.5557 17.2447 67.9855 18.4701 68.7959 19.3299C69.6063 20.1797 70.7477 20.6047 72.2201 20.6047C73.1886 20.6047 74.0879 20.5157 74.918 20.3379C75.758 20.1501 76.6573 19.8437 77.6159 19.4188V22.2501C76.766 22.6553 75.9062 22.9418 75.0366 23.1098C74.167 23.2778 73.1738 23.3618 72.0571 23.3618ZM71.4197 9.01269C70.3128 9.01269 69.4234 9.36352 68.7514 10.0652C68.0893 10.7668 67.694 11.7896 67.5656 13.1336H75.007C74.9872 11.7797 74.6611 10.7569 74.0286 10.0652C73.3961 9.36352 72.5265 9.01269 71.4197 9.01269Z" fill="white"/>
<path d="M96.8123 23.0654H93.314V12.9854C93.314 11.7205 93.057 10.7767 92.5431 10.1541C92.0391 9.53152 91.2337 9.22022 90.1269 9.22022C88.6544 9.22022 87.5773 9.65505 86.8954 10.5247C86.2135 11.3943 85.8726 12.852 85.8726 14.8976V23.0654H82.3891V6.67058H85.1166L85.6058 8.81999H85.7836C86.2777 8.03928 86.9794 7.43646 87.8886 7.01152C88.7977 6.58658 89.8057 6.37411 90.9126 6.37411C94.8457 6.37411 96.8123 8.37528 96.8123 12.3776V23.0654Z" fill="white"/>
<path d="M107.189 23.3618C105.143 23.3618 103.547 22.6207 102.401 21.1383C101.254 19.656 100.681 17.5757 100.681 14.8976C100.681 12.2096 101.259 10.1195 102.416 8.62728C103.582 7.12517 105.193 6.37411 107.248 6.37411C109.402 6.37411 111.043 7.16964 112.169 8.76069H112.347C112.179 7.58469 112.095 6.65576 112.095 5.97387V0H115.594V23.0654H112.866L112.258 20.916H112.095C110.979 22.5466 109.343 23.3618 107.189 23.3618ZM108.123 20.5454C109.556 20.5454 110.598 20.1451 111.25 19.3447C111.903 18.5343 112.239 17.2249 112.258 15.4164V14.9273C112.258 12.8619 111.922 11.3943 111.25 10.5247C110.578 9.65505 109.526 9.22022 108.093 9.22022C106.868 9.22022 105.924 9.71928 105.262 10.7174C104.6 11.7056 104.269 13.1188 104.269 14.9569C104.269 16.7753 104.59 18.1637 105.232 19.1223C105.874 20.071 106.838 20.5454 108.123 20.5454Z" fill="white"/>
</svg>
