<svg viewBox="0 0 50 50" fill="none" xmlns="http://www.w3.org/2000/svg">
<path d="M22.9259 40.1901C19.5156 39.736 16.3573 38.1456 13.9596 35.6751L0 21.3476C0.888418 21.2019 1.78792 21.1347 2.68809 21.1469C5.14002 21.1613 7.55217 21.7687 9.71928 22.9174C11.0867 23.6476 12.3329 24.5856 13.4135 25.6979L18.5622 30.9837C18.5944 31.0172 18.6265 31.0519 18.6599 31.0854C20.2781 32.7472 22.4853 33.703 24.8027 33.7457C27.1202 33.7883 29.361 32.9143 31.039 31.3131L25.6628 36.5655C24.5719 37.6274 23.649 38.8497 22.9259 40.1901Z" fill="url(#paint0_linear)"/>
<path d="M35.6272 36.0278L21.3168 50.0001C20.7703 46.642 21.3352 43.197 22.9255 40.1903C23.6487 38.8499 24.5716 37.6276 25.6625 36.5656L31.0387 31.3133C31.8825 30.5091 32.5586 29.5451 33.0276 28.4772C33.4966 27.4093 33.7492 26.2589 33.7708 25.0925C33.7925 23.9261 33.5827 22.7671 33.1536 21.6825C32.7245 20.5979 32.0847 19.6095 31.2712 18.7744L36.5151 24.1567C37.5951 25.2691 38.8409 26.2071 40.208 26.9372C39.7581 30.3991 38.1421 33.6037 35.6272 36.0214V36.0278Z" fill="url(#paint1_linear)"/>
<path d="M49.9291 28.5067C46.6041 29.047 43.1938 28.4958 40.2073 26.9356C38.8402 26.2055 37.5944 25.2675 36.5144 24.1551L31.2667 18.7689C30.4592 17.9397 29.4966 17.278 28.4337 16.8214C27.3708 16.3648 26.2285 16.1223 25.0721 16.1079C23.9156 16.0934 22.7676 16.3072 21.6937 16.7371C20.6198 17.167 19.6409 17.8045 18.813 18.6132L24.1186 13.4317C25.2499 12.3302 26.2008 11.057 26.9364 9.65907C30.3709 10.0991 33.5551 11.6916 35.9696 14.1767L49.9291 28.5067Z" fill="url(#paint2_linear)"/>
<path d="M18.5625 30.9838L13.4138 25.698C12.3332 24.5856 11.087 23.6477 9.71957 22.9175C10.1613 19.5259 11.7226 16.3796 14.1552 13.9787L28.4656 0C28.6112 0.889626 28.6783 1.79037 28.666 2.69178C28.6506 5.11876 28.0582 7.50715 26.9378 9.65928C26.2022 11.0572 25.2512 12.3304 24.1199 13.4319L18.8144 18.6134C17.1586 20.2289 16.2035 22.4315 16.1555 24.7459C16.1074 27.0603 16.9701 29.3008 18.5574 30.9838H18.5625Z" fill="url(#paint3_linear)"/>
<defs>
<linearGradient id="paint0_linear" x1="26.878" y1="37.8325" x2="10.068" y2="20.7051" gradientUnits="userSpaceOnUse">
<stop stop-color="#0044FF"/>
<stop offset="0.14" stop-color="#014AFF"/>
<stop offset="0.33" stop-color="#025BFF"/>
<stop offset="0.54" stop-color="#0577FF"/>
<stop offset="0.76" stop-color="#089DFF"/>
<stop offset="1" stop-color="#0DCDFF"/>
</linearGradient>
<linearGradient id="paint1_linear" x1="39.7647" y1="21.1865" x2="15.1139" y2="45.3161" gradientUnits="userSpaceOnUse">
<stop stop-color="#0BD425"/>
<stop offset="0.11" stop-color="#11D527"/>
<stop offset="0.27" stop-color="#23DA2C"/>
<stop offset="0.45" stop-color="#40E134"/>
<stop offset="0.65" stop-color="#68EA40"/>
<stop offset="0.87" stop-color="#9BF64F"/>
<stop offset="1" stop-color="#BFFF59"/>
</linearGradient>
<linearGradient id="paint2_linear" x1="21.9307" y1="11.7116" x2="46.3596" y2="31.923" gradientUnits="userSpaceOnUse">
<stop stop-color="#FF3F0C"/>
<stop offset="0.22" stop-color="#FF4A0E"/>
<stop offset="0.61" stop-color="#FF6913"/>
<stop offset="1" stop-color="#FF8E1A"/>
</linearGradient>
<linearGradient id="paint3_linear" x1="9.71957" y1="2.1065" x2="27.2089" y2="-3.25125" gradientUnits="userSpaceOnUse">
<stop stop-color="#7A00E6"/>
<stop offset="0.19" stop-color="#7E07E8"/>
<stop offset="0.47" stop-color="#8819EE"/>
<stop offset="0.79" stop-color="#9838F8"/>
<stop offset="1" stop-color="#A550FF"/>
</linearGradient>
</defs>
</svg>
