<svg width="1439" height="1182" viewBox="0 0 1439 1182" fill="none" xmlns="http://www.w3.org/2000/svg">
<mask id="mask0" mask-type="alpha" maskUnits="userSpaceOnUse" x="0" y="0" width="1440" height="1182">
<rect width="1440" height="1182" fill="#000E33"/>
</mask>
<g mask="url(#mask0)">
<path d="M57.3589 894.075C-41.1657 881.048 -129.11 834.801 -195.039 767.165L-195.096 767.222L-588 364.42C-563.369 360.381 -538.112 358.447 -512.343 358.788C-440.099 359.641 -373.146 377.276 -314.441 408.562C-275.986 429.041 -241.059 455.379 -210.455 486.722L-65.5124 635.306C-64.6023 636.273 -63.6921 637.24 -62.7819 638.207C-18.4686 683.601 43.1377 712.1 111.57 713.01C178.979 713.864 240.471 687.697 285.638 644.578L134.381 792.194C103.606 822.229 77.6668 856.474 57.3589 894.075Z" stroke="#2C2C2C" stroke-width="6" stroke-miterlimit="10"/>
<path d="M414.539 776.551L11.6802 1169.51C7.64133 1144.88 5.70723 1119.62 6.04854 1093.85C6.9587 1020.76 24.9912 953.008 57.0174 893.79C77.3253 856.133 103.265 821.945 134.04 791.91L285.41 644.237C332.056 599.809 361.465 537.35 362.318 467.836C363.172 399.404 336.265 337.115 291.952 291.721L439.568 443.035C470.172 474.435 505.1 500.716 543.554 521.195C530.584 621.084 483.54 710.109 414.539 776.551Z" stroke="#2C2C2C" stroke-width="6" stroke-miterlimit="10"/>
<path d="M-65.2844 635.135L-210.227 486.552C-240.831 455.151 -275.758 428.871 -314.213 408.392C-301.47 310.493 -256.019 223.004 -189.35 157.075L213.451 -235.886C217.49 -211.312 219.424 -185.998 219.083 -160.229C218.23 -88.8955 201.051 -22.6246 170.446 35.6255C149.797 74.933 123.061 110.543 91.1489 141.659L-58.2307 287.398C-103.625 331.711 -132.181 393.318 -133.034 461.807C-133.831 528.817 -108.005 589.912 -65.2844 635.135Z" stroke="#2C2C2C" stroke-width="6" stroke-miterlimit="10"/>
<path d="M213.508 -236C169.877 -47.8249 25.7311 83.9205 25.7311 83.9205L-121.032 227.1C-172.627 278.125 -207.781 345.818 -217.679 421.589C-217.679 421.589 -224.107 465.334 -217.509 479.27" stroke="#2C2C2C" stroke-width="6" stroke-miterlimit="10"/>
<path d="M817.568 565.678C792.937 569.717 767.68 571.651 741.911 571.31C669.668 570.457 602.657 552.822 543.895 521.479C505.441 501 470.514 474.719 439.91 443.319L292.18 291.891C247.923 246.44 186.26 217.941 117.771 217.088C49.2812 216.234 -13.0077 243.198 -58.4019 287.568L90.9209 141.886C122.833 110.77 149.569 75.1031 170.218 35.8525C269.539 48.5379 358.166 94.8421 424.551 162.876L817.568 565.678Z" stroke="#2C2C2C" stroke-width="6" stroke-miterlimit="10"/>
<path d="M817.626 565.337C629.052 523.356 496.056 380.404 496.056 380.404L351.568 234.893C300.087 183.753 232.11 149.167 156.225 140.009C156.225 140.009 104.631 135.231 90.7509 142" stroke="#2C2C2C" stroke-width="6" stroke-miterlimit="10"/>
<path d="M12.5333 1166.67C54.5143 978.094 197.466 845.097 197.466 845.097L342.977 700.609C394.117 649.129 428.703 581.151 437.861 505.267C437.861 505.267 442.64 453.672 435.87 439.792" stroke="#2C2C2C" stroke-width="6" stroke-miterlimit="10"/>
<path d="M-588 364.42C-399.427 406.401 -266.43 549.353 -266.43 549.353L-121.942 694.864C-70.4614 746.004 -2.48396 780.59 73.4005 789.748C73.4005 789.748 124.995 794.526 138.875 787.757" stroke="#2C2C2C" stroke-width="6" stroke-miterlimit="10"/>
<path d="M1267.3 894.075C1168.78 881.048 1080.83 834.801 1014.9 767.164L1014.85 767.221L621.942 364.42C646.573 360.381 671.83 358.447 697.599 358.788C769.843 359.641 836.796 377.276 895.501 408.562C933.955 429.041 968.883 455.379 999.487 486.722L1144.43 635.305C1145.34 636.272 1146.25 637.239 1147.16 638.206C1191.47 683.601 1253.08 712.1 1321.51 713.01C1388.92 713.863 1450.41 687.696 1495.58 644.578L1344.32 792.194C1313.55 822.229 1287.61 856.474 1267.3 894.075Z" stroke="#2C2C2C" stroke-width="6" stroke-miterlimit="10"/>
<path d="M1624.48 776.55L1221.62 1169.51C1217.58 1144.88 1215.65 1119.62 1215.99 1093.85C1216.9 1020.76 1234.93 953.007 1266.96 893.79C1287.27 856.132 1313.21 821.945 1343.98 791.909L1495.35 644.236C1542 599.809 1571.41 537.35 1572.26 467.836C1573.11 399.404 1546.21 337.115 1501.89 291.721L1649.51 443.034C1680.11 474.435 1715.04 500.716 1753.5 521.194C1740.47 621.084 1693.43 710.109 1624.48 776.55Z" stroke="#2C2C2C" stroke-width="6" stroke-miterlimit="10"/>
<path d="M1144.66 635.135L999.715 486.552C969.111 455.151 934.183 428.871 895.729 408.392C908.471 310.493 953.922 223.004 1020.59 157.075L1423.39 -235.886C1427.43 -211.312 1429.37 -185.998 1429.02 -160.229C1428.17 -88.8955 1410.99 -22.6246 1380.39 35.6255C1359.74 74.933 1333 110.543 1301.09 141.659L1151.71 287.398C1106.32 331.711 1077.76 393.318 1076.91 461.807C1076.11 528.817 1101.94 589.912 1144.66 635.135Z" stroke="#2C2C2C" stroke-width="6" stroke-miterlimit="10"/>
<path d="M1423.45 -236C1379.76 -47.8249 1235.67 83.9205 1235.67 83.9205L1088.91 227.1C1037.32 278.125 1002.16 345.818 992.263 421.589C992.263 421.589 985.835 465.334 992.433 479.27" stroke="#2C2C2C" stroke-width="6" stroke-miterlimit="10"/>
<path d="M2027.45 565.678C2002.82 569.717 1977.57 571.651 1951.8 571.31C1879.55 570.457 1812.54 552.822 1753.78 521.479C1715.33 501 1680.4 474.719 1649.8 443.319L1502.07 291.891C1457.81 246.44 1396.15 217.941 1327.66 217.088C1259.17 216.234 1196.88 243.198 1151.48 287.568L1300.81 141.886C1332.72 110.77 1359.45 75.1031 1380.1 35.8525C1479.42 48.5379 1568.05 94.8421 1634.44 162.876L2027.45 565.678Z" stroke="#2C2C2C" stroke-width="6" stroke-miterlimit="10"/>
<path d="M2027.57 565.337C1838.99 523.356 1706 380.404 1706 380.404L1561.51 234.893C1510.03 183.753 1442.05 149.167 1366.17 140.009C1366.17 140.009 1314.57 135.231 1300.69 142" stroke="#2C2C2C" stroke-width="6" stroke-miterlimit="10"/>
<path d="M1222.48 1166.67C1264.46 978.094 1407.41 845.097 1407.41 845.097L1552.92 700.609C1604.06 649.129 1638.64 581.151 1647.8 505.267C1647.8 505.267 1652.58 453.672 1645.81 439.792" stroke="#2C2C2C" stroke-width="6" stroke-miterlimit="10"/>
<path d="M621.942 364.42C810.515 406.401 943.512 549.352 943.512 549.352L1088 694.864C1139.48 746.003 1207.46 780.589 1283.34 789.748C1283.34 789.748 1334.94 794.526 1348.82 787.757" stroke="#2C2C2C" stroke-width="6" stroke-miterlimit="10"/>
<path d="M57.3589 894.075C-41.1657 881.048 -129.11 834.801 -195.039 767.165L-195.096 767.222L-588 364.42C-563.369 360.381 -538.112 358.447 -512.343 358.788C-440.099 359.641 -373.146 377.276 -314.441 408.562C-275.986 429.041 -241.059 455.379 -210.455 486.722L-65.5124 635.306C-64.6023 636.273 -63.6921 637.24 -62.7819 638.207C-18.4686 683.601 43.1377 712.1 111.57 713.01C178.979 713.864 240.471 687.697 285.638 644.578L134.381 792.194C103.606 822.229 77.6668 856.474 57.3589 894.075Z" stroke="#2C2C2C" stroke-width="6" stroke-miterlimit="10"/>
<path d="M414.539 776.551L11.6802 1169.51C7.64133 1144.88 5.70723 1119.62 6.04854 1093.85C6.9587 1020.76 24.9912 953.008 57.0174 893.79C77.3253 856.133 103.265 821.945 134.04 791.91L285.41 644.237C332.056 599.809 361.465 537.35 362.318 467.836C363.172 399.404 336.265 337.115 291.952 291.721L439.568 443.035C470.172 474.435 505.1 500.716 543.554 521.195C530.584 621.084 483.54 710.109 414.539 776.551Z" stroke="#2C2C2C" stroke-width="6" stroke-miterlimit="10"/>
<path d="M-65.2844 635.135L-210.227 486.552C-240.831 455.151 -275.758 428.871 -314.213 408.392C-301.47 310.493 -256.019 223.004 -189.35 157.075L213.451 -235.886C217.49 -211.312 219.424 -185.998 219.083 -160.229C218.23 -88.8955 201.051 -22.6246 170.446 35.6255C149.797 74.933 123.061 110.543 91.1489 141.659L-58.2307 287.398C-103.625 331.711 -132.181 393.318 -133.034 461.807C-133.831 528.817 -108.005 589.912 -65.2844 635.135Z" stroke="#2C2C2C" stroke-width="6" stroke-miterlimit="10"/>
<path d="M213.508 -236C169.877 -47.8249 25.7311 83.9205 25.7311 83.9205L-121.032 227.1C-172.627 278.125 -207.781 345.818 -217.679 421.589C-217.679 421.589 -224.107 465.334 -217.509 479.27" stroke="#2C2C2C" stroke-width="6" stroke-miterlimit="10"/>
<path d="M817.568 565.678C792.937 569.717 767.68 571.651 741.911 571.31C669.668 570.457 602.657 552.822 543.895 521.479C505.441 501 470.514 474.719 439.91 443.319L292.18 291.891C247.923 246.44 186.26 217.941 117.771 217.088C49.2812 216.234 -13.0077 243.198 -58.4019 287.568L90.9209 141.886C122.833 110.77 149.569 75.1031 170.218 35.8525C269.539 48.5379 358.166 94.8421 424.551 162.876L817.568 565.678Z" stroke="#2C2C2C" stroke-width="6" stroke-miterlimit="10"/>
<path d="M817.626 565.337C629.052 523.356 496.056 380.404 496.056 380.404L351.568 234.893C300.087 183.753 232.11 149.167 156.225 140.009C156.225 140.009 104.631 135.231 90.7509 142" stroke="#2C2C2C" stroke-width="6" stroke-miterlimit="10"/>
<path d="M12.5333 1166.67C54.5143 978.094 197.466 845.097 197.466 845.097L342.977 700.609C394.117 649.129 428.703 581.151 437.861 505.267C437.861 505.267 442.64 453.672 435.87 439.792" stroke="#2C2C2C" stroke-width="6" stroke-miterlimit="10"/>
<path d="M-588 364.42C-399.427 406.401 -266.43 549.353 -266.43 549.353L-121.942 694.864C-70.4614 746.004 -2.48396 780.59 73.4005 789.748C73.4005 789.748 124.995 794.526 138.875 787.757" stroke="#2C2C2C" stroke-width="6" stroke-miterlimit="10"/>
<path d="M1267.3 894.075C1168.78 881.048 1080.83 834.801 1014.9 767.164L1014.85 767.221L621.942 364.42C646.573 360.381 671.83 358.447 697.599 358.788C769.843 359.641 836.796 377.276 895.501 408.562C933.955 429.041 968.883 455.379 999.487 486.722L1144.43 635.305C1145.34 636.272 1146.25 637.239 1147.16 638.206C1191.47 683.601 1253.08 712.1 1321.51 713.01C1388.92 713.863 1450.41 687.696 1495.58 644.578L1344.32 792.194C1313.55 822.229 1287.61 856.474 1267.3 894.075Z" stroke="#2C2C2C" stroke-width="6" stroke-miterlimit="10"/>
<path d="M1624.48 776.55L1221.62 1169.51C1217.58 1144.88 1215.65 1119.62 1215.99 1093.85C1216.9 1020.76 1234.93 953.007 1266.96 893.79C1287.27 856.132 1313.21 821.945 1343.98 791.909L1495.35 644.236C1542 599.809 1571.41 537.35 1572.26 467.836C1573.11 399.404 1546.21 337.115 1501.89 291.721L1649.51 443.034C1680.11 474.435 1715.04 500.716 1753.5 521.194C1740.47 621.084 1693.43 710.109 1624.48 776.55Z" stroke="#2C2C2C" stroke-width="6" stroke-miterlimit="10"/>
<path d="M1144.66 635.135L999.715 486.552C969.111 455.151 934.183 428.871 895.729 408.392C908.471 310.493 953.922 223.004 1020.59 157.075L1423.39 -235.886C1427.43 -211.312 1429.37 -185.998 1429.02 -160.229C1428.17 -88.8955 1410.99 -22.6246 1380.39 35.6255C1359.74 74.933 1333 110.543 1301.09 141.659L1151.71 287.398C1106.32 331.711 1077.76 393.318 1076.91 461.807C1076.11 528.817 1101.94 589.912 1144.66 635.135Z" stroke="#2C2C2C" stroke-width="6" stroke-miterlimit="10"/>
<path d="M1423.45 -236C1379.76 -47.8249 1235.67 83.9205 1235.67 83.9205L1088.91 227.1C1037.32 278.125 1002.16 345.818 992.263 421.589C992.263 421.589 985.835 465.334 992.433 479.27" stroke="#2C2C2C" stroke-width="6" stroke-miterlimit="10"/>
<path d="M2027.45 565.678C2002.82 569.717 1977.57 571.651 1951.8 571.31C1879.55 570.457 1812.54 552.822 1753.78 521.479C1715.33 501 1680.4 474.719 1649.8 443.319L1502.07 291.891C1457.81 246.44 1396.15 217.941 1327.66 217.088C1259.17 216.234 1196.88 243.198 1151.48 287.568L1300.81 141.886C1332.72 110.77 1359.45 75.1031 1380.1 35.8525C1479.42 48.5379 1568.05 94.8421 1634.44 162.876L2027.45 565.678Z" stroke="#2C2C2C" stroke-width="6" stroke-miterlimit="10"/>
<path d="M2027.57 565.337C1838.99 523.356 1706 380.404 1706 380.404L1561.51 234.893C1510.03 183.753 1442.05 149.167 1366.17 140.009C1366.17 140.009 1314.57 135.231 1300.69 142" stroke="#2C2C2C" stroke-width="6" stroke-miterlimit="10"/>
<path d="M1222.48 1166.67C1264.46 978.094 1407.41 845.097 1407.41 845.097L1552.92 700.609C1604.06 649.129 1638.64 581.151 1647.8 505.267C1647.8 505.267 1652.58 453.672 1645.81 439.792" stroke="#2C2C2C" stroke-width="6" stroke-miterlimit="10"/>
<path d="M621.942 364.42C810.515 406.401 943.512 549.352 943.512 549.352L1088 694.864C1139.48 746.003 1207.46 780.589 1283.34 789.748C1283.34 789.748 1334.94 794.526 1348.82 787.757" stroke="#2C2C2C" stroke-width="6" stroke-miterlimit="10"/>
</g>
</svg>
