<svg width="123" height="32" viewBox="0 0 123 32" fill="none" xmlns="http://www.w3.org/2000/svg">
<g clip-path="url(#clip0)">
<path d="M23.8037 30.7677V5.66797H27.3663V30.7677H23.8037Z" fill="#706FAC"/>
<path d="M30.7671 30.7677V5.66797H34.1677L39.6735 20.7278V5.66797H43.236V30.7677H39.8354L34.3296 15.7079V30.7677H30.7671Z" fill="#706FAC"/>
<path d="M58.1337 12.7929H54.5711V11.9832C54.5711 11.1736 54.4092 10.5258 53.9234 9.87808C53.5995 9.23034 52.9518 8.90647 51.9802 8.90647C51.4944 8.90647 51.0086 9.06841 50.8466 9.23034C50.5227 9.55421 50.1989 9.71614 50.0369 10.04C49.875 10.3639 49.7131 10.6877 49.7131 11.0116C49.7131 11.3355 49.5511 11.8213 49.5511 12.3071C49.5511 12.7929 49.5511 13.2787 49.5511 13.6026C49.5511 13.9264 49.7131 14.2503 49.875 14.4122C50.0369 14.5742 50.1989 14.898 50.5227 15.06C50.8466 15.2219 51.1705 15.3838 51.6563 15.5458L54.4092 16.6793C55.2188 17.0032 55.8666 17.327 56.3524 17.8128C56.8382 18.2986 57.162 18.6225 57.4859 19.2703C57.8098 19.7561 57.9717 20.4038 57.9717 21.2135C58.1336 21.8612 58.1337 22.6709 58.1337 23.6425C58.1337 24.776 57.9717 25.7476 57.8098 26.5573C57.6478 27.5289 57.324 28.1766 56.8382 28.8244C56.3524 29.4721 55.7046 29.9579 54.895 30.4437C54.0853 30.7676 53.1137 30.9295 51.9802 30.9295C51.1705 30.9295 50.3608 30.7676 49.5511 30.4437C48.7415 30.1198 48.0937 29.796 47.6079 29.1482C47.1221 28.6624 46.6363 28.0147 46.3125 27.205C45.9886 26.5573 45.8267 25.7476 45.8267 24.9379V23.6425H49.3892V24.776C49.3892 25.4237 49.5511 26.0715 50.0369 26.5573C50.3608 27.0431 51.0085 27.367 51.9802 27.367C52.6279 27.367 53.1137 27.205 53.4376 27.0431C53.7614 26.8812 54.0853 26.5573 54.2472 26.2334C54.4092 25.9096 54.5711 25.5857 54.5711 25.0999C54.5711 24.6141 54.5711 24.1283 54.5711 23.6425C54.5711 22.9947 54.5711 22.5089 54.5711 22.0231C54.5711 21.5373 54.4092 21.2135 54.2472 21.0515C54.0853 20.7277 53.9234 20.5657 53.5995 20.4038C53.2756 20.2419 52.9518 20.0799 52.466 19.918L49.875 18.7845C48.2557 18.1367 47.2841 17.327 46.7983 16.1935C46.3125 15.2219 45.9886 13.7645 45.9886 12.3071C45.9886 11.3355 46.1505 10.5258 46.3125 9.55421C46.4744 8.58261 46.9602 7.93487 47.446 7.44907C47.9318 6.80133 48.5795 6.31553 49.3892 5.99166C50.1989 5.66779 51.0086 5.50586 52.1421 5.50586C53.1137 5.50586 53.9234 5.66779 54.5711 5.99166C55.3808 6.31553 56.0285 6.80133 56.5143 7.28713C57.6478 8.42067 58.1337 9.71615 58.1337 11.1736V12.7929Z" fill="#706FAC"/>
<path d="M63.1536 30.7677V9.06858H58.9434V5.66797H70.9265V9.06858H66.7162V30.7677H63.1536Z" fill="#706FAC"/>
<path d="M68.9829 30.7677L74.4887 5.66797H77.4035L83.0712 30.7677H79.5086L78.3751 25.4239H73.5171L72.5455 30.7677H68.9829ZM77.8893 21.8614L76.108 12.7931L74.3267 21.8614H77.8893Z" fill="#706FAC"/>
<path d="M84.8525 30.7677V5.66797H90.1964C91.168 5.66797 91.9776 5.8299 92.7873 5.99184C93.597 6.3157 94.2447 6.63957 94.8924 7.28731C95.5402 8.09698 96.026 8.74472 96.1879 9.71632C96.3499 10.526 96.5118 11.8215 96.5118 13.2789C96.5118 14.4124 96.5118 15.384 96.3499 16.1937C96.1879 17.0034 96.026 17.6511 95.5402 18.2988C95.0544 19.1085 94.4066 19.7562 93.597 20.242C92.7873 20.7278 91.6538 20.8898 90.3583 20.8898H88.577V30.6058H84.8525V30.7677ZM88.4151 9.06858V17.6511H90.1964C90.8441 17.6511 91.4918 17.4892 91.8157 17.3272C92.1396 17.1653 92.4634 16.8414 92.6254 16.5175C92.7873 16.1937 92.9492 15.7079 92.9492 15.2221C92.9492 14.7363 92.9492 14.0885 92.9492 13.4408C92.9492 12.7931 92.9492 12.3073 92.9492 11.8215C92.9492 11.3357 92.7873 10.8499 92.6254 10.3641C92.4634 9.87825 92.3015 9.55439 91.9776 9.39245C91.6538 9.23052 91.006 9.06858 90.3583 9.06858H88.4151Z" fill="#706FAC"/>
<path d="M96.3506 30.7677L102.018 5.66797H104.933L110.439 30.7677H106.876L105.743 25.4239H100.885L99.9131 30.7677H96.3506ZM105.257 21.8614L103.476 12.7931L101.694 21.8614H105.257Z" fill="#706FAC"/>
<path d="M113.677 30.7674V20.2417L108.819 5.82959H112.544L115.459 15.8695L118.373 5.82959H122.098L117.24 20.2417V30.7674H113.677Z" fill="#706FAC"/>
<path d="M1.78051 0.647949H14.2494C14.5733 0.647949 14.7352 0.971817 14.7352 1.29569L9.71528 12.4691C9.55334 12.793 9.87721 13.1169 10.2011 13.1169H14.4114C14.7352 13.1169 14.8972 13.4407 14.8972 13.7646L6.9624 30.9296C6.80047 31.4154 6.15273 31.2535 6.15273 30.7677V18.6226C6.15273 18.2988 5.9908 18.1368 5.66693 18.1368H1.13277C0.808907 18.1368 0.646973 17.9749 0.646973 17.651L1.29471 0.971817C1.29471 0.809883 1.45664 0.647949 1.78051 0.647949Z" fill="#F3C151"/>
<path d="M6.47736 31.7391H6.31543C5.82963 31.5771 5.50576 31.2533 5.50576 30.7675V18.7843H1.13354C0.80967 18.7843 0.485802 18.6224 0.323868 18.4605C0.161934 18.2985 0 17.9747 0 17.6508L0.647736 0.971604C0.647736 0.485802 1.13354 0 1.78127 0H14.2502C14.5741 0 14.8979 0.161934 15.2218 0.485802C15.3837 0.80967 15.3837 1.13354 15.2218 1.45741L10.3638 12.4689H14.2502C14.5741 12.4689 14.8979 12.7928 15.2218 12.9547C15.5457 13.1167 15.3837 13.6025 15.2218 13.9263L7.44897 31.0913C7.28703 31.5771 6.96316 31.7391 6.47736 31.7391ZM1.29547 17.4889H5.66769C6.31543 17.4889 6.80123 17.9747 6.80123 18.6224V30.1197L14.2502 13.9263H10.2018C9.71604 13.7644 9.39217 13.6025 9.23024 13.2786C9.06831 12.9547 9.06831 12.6309 9.23024 12.307L14.0883 1.29547H1.94321L1.29547 17.4889Z" fill="black"/>
</g>
<defs>
<clipPath id="clip0">
<rect width="122.26" height="31.7391" fill="white"/>
</clipPath>
</defs>
</svg>
