<svg width="123" height="32" viewBox="0 0 123 32" fill="none" xmlns="http://www.w3.org/2000/svg">
<g clip-path="url(#clip0)">
<path d="M23.8037 30.7677V5.66797H27.3663V30.7677H23.8037Z" fill="white"/>
<path d="M30.7666 30.7677V5.66797H34.1672L39.673 20.7278V5.66797H43.2355V30.7677H39.8349L34.3292 15.7079V30.7677H30.7666Z" fill="white"/>
<path d="M58.1341 12.7929H54.5716V11.9832C54.5716 11.1736 54.4097 10.5258 53.9239 9.87808C53.6 9.23034 52.9522 8.90647 51.9806 8.90647C51.4948 8.90647 51.009 9.06841 50.8471 9.23034C50.5232 9.55421 50.1994 9.71614 50.0374 10.04C49.8755 10.3639 49.7136 10.6877 49.7136 11.0116C49.7136 11.3355 49.5516 11.8213 49.5516 12.3071C49.5516 12.7929 49.5516 13.2787 49.5516 13.6026C49.5516 13.9264 49.7136 14.2503 49.8755 14.4122C50.0374 14.5742 50.1994 14.898 50.5232 15.06C50.8471 15.2219 51.171 15.3838 51.6568 15.5458L54.4097 16.6793C55.2193 17.0032 55.8671 17.327 56.3529 17.8128C56.8387 18.2986 57.1625 18.6225 57.4864 19.2703C57.8103 19.7561 57.9722 20.4038 57.9722 21.2135C58.1341 21.8612 58.1341 22.6709 58.1341 23.6425C58.1341 24.776 57.9722 25.7476 57.8103 26.5573C57.6483 27.5289 57.3245 28.1766 56.8387 28.8244C56.3529 29.4721 55.7051 29.9579 54.8955 30.4437C54.0858 30.7676 53.1142 30.9295 51.9806 30.9295C51.171 30.9295 50.3613 30.7676 49.5516 30.4437C48.742 30.1198 48.0942 29.796 47.6084 29.1482C47.1226 28.6624 46.6368 28.0147 46.313 27.205C45.9891 26.5573 45.8271 25.7476 45.8271 24.9379V23.6425H49.3897V24.776C49.3897 25.4237 49.5516 26.0715 50.0374 26.5573C50.3613 27.0431 51.009 27.367 51.9806 27.367C52.6284 27.367 53.1142 27.205 53.438 27.0431C53.7619 26.8812 54.0858 26.5573 54.2477 26.2334C54.4097 25.9096 54.5716 25.5857 54.5716 25.0999C54.5716 24.6141 54.5716 24.1283 54.5716 23.6425C54.5716 22.9947 54.5716 22.5089 54.5716 22.0231C54.5716 21.5373 54.4097 21.2135 54.2477 21.0515C54.0858 20.7277 53.9238 20.5657 53.6 20.4038C53.2761 20.2419 52.9523 20.0799 52.4664 19.918L49.8755 18.7845C48.2562 18.1367 47.2846 17.327 46.7988 16.1935C46.313 15.2219 45.9891 13.7645 45.9891 12.3071C45.9891 11.3355 46.151 10.5258 46.313 9.55421C46.4749 8.58261 46.9607 7.93487 47.4465 7.44907C47.9323 6.80133 48.58 6.31553 49.3897 5.99166C50.1994 5.66779 51.009 5.50586 52.1426 5.50586C53.1142 5.50586 53.9239 5.66779 54.5716 5.99166C55.3813 6.31553 56.029 6.80133 56.5148 7.28713C57.6483 8.42067 58.1341 9.71615 58.1341 11.1736V12.7929Z" fill="white"/>
<path d="M63.1536 30.7677V9.06858H58.9434V5.66797H70.9265V9.06858H66.7162V30.7677H63.1536Z" fill="white"/>
<path d="M68.9834 30.7677L74.4892 5.66797H77.404L83.0717 30.7677H79.5091L78.3756 25.4239H73.5176L72.5459 30.7677H68.9834ZM77.8898 21.8614L76.1085 12.7931L74.3272 21.8614H77.8898Z" fill="white"/>
<path d="M84.8525 30.7677V5.66797H90.1964C91.168 5.66797 91.9776 5.8299 92.7873 5.99184C93.597 6.3157 94.2447 6.63957 94.8924 7.28731C95.5402 8.09698 96.026 8.74472 96.1879 9.71632C96.3499 10.526 96.5118 11.8215 96.5118 13.2789C96.5118 14.4124 96.5118 15.384 96.3499 16.1937C96.1879 17.0034 96.026 17.6511 95.5402 18.2988C95.0544 19.1085 94.4066 19.7562 93.597 20.242C92.7873 20.7278 91.6538 20.8898 90.3583 20.8898H88.577V30.6058H84.8525V30.7677ZM88.4151 9.06858V17.6511H90.1964C90.8441 17.6511 91.4918 17.4892 91.8157 17.3272C92.1396 17.1653 92.4634 16.8414 92.6254 16.5175C92.7873 16.1937 92.9492 15.7079 92.9492 15.2221C92.9492 14.7363 92.9492 14.0885 92.9492 13.4408C92.9492 12.7931 92.9492 12.3073 92.9492 11.8215C92.9492 11.3357 92.7873 10.8499 92.6254 10.3641C92.4634 9.87825 92.3015 9.55439 91.9776 9.39245C91.6538 9.23052 91.006 9.06858 90.3583 9.06858H88.4151Z" fill="white"/>
<path d="M96.3506 30.7677L102.018 5.66797H104.933L110.439 30.7677H106.876L105.743 25.4239H100.885L99.9131 30.7677H96.3506ZM105.257 21.8614L103.476 12.7931L101.694 21.8614H105.257Z" fill="white"/>
<path d="M113.677 30.7674V20.2417L108.819 5.82959H112.544L115.459 15.8695L118.373 5.82959H122.098L117.24 20.2417V30.7674H113.677Z" fill="white"/>
<path d="M1.781 0.647949H14.2499C14.5738 0.647949 14.7357 0.971817 14.7357 1.29569L9.71577 12.4691C9.55383 12.793 9.8777 13.1169 10.2016 13.1169H14.4119C14.7357 13.1169 14.8977 13.4407 14.8977 13.7646L6.96289 30.9296C6.80095 31.4154 6.15322 31.2535 6.15322 30.7677V18.6226C6.15322 18.2988 5.99128 18.1368 5.66742 18.1368H1.13326C0.809395 18.1368 0.647461 17.9749 0.647461 17.651L1.2952 0.971817C1.2952 0.809883 1.45713 0.647949 1.781 0.647949Z" fill="white"/>
<path d="M6.47736 31.7391H6.31543C5.82963 31.5771 5.50576 31.2533 5.50576 30.7675V18.7843H1.13354C0.80967 18.7843 0.485802 18.6224 0.323868 18.4605C0.161934 18.2985 0 17.9747 0 17.6508L0.647736 0.971604C0.647736 0.485802 1.13354 0 1.78127 0H14.2502C14.5741 0 14.8979 0.161934 15.2218 0.485802C15.3837 0.80967 15.3837 1.13354 15.2218 1.45741L10.3638 12.4689H14.2502C14.5741 12.4689 14.8979 12.7928 15.2218 12.9547C15.5457 13.1167 15.3837 13.6025 15.2218 13.9263L7.44897 31.0913C7.28703 31.5771 6.96316 31.7391 6.47736 31.7391ZM1.29547 17.4889H5.66769C6.31543 17.4889 6.80123 17.9747 6.80123 18.6224V30.1197L14.2502 13.9263H10.2018C9.71604 13.7644 9.39217 13.6025 9.23024 13.2786C9.06831 12.9547 9.06831 12.6309 9.23024 12.307L14.0883 1.29547H1.94321L1.29547 17.4889Z" fill="white"/>
</g>
<defs>
<clipPath id="clip0">
<rect width="122.26" height="31.7391" fill="white"/>
</clipPath>
</defs>
</svg>
