<svg width="105" height="25" viewBox="0 0 105 25" fill="none" xmlns="http://www.w3.org/2000/svg">
<path d="M62.9893 5.657C62.8779 5.79417 62.7664 5.93992 62.6635 6.08567C61.0688 8.31478 59.4742 10.5439 57.8709 12.773C57.8195 12.8416 57.7766 12.9102 57.7252 12.9788C57.2708 13.5875 56.8421 13.5875 56.4049 12.9702C55.5304 11.7185 54.6559 10.4582 53.7899 9.20642C53.0355 8.11759 52.2724 7.02876 51.5094 5.93992C51.4322 5.82847 51.3379 5.72558 51.1493 5.657C51.1493 5.81989 51.1493 5.98279 51.1493 6.14569C51.1493 9.77228 51.1493 13.3989 51.1493 17.034C51.1493 18.1143 50.5234 18.7402 49.4603 18.7487C49.0317 18.7487 48.603 18.7402 48.1743 18.7487C47.9342 18.7573 47.8314 18.6544 47.8485 18.4229C47.8571 18.3201 47.8485 18.2257 47.8485 18.1229C47.8485 12.4901 47.8485 6.86586 47.8485 1.23307C47.8485 0.632924 47.8485 0.632924 48.4572 0.632924C49.3317 0.632924 50.1977 0.650071 51.0721 0.624351C51.518 0.615777 51.818 0.7701 52.0667 1.13876C53.6356 3.41931 55.2217 5.69129 56.7992 7.97184C56.8936 8.10902 56.9964 8.24619 57.1336 8.42624C57.2622 8.26334 57.3565 8.15188 57.4423 8.03186C59.0455 5.72558 60.6573 3.41931 62.252 1.09589C62.4749 0.7701 62.7321 0.615777 63.1351 0.624351C64.0953 0.641498 65.0469 0.641498 66.0072 0.624351C66.3158 0.615777 66.4359 0.701512 66.4359 1.02731C66.4273 6.79727 66.4273 12.5672 66.4359 18.3458C66.4359 18.6716 66.3244 18.7659 66.0158 18.7487C65.5871 18.723 65.1584 18.7487 64.7297 18.7402C63.7952 18.7316 63.1436 18.0886 63.1436 17.1455C63.1351 13.5189 63.1436 9.8923 63.1436 6.25714C63.1436 6.0771 63.1436 5.89705 63.1436 5.70844C63.0836 5.69129 63.0322 5.67414 62.9893 5.657Z" fill="#EC6E24"/>
<path d="M0.540527 9.64501C0.540527 7.1587 0.540527 4.67238 0.540527 2.18607C0.540527 1.21726 1.14067 0.608542 2.10948 0.608542C4.3986 0.608542 6.67915 0.565674 8.96828 0.617115C12.1062 0.685703 14.5925 3.20631 14.8411 6.18989C15.1498 9.90222 12.672 12.3971 10.0314 12.8344C8.76251 13.0487 7.44219 12.963 6.1476 12.9972C6.06186 12.9972 5.89039 12.8258 5.89039 12.7229C5.86467 12.2514 5.84752 11.7798 5.89039 11.3083C5.95041 10.5538 6.67058 9.98795 7.52793 9.96223C8.08521 9.94508 8.65106 9.9708 9.19119 9.86792C10.7087 9.56785 11.6261 8.24753 11.5489 6.55855C11.4889 5.19536 10.3143 3.91791 8.88254 3.8236C7.28787 3.7293 5.71035 3.76359 4.1414 3.7293C3.8499 3.72072 3.82418 3.89219 3.82418 4.1151C3.83275 5.21251 3.82418 6.31849 3.82418 7.4159C3.82418 10.991 3.8156 14.5576 3.83275 18.1328C3.83275 18.5357 3.74702 18.7072 3.31834 18.6729C2.88109 18.6386 2.43527 18.6729 1.98945 18.6643C1.14925 18.6472 0.540527 18.0385 0.540527 17.1897C0.540527 14.6777 0.540527 12.1656 0.540527 9.64501Z" fill="#EC6E24"/>
<path d="M81.7496 16.7681C81.1151 17.454 80.3692 17.9256 79.5119 18.2428C77.5057 18.9972 75.4738 19.0744 73.4418 18.4143C71.5471 17.797 70.2782 16.5024 69.6695 14.6162C69.0008 12.5671 69.0265 10.5095 69.9867 8.53758C70.9813 6.49709 72.696 5.45112 74.9079 5.14247C76.0568 4.98815 77.1885 5.04817 78.303 5.34824C80.7293 6.01697 82.0496 7.69738 82.4526 10.1151C82.5898 10.9467 82.5383 11.8127 82.5812 12.6614C82.5983 13.0215 82.4097 13.073 82.1097 13.073C79.1689 13.0644 76.2282 13.0644 73.279 13.0644C73.1503 13.0644 73.0217 13.073 72.8931 13.0644C72.6102 13.0472 72.5245 13.1415 72.5845 13.4502C72.8331 14.6248 73.8277 15.6107 75.0965 15.8508C76.3483 16.0908 77.5657 15.988 78.7317 15.4307C79.5719 15.0277 80.1635 15.1392 80.8236 15.7908C81.1237 16.108 81.4238 16.4338 81.7496 16.7681ZM72.5845 10.4323C74.8993 10.4323 77.1713 10.4323 79.4433 10.4323C79.3833 9.42922 78.9289 8.68333 78.0715 8.28037C76.8112 7.6888 75.5338 7.68023 74.2735 8.2718C73.3733 8.70048 72.8503 9.45494 72.5845 10.4323Z" fill="#EC6E24"/>
<path d="M26.9049 7.48319C26.9907 7.25171 27.0593 6.93449 27.2222 6.67728C27.5908 6.07714 28.1824 5.92282 28.8511 5.93139C29.7342 5.93996 29.7342 5.93139 29.7342 6.80589C29.7342 10.5782 29.7256 14.3506 29.7428 18.1229C29.7428 18.5602 29.6227 18.7316 29.1941 18.6716C29.0569 18.6545 28.9111 18.6716 28.7654 18.6716C27.608 18.6716 27.145 18.2772 26.9564 17.1284C26.9478 17.0941 26.9221 17.0598 26.8878 16.9912C26.6649 17.2484 26.4763 17.5228 26.2362 17.7285C25.0445 18.7745 23.6384 19.186 22.0781 19.0488C20.9121 18.946 19.8061 18.6459 18.8201 17.9772C17.4484 17.0426 16.6682 15.7138 16.3853 14.0934C16.0852 12.3529 16.1109 10.6211 16.9168 8.99213C17.8685 7.05452 19.4889 6.07714 21.5637 5.75992C22.8754 5.55416 24.17 5.59702 25.3446 6.2829C25.9018 6.61727 26.3905 7.08024 26.9049 7.48319ZM26.7592 12.3358C26.7592 9.64371 24.5387 7.89472 21.9237 8.52059C20.3119 8.90639 19.2831 10.3639 19.1459 11.8728C18.8716 14.8478 21.1864 16.6997 23.8614 16.1681C25.6275 15.8166 26.7592 14.2734 26.7592 12.3358Z" fill="#EC6E24"/>
<path d="M34.3888 24.0471C34.9203 22.8039 35.4176 21.6551 35.9148 20.4976C36.1378 19.9747 36.3435 19.4431 36.5921 18.9287C36.7293 18.6458 36.7207 18.4057 36.6093 18.1228C35.0232 14.239 33.4457 10.3552 31.8681 6.4714C31.8081 6.31707 31.7567 6.16275 31.6538 5.89697C32.6998 5.93984 33.6686 5.93127 34.6202 6.0513C35.2204 6.12846 35.5205 6.65144 35.7176 7.20872C36.5836 9.63502 37.4581 12.0699 38.324 14.4962C38.384 14.6677 38.4612 14.822 38.5726 15.0963C38.6755 14.8649 38.7441 14.7277 38.8041 14.5905C39.7558 12.1128 40.7074 9.64359 41.6677 7.16585C42.002 6.29135 42.5079 5.94841 43.4595 5.93984C44.1368 5.93984 44.8227 5.93984 45.5772 5.93984C45.2085 6.7629 44.8827 7.53451 44.5484 8.30613C42.465 13.1502 40.3645 17.9942 38.2983 22.8554C37.9382 23.7127 37.3466 24.0899 36.4378 24.0556C35.7862 24.0214 35.1346 24.0471 34.3888 24.0471Z" fill="#EC6E24"/>
<path d="M94.283 18.7573C94.1801 18.7316 94.0858 18.7145 93.9829 18.6887C92.9713 18.4315 92.2682 17.5485 92.2682 16.4939C92.2682 15.3279 92.2682 14.1534 92.2682 12.9874C92.2682 12.9016 92.2597 12.8073 92.2425 12.7216C92.1739 12.4901 91.9682 12.3529 91.7024 12.3529C90.5278 12.3529 89.3447 12.3444 88.1701 12.3529C87.1327 12.3615 86.1553 11.6499 85.9324 10.5525C85.8981 10.3724 85.8896 10.1838 85.8896 10.0038C85.881 9.05213 85.8896 8.0919 85.8896 7.14024C85.8896 6.96877 85.8896 6.96877 86.0525 6.96877C88.0672 6.96877 90.0906 6.96877 92.1053 6.96877C92.2768 6.96877 92.2768 6.96877 92.2768 6.7973C92.2768 4.7911 92.2768 2.79348 92.2768 0.787278C92.2768 0.590088 92.2768 0.590088 92.474 0.590088C93.46 0.590088 94.4373 0.590088 95.4233 0.590088C96.6407 0.590088 97.6438 1.59319 97.6438 2.81062C97.6438 3.97662 97.6438 5.15119 97.6438 6.31718C97.6438 6.41149 97.6524 6.51437 97.6781 6.60868C97.7467 6.84874 97.9439 6.97734 98.2354 6.97734C99.3757 6.97734 100.507 6.97734 101.648 6.97734C101.742 6.97734 101.836 6.97734 101.931 6.98592C102.899 7.02879 103.765 7.75753 103.971 8.70062C104.014 8.88923 104.031 9.08642 104.031 9.27504C104.04 10.2353 104.031 11.2041 104.031 12.1643C104.031 12.3529 104.031 12.3529 103.851 12.3529C101.853 12.3529 99.8472 12.3529 97.8496 12.3529C97.6438 12.3529 97.6438 12.3529 97.6438 12.5587C97.6438 14.5563 97.6438 16.5539 97.6438 18.5601C97.6438 18.6287 97.6438 18.6887 97.6438 18.7573C96.5207 18.7573 95.3976 18.7573 94.283 18.7573Z" fill="#EC6E24" fill-opacity="0.63"/>
<path d="M95.5515 12.3872C95.0199 12.3872 94.4969 12.4043 93.9654 12.3872C93.0137 12.3529 92.285 11.6499 92.2592 10.6982C92.2335 9.58364 92.2421 6.97729 92.2421 6.97729L92.6193 6.98587C92.6193 6.98587 94.8141 6.96872 95.9116 6.99444C96.8632 7.02016 97.6177 7.7832 97.6348 8.72629C97.652 9.80655 97.6434 11.9756 97.6434 11.9756V12.3957C97.6605 12.3872 96.1087 12.3872 95.5515 12.3872Z" fill="#EC6E24"/>
</svg>
