<svg width="119" height="24" viewBox="0 0 119 24" fill="none" xmlns="http://www.w3.org/2000/svg">
<path d="M30.8922 17.5246C30.2959 17.5318 29.7043 17.4193 29.1523 17.1937C28.6002 16.9681 28.099 16.634 27.6781 16.2113C27.2573 15.7885 26.9254 15.2855 26.7021 14.7322C26.4788 14.1788 26.3686 13.5863 26.378 12.9896C26.378 10.4899 28.2961 8.40527 30.9092 8.40527C32.5622 8.40527 33.5885 9.0174 34.399 9.9119L33.1587 11.2518C32.5452 10.6055 31.9014 10.1583 30.8865 10.1583C29.4322 10.1583 28.3738 11.4166 28.3738 12.9555C28.3738 14.5284 29.4474 15.7868 30.9849 15.7868C31.9317 15.7868 32.6228 15.3396 33.2572 14.6933L34.4633 15.8854C33.598 16.8443 32.5963 17.5246 30.8922 17.5246Z" fill="#002D74"/>
<path d="M38.2558 17.5247H36.2544V8.42802H38.2558V10.5619C38.8012 9.2543 39.8104 8.36169 41.348 8.42802V10.5449H41.2325C39.4791 10.5449 38.2558 11.682 38.2558 14.0054V17.5247Z" fill="#002D74"/>
<path d="M51.821 8.40332L47.3996 19.9731H45.3716L46.3373 17.5246L42.5503 8.40332H44.6824L47.2671 15.1405L49.7476 8.40332H51.821Z" fill="#002D74"/>
<path d="M58.1869 17.5056C56.7478 17.5056 55.8371 16.7779 55.2254 15.9668V19.9712H53.2354V8.41089H55.2349V10.0483C55.8806 9.13862 56.7895 8.41089 58.1964 8.41089C60.2622 8.41089 62.2637 10.0483 62.2637 12.9592C62.2637 15.8701 60.2698 17.5056 58.1869 17.5056ZM57.723 10.1336C56.3672 10.1336 55.1762 11.2422 55.1762 12.9459C55.1762 14.6497 56.3672 15.7602 57.723 15.7602C59.0788 15.7602 60.2206 14.6838 60.2206 12.9459C60.2206 11.2081 59.0788 10.1336 57.723 10.1336Z" fill="#002D74"/>
<path d="M66.6394 10.306V14.5909C66.6394 15.3698 67.0332 15.6825 67.7149 15.6825H68.4988V17.4715H67.1298C65.6737 17.4715 64.6398 16.8196 64.6398 14.9055V10.306H63.5283V8.58716H64.6398V6.18604H66.6394V8.58716H68.4988V10.306H66.6394Z" fill="#002D74"/>
<path d="M74.8216 17.5246C72.1593 17.5246 70.1919 15.4893 70.1919 12.9896C70.1919 10.4899 72.1763 8.40527 74.8556 8.40527C77.535 8.40527 79.5023 10.4406 79.5023 12.9536C79.5023 15.4665 77.5236 17.5246 74.8216 17.5246ZM74.8216 10.1583C73.2177 10.1583 72.1933 11.4166 72.1933 12.9555C72.1933 14.4943 73.3011 15.7868 74.8556 15.7868C76.4746 15.7868 77.5066 14.5284 77.5066 12.9896C77.5066 11.4507 76.3989 10.1564 74.8216 10.1564V10.1583Z" fill="#002D74"/>
<path d="M98.6365 17.5246C95.9742 17.5246 94.0068 15.4893 94.0068 12.9896C94.0068 10.4899 95.9894 8.40527 98.6687 8.40527C101.348 8.40527 103.315 10.4406 103.315 12.9536C103.315 15.4665 101.331 17.5246 98.6365 17.5246ZM98.6365 10.1583C97.0327 10.1583 96.0064 11.4166 96.0064 12.9555C96.0064 14.4943 97.1141 15.7868 98.6687 15.7868C100.29 15.7868 101.32 14.5284 101.32 12.9896C101.32 11.4507 100.206 10.1564 98.6365 10.1564V10.1583Z" fill="#002D74"/>
<path d="M115.209 8.40332C117.102 8.40332 118.269 9.61052 118.269 11.7463V17.5246H116.267V12.3585C116.267 10.9674 115.623 10.2226 114.499 10.2226C113.406 10.2226 112.63 10.9807 112.63 12.3907V17.5246H110.628V12.3414C110.628 10.9845 109.967 10.2226 108.86 10.2226C107.752 10.2226 106.991 11.0508 106.991 12.4077V17.5246H104.989V8.40332H106.991V9.90995C107.559 9.13105 108.316 8.40332 109.653 8.40332C110.91 8.40332 111.787 9.01545 112.249 9.94217C112.961 9.01545 113.887 8.40332 115.209 8.40332Z" fill="#002D74"/>
<path d="M83.1687 15.6845V16.6946C83.1692 16.7149 83.1642 16.735 83.1542 16.7527C83.1442 16.7704 83.1295 16.7851 83.1118 16.795L82.2389 17.2991C82.2214 17.3103 82.201 17.3162 82.1802 17.3162C82.1595 17.3162 82.1391 17.3103 82.1215 17.2991L81.2486 16.795C81.2307 16.7851 81.2158 16.7706 81.2055 16.7529C81.1952 16.7352 81.1898 16.7151 81.1899 16.6946V15.6845C81.1904 15.6641 81.196 15.6442 81.2062 15.6266C81.2165 15.6091 81.2311 15.5944 81.2486 15.5841L82.1215 15.08C82.1394 15.0696 82.1596 15.0642 82.1802 15.0642C82.2009 15.0642 82.2211 15.0696 82.2389 15.08L83.1118 15.5841C83.1292 15.5945 83.1435 15.6092 83.1534 15.6268C83.1634 15.6444 83.1686 15.6643 83.1687 15.6845Z" fill="#002D74"/>
<path d="M89.2618 17.511C88.6655 17.5068 88.0762 17.383 87.5285 17.1469C86.9809 16.9109 86.486 16.5673 86.0733 16.1366C85.6606 15.7058 85.3384 15.1967 85.1256 14.6391C84.9129 14.0816 84.814 13.4871 84.8347 12.8907C84.8821 10.3929 86.84 8.34235 89.453 8.39352C91.1061 8.42573 92.1191 9.05871 92.9125 9.96647L91.6476 11.2836C91.0474 10.626 90.4112 10.1674 89.4019 10.1465C87.9477 10.1181 86.8646 11.3556 86.8362 12.8944C86.8059 14.4655 87.8568 15.7371 89.3944 15.7731C90.3411 15.7921 91.0398 15.3581 91.6798 14.7251L92.8633 15.9399C91.9866 16.8856 90.9641 17.5432 89.2618 17.511Z" fill="#002D74"/>
<path d="M10.0632 0.927002L0.249023 6.60102V17.9491L10.0632 23.6231L19.8811 17.9491V6.60102L10.0632 0.927002ZM10.0632 0.927002L0.249023 6.60102V17.9491L10.0632 23.6231L19.8811 17.9491V6.60102L10.0632 0.927002Z" fill="white"/>
<path d="M10.0632 0.927002L0.249023 6.60102V17.9491L10.0632 23.6231L19.8811 17.9491V6.60102L10.0632 0.927002ZM6.1909 5.8316H13.9184L14.85 9.77536H5.29527L6.1909 5.8316ZM9.30575 17.6439L7.63756 19.1998H6.21741L2.67842 13.0539L5.26876 11.1266L7.55803 12.5821V15.203L9.30575 16.8632V17.6439ZM8.16964 15.0419L8.42716 12.5783L7.58454 10.3761H12.5797L11.7541 12.5783L11.9946 15.0419H10.0632H8.16964ZM13.9449 19.1809H12.5437L10.8755 17.6439V16.8632L12.6062 15.203V12.5821L14.8689 11.1076L17.4479 13.0539L13.9449 19.1809Z" fill="#002D74"/>
<g style="mix-blend-mode:multiply">
<path style="mix-blend-mode:multiply" d="M10.0635 0.927002V5.8316H13.9187L14.8503 9.77536H10.0635V10.3704H12.58L11.7544 12.5726L11.9949 15.0362L10.0635 15.0419V23.6231L19.8814 17.9491V6.60102L10.0635 0.927002ZM13.9301 19.1809H12.544L10.8758 17.6439V16.8632L12.6065 15.203V12.5821L14.8692 11.1076L17.4482 13.0539L13.9301 19.1809Z" fill="url(#paint0_linear)"/>
</g>
<path style="mix-blend-mode:multiply" d="M8.16964 15.0419L8.42716 12.5783L7.58454 10.3761H10.0632V9.78105H5.29527L6.1909 5.8316H10.0632V0.927002L0.249023 6.60102V17.9491L10.0632 23.6231V15.0419H8.16964ZM9.30575 17.6439L7.63756 19.1998H6.21741L2.67842 13.0539L5.26876 11.1266L7.55803 12.5821V15.203L9.30575 16.8632V17.6439Z" fill="url(#paint1_linear)"/>
<defs>
<linearGradient id="paint0_linear" x1="14.9791" y1="21.1746" x2="14.9791" y2="3.31866" gradientUnits="userSpaceOnUse">
<stop stop-color="#002D74"/>
<stop offset="1" stop-color="#002D74" stop-opacity="0"/>
</linearGradient>
<linearGradient id="paint1_linear" x1="5.15893" y1="21.1746" x2="5.15893" y2="3.31866" gradientUnits="userSpaceOnUse">
<stop stop-color="#002D74" stop-opacity="0"/>
<stop offset="1" stop-color="#002D74"/>
</linearGradient>
</defs>
</svg>
