<svg width="159" height="20" viewBox="0 0 159 20" fill="none" xmlns="http://www.w3.org/2000/svg">
<g clip-path="url(#clip0)">
<path d="M3.01057 18.929C2.65934 18.929 2.29556 18.8412 1.91924 18.6656C1.56801 18.49 1.24186 18.2642 0.940806 17.9882C0.664835 17.6871 0.439043 17.361 0.263426 17.0098C0.0878085 16.6334 0 16.2571 0 15.8808V3.04821C0 2.6719 0.0878085 2.3081 0.263426 1.95687C0.439043 1.58055 0.664835 1.25441 0.940806 0.978437C1.24186 0.67738 1.56801 0.439043 1.91924 0.263426C2.29556 0.0878087 2.65934 0 3.01057 0H20.4343C20.7855 0 21.1367 0.0878087 21.488 0.263426C21.8644 0.439043 22.1904 0.67738 22.4664 0.978437C22.7674 1.25441 23.0058 1.58055 23.1814 1.95687C23.357 2.3081 23.4448 2.6719 23.4448 3.04821V15.8808C23.4448 16.2571 23.357 16.6334 23.1814 17.0098C23.0058 17.361 22.7674 17.6871 22.4664 17.9882C22.1904 18.2642 21.8644 18.49 21.488 18.6656C21.1367 18.8412 20.7855 18.929 20.4343 18.929H3.01057ZM11.252 13.8487H18.0258V5.87062L11.252 13.8487ZM12.1928 5.08035H5.41904V13.0584L12.1928 5.08035Z" fill="white"/>
<path d="M44.9059 11.7789V13.8487H32.2989V5.08035H50.3249V0H29.8906C29.5392 0 29.1756 0.0878087 28.7992 0.263426C28.448 0.439043 28.1217 0.67738 27.8207 0.978437C27.5447 1.25441 27.3189 1.58055 27.1433 1.95687C26.9677 2.3081 26.8799 2.6719 26.8799 3.04821V15.8808C26.8799 16.2571 26.9677 16.6334 27.1433 17.0098C27.3189 17.361 27.5447 17.6871 27.8207 17.9882C28.1217 18.2642 28.448 18.49 28.7992 18.6656C29.1756 18.8412 29.5392 18.929 29.8906 18.929H47.3142C47.6654 18.929 48.0168 18.8412 48.368 18.6656C48.7442 18.49 49.0704 18.2642 49.3465 17.9882C49.6475 17.6871 49.8857 17.361 50.0613 17.0098C50.2371 16.6334 50.3249 16.2571 50.3249 15.8808V10.1983C50.3249 9.82201 50.2371 9.45824 50.0613 9.107C49.8857 8.73067 49.6475 8.40453 49.3465 8.12856C49.0704 7.82751 48.7442 7.58916 48.368 7.41355C48.0168 7.23794 47.6654 7.15012 47.3142 7.15012H35.7989V11.7789H44.9059Z" fill="white"/>
<path d="M69.4098 6.32222V11.252H63.2758L66.9637 6.7738C67.1895 6.52293 67.4405 6.27204 67.7164 6.02115C68.0176 5.77028 68.306 5.64483 68.582 5.64483C68.8328 5.64483 69.0336 5.72009 69.184 5.87062C69.3346 6.02117 69.4098 6.17169 69.4098 6.32222ZM74.8289 4.29007C74.8289 3.46217 74.7035 2.77224 74.4526 2.2203C74.2016 1.66836 73.8504 1.22932 73.3988 0.903174C72.9474 0.577028 72.408 0.351234 71.7807 0.225794C71.1535 0.0752645 70.4511 0 69.6732 0C68.6698 0 67.6537 0.100352 66.6251 0.301057C65.6215 0.501762 64.8312 0.852998 64.2542 1.35476L51.083 18.929H57.4429L59.9266 15.8055H69.4098V18.929H74.8289V4.29007Z" fill="white"/>
<path d="M82.6466 18.929V8.35435C83.8508 10.4868 84.9799 12.3434 86.0335 13.9239C87.1124 15.4794 87.9152 16.6209 88.442 17.3484C88.9437 18.0509 89.3703 18.49 89.7215 18.6656C90.0977 18.8412 90.4867 18.929 90.8881 18.929H91.716C91.9668 18.929 92.3056 18.8412 92.732 18.6656C93.1836 18.49 93.6603 18.0509 94.1621 17.3484C94.6889 16.6209 95.4791 15.4794 96.533 13.9239C97.6116 12.3434 98.7533 10.4868 99.9575 8.35435V18.929H105.377V2.37083C105.377 2.09485 105.289 1.81889 105.113 1.54292C104.963 1.24186 104.749 0.978437 104.473 0.752645C104.197 0.526851 103.871 0.351234 103.495 0.225794C103.118 0.0752645 102.717 0 102.291 0H100.823C100.146 0.100353 99.4807 0.351235 98.8285 0.752645C98.2013 1.15406 97.6994 1.66836 97.3232 2.29556L91.302 12.2305L85.2809 2.29556C84.9045 1.66836 84.3903 1.15406 83.738 0.752645C83.1108 0.351235 82.4584 0.100353 81.7811 0H80.3135C79.8869 0 79.4854 0.0752645 79.1092 0.225794C78.7328 0.351234 78.4068 0.526851 78.1308 0.752645C77.8548 0.978437 77.629 1.24186 77.4533 1.54292C77.3029 1.81889 77.2275 2.09485 77.2275 2.37083V18.929H82.6466Z" fill="white"/>
<path d="M125.567 7.15012V5.08035H113.186V13.8487H130.986V18.929H110.777C110.426 18.929 110.062 18.8412 109.686 18.6656C109.335 18.49 109.008 18.2642 108.707 17.9882C108.431 17.6871 108.206 17.361 108.03 17.0098C107.854 16.6334 107.767 16.2571 107.767 15.8808V3.04821C107.767 2.6719 107.854 2.3081 108.03 1.95687C108.206 1.58055 108.431 1.25441 108.707 0.978437C109.008 0.67738 109.335 0.439043 109.686 0.263426C110.062 0.0878087 110.426 0 110.777 0H127.975C128.326 0 128.678 0.0878087 129.029 0.263426C129.405 0.439043 129.731 0.67738 130.007 0.978437C130.308 1.25441 130.547 1.58055 130.722 1.95687C130.898 2.3081 130.986 2.6719 130.986 3.04821V8.73067C130.986 9.107 130.898 9.48332 130.722 9.85964C130.547 10.2109 130.308 10.537 130.007 10.8381C129.731 11.1141 129.405 11.3398 129.029 11.5155C128.678 11.6911 128.326 11.7789 127.975 11.7789H115.256V7.15012H125.567Z" fill="white"/>
<path d="M153.102 11.7789V13.8487H133.383V18.929H155.511C155.862 18.929 156.213 18.8412 156.564 18.6656C156.941 18.49 157.267 18.2642 157.543 17.9882C157.844 17.6871 158.082 17.361 158.258 17.0098C158.433 16.6334 158.521 16.2571 158.521 15.8808V10.1983C158.521 9.82201 158.433 9.45824 158.258 9.107C158.082 8.73067 157.844 8.40453 157.543 8.12856C157.267 7.82751 156.941 7.58916 156.564 7.41355C156.213 7.23794 155.862 7.15012 155.511 7.15012H140.947V5.08035H158.521V0H138.538C138.187 0 137.823 0.0878087 137.447 0.263426C137.096 0.439043 136.77 0.67738 136.469 0.978437C136.193 1.25441 135.967 1.58055 135.791 1.95687C135.616 2.3081 135.528 2.6719 135.528 3.04821V8.73067C135.528 9.107 135.616 9.48332 135.791 9.85964C135.967 10.2109 136.193 10.537 136.469 10.8381C136.77 11.1141 137.096 11.3398 137.447 11.5155C137.823 11.6911 138.187 11.7789 138.538 11.7789H153.102Z" fill="white"/>
</g>
<defs>
<clipPath id="clip0">
<rect width="158.62" height="19.0878" fill="white"/>
</clipPath>
</defs>
</svg>
