<svg width="85" height="24" viewBox="0 0 85 24" fill="none" xmlns="http://www.w3.org/2000/svg">
<path fill-rule="evenodd" clip-rule="evenodd" d="M27.9001 15.2438C27.9001 15.6617 27.9786 16.0526 28.135 16.4172C28.2917 16.7816 28.5041 17.1006 28.7725 17.3736C29.0412 17.6471 29.3559 17.8617 29.7177 18.0172C30.0793 18.1729 30.4653 18.2507 30.8755 18.2507C31.2855 18.2507 31.6713 18.1729 32.0331 18.0172C32.3946 17.8617 32.7099 17.6471 32.9783 17.3736C33.2467 17.1006 33.4574 16.7816 33.6104 16.4172C33.7631 16.0526 33.8397 15.6617 33.8397 15.2438C33.8397 14.8262 33.7631 14.4353 33.6104 14.0707C33.4574 13.7063 33.2467 13.3874 32.9783 13.1141C32.7099 12.8408 32.3946 12.6262 32.0331 12.4707C31.6713 12.315 31.2855 12.2369 30.8755 12.2369C30.4653 12.2369 30.0793 12.315 29.7177 12.4707C29.3559 12.6262 29.0412 12.8408 28.7725 13.1141C28.5041 13.3874 28.2917 13.7063 28.135 14.0707C27.9786 14.4353 27.9001 14.8262 27.9001 15.2438ZM25.4058 6.96232C25.4058 6.7806 25.4374 6.61001 25.501 6.45076C25.5641 6.29152 25.6518 6.15358 25.7638 6.03598C25.8756 5.91862 26.0078 5.82539 26.1608 5.75725C26.3135 5.6891 26.4795 5.65503 26.6585 5.65503C26.8376 5.65503 27.0015 5.6891 27.1507 5.75725C27.2997 5.82539 27.4303 5.91862 27.5423 6.03598C27.6541 6.15358 27.7397 6.29152 27.7996 6.45076C27.8592 6.61001 27.889 6.7806 27.889 6.96232V11.2365C28.0156 11.017 28.1872 10.8123 28.4035 10.6228C28.6195 10.4335 28.8621 10.2685 29.1306 10.1282C29.399 9.98815 29.6823 9.87813 29.9806 9.79862C30.2788 9.71912 30.577 9.67913 30.8755 9.67913C31.621 9.67913 32.3257 9.82536 32.9895 10.1169C33.653 10.4089 34.2311 10.8066 34.7232 11.3106C35.2154 11.8146 35.6049 12.404 35.892 13.0783C36.179 13.7529 36.3227 14.4727 36.3227 15.2382C36.3227 16.0038 36.179 16.7217 35.892 17.3925C35.6049 18.0631 35.2154 18.6485 34.7232 19.1487C34.2311 19.6489 33.653 20.045 32.9895 20.3367C32.3257 20.6285 31.621 20.7745 30.8755 20.7745C30.1221 20.7745 29.4158 20.6285 28.7557 20.3367C28.0959 20.045 27.516 19.6489 27.0164 19.1487C26.5168 18.6485 26.1233 18.0631 25.8365 17.3925C25.5492 16.7217 25.4058 16.0038 25.4058 15.2382V6.96232ZM37.9558 10.941C37.9558 10.7745 37.9891 10.6133 38.0559 10.4579C38.1227 10.3027 38.2138 10.1683 38.3288 10.0545C38.4438 9.94064 38.5795 9.84978 38.7353 9.78163C38.8913 9.71325 39.0545 9.67918 39.2251 9.67918C39.396 9.67918 39.5555 9.71325 39.704 9.78163C39.8523 9.84978 39.9806 9.94064 40.0882 10.0545C40.1957 10.1683 40.2812 10.3027 40.3443 10.4579C40.4073 10.6133 40.439 10.7745 40.439 10.941V19.5013C40.439 19.6757 40.4073 19.8385 40.3443 19.9899C40.2812 20.1416 40.1941 20.2741 40.0826 20.3879C39.9711 20.5015 39.8414 20.5907 39.6928 20.655C39.5443 20.7191 39.3848 20.7516 39.2142 20.7516C39.0433 20.7516 38.8817 20.7191 38.7297 20.655C38.5774 20.5907 38.4438 20.5015 38.3288 20.3879C38.2138 20.2741 38.1227 20.1416 38.0559 19.9899C37.9891 19.8385 37.9558 19.6757 37.9558 19.5013V10.941ZM37.8552 7.16704C37.8552 6.97775 37.8904 6.79934 37.9609 6.63277C38.0315 6.46595 38.1281 6.31996 38.2506 6.19503C38.373 6.0701 38.516 5.97143 38.6794 5.8995C38.8428 5.82757 39.0212 5.79137 39.2142 5.79137C39.3997 5.79137 39.5741 5.82757 39.7375 5.8995C39.901 5.97143 40.0439 6.0701 40.1664 6.19503C40.2891 6.31996 40.3873 6.46595 40.4616 6.63277C40.5359 6.79934 40.5731 6.97775 40.5731 7.16704C40.5731 7.36414 40.5359 7.54586 40.4616 7.71268C40.3873 7.87949 40.2891 8.02524 40.1664 8.15041C40.0439 8.27535 39.901 8.37401 39.7375 8.44595C39.5741 8.51811 39.3997 8.55384 39.2142 8.55384C39.0212 8.55384 38.8428 8.51811 38.6794 8.44595C38.516 8.37401 38.373 8.27535 38.2506 8.15041C38.1281 8.02524 38.0315 7.87949 37.9609 7.71268C37.8904 7.54586 37.8552 7.36414 37.8552 7.16704ZM42.0596 7.65577C42.0596 7.47405 42.0932 7.30534 42.1602 7.14989C42.2275 6.99467 42.3185 6.86004 42.4342 6.74646C42.5499 6.63265 42.6822 6.54179 42.8314 6.47364C42.9804 6.40526 43.1408 6.37119 43.3124 6.37119C43.4838 6.37119 43.6479 6.40361 43.8046 6.46797C43.9613 6.53233 44.0991 6.62319 44.2185 6.74055C44.3375 6.85838 44.4327 6.99467 44.5035 7.14989C44.5745 7.30534 44.6099 7.47405 44.6099 7.65577V9.48599H48.5361C48.7074 9.48599 48.8697 9.52006 49.0224 9.58844C49.1754 9.65658 49.3076 9.74744 49.4196 9.86126C49.5316 9.97483 49.621 10.1095 49.688 10.2647C49.7551 10.4201 49.7886 10.5851 49.7886 10.7592C49.7886 10.926 49.7551 11.0834 49.688 11.231C49.621 11.3789 49.5316 11.5079 49.4196 11.6174C49.3076 11.7274 49.1754 11.8147 49.0224 11.8791C48.8697 11.9435 48.7074 11.9756 48.5361 11.9756H44.6099V15.2951C44.6099 15.712 44.6844 16.1003 44.8336 16.4604C44.9826 16.8203 45.1877 17.1348 45.4487 17.4038C45.7097 17.6728 46.0173 17.8832 46.3716 18.0346C46.7257 18.1863 47.1115 18.262 47.5292 18.262C47.8944 18.262 48.2339 18.209 48.5473 18.103C48.8604 17.9968 49.1512 17.8264 49.4196 17.5915C49.5686 17.4625 49.7141 17.3584 49.8559 17.2787C49.9975 17.1991 50.1651 17.1594 50.3593 17.1594C50.5008 17.1594 50.6389 17.1899 50.773 17.2503C50.9073 17.3111 51.0265 17.3962 51.131 17.506C51.2353 17.6161 51.3191 17.7448 51.3827 17.8927C51.446 18.0403 51.4777 18.1979 51.4777 18.3645C51.4777 18.5616 51.4402 18.7509 51.3659 18.9328C51.2912 19.1145 51.1795 19.2778 51.0302 19.4217C50.5606 19.8762 50.0291 20.2174 49.4364 20.4448C48.8436 20.6719 48.2078 20.7858 47.5292 20.7858C46.7688 20.7858 46.0566 20.6438 45.3928 20.3594C44.7291 20.0752 44.1512 19.685 43.6591 19.1884C43.1669 18.6922 42.7772 18.1087 42.4903 17.4379C42.2031 16.7671 42.0596 16.0454 42.0596 15.2724V7.65577ZM53.1135 15.4943C53.1135 14.6978 53.2646 13.9449 53.5666 13.2355C53.8685 12.5262 54.2785 11.9079 54.797 11.3805C55.315 10.8533 55.921 10.4362 56.6146 10.1288C57.3079 9.82167 58.0461 9.66787 58.8291 9.66787H58.8517C59.2617 9.66787 59.5785 9.78594 59.8023 10.0218C60.026 10.258 60.138 10.5587 60.138 10.9241C60.138 11.107 60.1045 11.2761 60.0372 11.4323C59.9701 11.5882 59.8786 11.7217 59.7632 11.8319C59.6474 11.9424 59.5115 12.03 59.355 12.0946C59.1983 12.1592 59.0305 12.1916 58.8517 12.1916H58.7956C58.3707 12.1992 57.9661 12.2881 57.5821 12.4587C57.198 12.6293 56.8606 12.8605 56.5699 13.1523C56.2788 13.444 56.0458 13.7831 55.8707 14.1697C55.6954 14.5561 55.6039 14.973 55.5967 15.42V19.3989C55.5967 19.5733 55.5648 19.7361 55.5017 19.8877C55.4382 20.0394 55.3522 20.1719 55.2444 20.2855C55.1362 20.3993 55.0074 20.4883 54.8584 20.5526C54.7092 20.6172 54.5525 20.6494 54.3886 20.6494C54.217 20.6494 54.0548 20.6172 53.902 20.5526C53.7491 20.4883 53.6131 20.3991 53.4939 20.2852C53.3745 20.1717 53.2814 20.0387 53.2141 19.887C53.147 19.7351 53.1135 19.5721 53.1135 19.3977V15.4943ZM61.7567 10.9298C61.7567 10.7554 61.7884 10.5926 61.8517 10.441C61.9151 10.2893 62.0028 10.1568 62.1146 10.043C62.2266 9.9294 62.3569 9.84043 62.5062 9.77584C62.6552 9.71172 62.8156 9.6793 62.9872 9.6793C63.1585 9.6793 63.3208 9.71172 63.4738 9.77584C63.6265 9.84043 63.759 9.9294 63.8707 10.043C63.9827 10.1568 64.0721 10.2893 64.1391 10.441C64.2064 10.5926 64.24 10.7554 64.24 10.9298V15.4314C64.24 15.8332 64.3107 16.2044 64.4525 16.5456C64.5941 16.8866 64.7899 17.184 65.0397 17.4379C65.2895 17.6918 65.5821 17.8908 65.9176 18.0346C66.2533 18.1787 66.6186 18.2507 67.0139 18.2507C67.4016 18.2507 67.7522 18.1768 68.0653 18.029C68.3785 17.8813 68.6469 17.6807 68.8706 17.4265C69.0944 17.1726 69.2657 16.8733 69.3852 16.5286C69.5044 16.1836 69.5642 15.8105 69.5642 15.4087V10.9298C69.5642 10.7554 69.5977 10.5926 69.6648 10.441C69.7318 10.2893 69.8249 10.1568 69.9444 10.043C70.0636 9.9294 70.1979 9.84043 70.3471 9.77584C70.4962 9.71172 70.6566 9.6793 70.8281 9.6793C70.9995 9.6793 71.1599 9.71172 71.3089 9.77584C71.4581 9.84043 71.5869 9.9294 71.6949 10.043C71.8029 10.1568 71.8888 10.2893 71.9522 10.441C72.0155 10.5926 72.0474 10.7554 72.0474 10.9298V15.4087C72.0474 16.1514 71.9203 16.8468 71.667 17.4947C71.4134 18.1428 71.0631 18.7111 70.6156 19.2C70.1681 19.6886 69.6368 20.0735 69.0215 20.3537C68.4064 20.6343 67.7371 20.7744 67.0139 20.7744C66.2829 20.7744 65.5989 20.6343 64.9614 20.3537C64.3238 20.0735 63.7662 19.6886 63.2891 19.2C62.8119 18.7111 62.4373 18.1428 62.1651 17.4947C61.8927 16.8468 61.7567 16.1514 61.7567 15.4087V10.9298ZM76.4542 16.3749C76.551 16.6631 76.6893 16.9281 76.8681 17.1709C77.0471 17.4134 77.2541 17.6219 77.489 17.796C77.7239 17.9704 77.9849 18.1067 78.272 18.2053C78.5588 18.3038 78.8591 18.353 79.1723 18.353C79.508 18.353 79.7836 18.3246 80.0002 18.2678C80.2162 18.2108 80.4213 18.1221 80.6153 18.0007C80.8837 17.8414 81.1258 17.7619 81.3423 17.7619C81.5137 17.7619 81.6741 17.7979 81.8233 17.8698C81.9723 17.942 82.1011 18.0388 82.2091 18.1597C82.3171 18.2811 82.403 18.4211 82.4664 18.5804C82.5297 18.7396 82.5616 18.9027 82.5616 19.0692C82.5616 19.3269 82.4794 19.5619 82.3155 19.7739C82.1514 19.9861 81.9202 20.1662 81.6219 20.3141C81.3235 20.4617 80.9656 20.5755 80.5482 20.655C80.1305 20.7345 79.6719 20.7743 79.1723 20.7743C78.4191 20.7743 77.7088 20.6285 77.0416 20.3368C76.3741 20.045 75.7904 19.6489 75.291 19.1487C74.7914 18.6485 74.3979 18.0631 74.1109 17.3926C73.8238 16.7218 73.6804 16.0039 73.6804 15.2382C73.6804 14.4652 73.8238 13.7416 74.1109 13.0668C74.3979 12.3924 74.7914 11.8052 75.291 11.3047C75.7904 10.8045 76.3741 10.4087 77.0416 10.1169C77.7088 9.82517 78.4191 9.67918 79.1723 9.67918C79.918 9.67918 80.6208 9.82328 81.2809 10.1112C81.9407 10.3994 82.5185 10.7896 83.0146 11.282C83.5103 11.7749 83.9054 12.3565 84.2001 13.027C84.4947 13.6978 84.6492 14.4122 84.6644 15.1701C84.6644 15.5337 84.5505 15.8257 84.3231 16.0453C84.0956 16.2651 83.803 16.3749 83.4451 16.3749H76.4542ZM82.1141 14.2605C82.0245 13.9423 81.8885 13.6508 81.7058 13.3853C81.523 13.12 81.3067 12.8908 81.0571 12.6974C80.8071 12.5044 80.5259 12.3546 80.2125 12.2483C79.8994 12.1423 79.5676 12.0893 79.217 12.0893C78.8666 12.0893 78.5365 12.1461 78.2273 12.2599C77.9176 12.3735 77.6399 12.5268 77.3938 12.7202C77.1477 12.9135 76.937 13.1427 76.7619 13.408C76.5866 13.6732 76.4579 13.9574 76.3759 14.2605H82.1141Z" fill="#464547"/>
<path fill-rule="evenodd" clip-rule="evenodd" d="M17.2794 16.1048V4.78569L20.6271 6.66995V17.9924L14.5009 21.4538L11.1565 19.566L17.2794 16.1048ZM0.559078 11.0548L3.90354 9.17056V16.0792H3.90696L13.9438 21.7355V21.7388L10.5993 23.6231L0.555664 17.9668L0.559078 11.0548ZM10.5993 0.927002H10.6027L16.7273 4.37298V8.14818L10.5993 4.70237V4.69904H10.5959L0.559078 10.3585H0.555664V6.58664H0.559078L10.5993 0.927002ZM6.84428 7.64041L9.11932 6.36424V11.1013C9.35452 10.9392 9.89139 10.5221 10.7294 10.5221C11.8026 10.5221 12.7168 10.8908 13.4718 11.6275C14.2262 12.3643 14.6039 13.2567 14.6039 14.3044C14.6039 15.3523 14.2262 16.2462 13.4718 16.9865C12.7168 17.7267 11.8026 18.0969 10.7294 18.0969C9.649 18.0969 8.73123 17.7267 7.97659 16.9865C7.22178 16.2462 6.84428 15.3523 6.84428 14.3044V7.64041ZM9.59187 15.4148C9.90684 15.7226 10.2861 15.8762 10.7294 15.8762C11.1656 15.8762 11.5412 15.7226 11.8565 15.4148C12.1715 15.1073 12.329 14.7372 12.329 14.3044C12.329 13.8718 12.1715 13.5033 11.8565 13.1992C11.5412 12.8949 11.1656 12.743 10.7294 12.743C10.2861 12.743 9.90684 12.8949 9.59187 13.1992C9.27654 13.5033 9.11932 13.8718 9.11932 14.3044C9.11932 14.7372 9.27654 15.1073 9.59187 15.4148Z" fill="url(#paint0_linear)"/>
<defs>
<linearGradient id="paint0_linear" x1="10.5914" y1="0.927002" x2="10.5914" y2="23.6231" gradientUnits="userSpaceOnUse">
<stop stop-color="#FFE275"/>
<stop offset="1" stop-color="#F0B736"/>
</linearGradient>
</defs>
</svg>
