<svg width="143" height="31" viewBox="0 0 143 31" fill="none" xmlns="http://www.w3.org/2000/svg">
<path d="M142.996 0.850299C143 1.76513 142.998 2.67996 142.996 3.59532C142.996 3.81432 142.992 3.81964 142.778 3.81698C142.244 3.81167 142.329 3.89353 142.329 3.37206C142.309 2.81243 142.321 2.25212 142.366 1.6939C142.372 1.65146 142.365 1.60819 142.347 1.56952C142.12 2.04786 141.868 2.51365 141.592 2.96488C141.564 3.02019 141.533 3.07347 141.498 3.12435C141.481 3.1469 141.459 3.16532 141.434 3.17821C141.409 3.19111 141.381 3.19815 141.353 3.19881C141.325 3.19948 141.297 3.19375 141.271 3.18205C141.245 3.17035 141.222 3.15298 141.204 3.13126C141.193 3.11753 141.183 3.10234 141.176 3.08608C140.889 2.63825 140.626 2.17587 140.388 1.70081C140.388 1.66254 140.379 1.62473 140.363 1.59028C140.346 1.55583 140.322 1.52564 140.292 1.50201C140.277 1.54553 140.273 1.59164 140.278 1.63711C140.284 1.68257 140.299 1.72627 140.324 1.76513C140.381 2.38547 140.344 3.00741 140.351 3.62934C140.353 3.81273 140.345 3.81858 140.151 3.81698C139.656 3.81433 139.733 3.87599 139.731 3.42256C139.728 2.53484 139.731 1.64606 139.731 0.758344C139.731 0.695619 139.731 0.633953 139.731 0.572292C139.731 0.498404 139.762 0.455881 139.838 0.455881C139.972 0.455881 140.104 0.455881 140.237 0.455881C140.323 0.455881 140.362 0.509035 140.397 0.572292C140.723 1.1517 141.091 1.70665 141.372 2.32008C141.39 2.30786 141.421 2.29989 141.428 2.28182C141.685 1.71763 141.971 1.16755 142.287 0.633952C142.312 0.573423 142.356 0.522932 142.413 0.49041C142.47 0.457889 142.536 0.445181 142.601 0.454283C143.074 0.467573 142.994 0.404313 142.996 0.850299Z" fill="white"/>
<path d="M140.292 1.50464C140.322 1.52827 140.346 1.55846 140.363 1.59291C140.38 1.62736 140.388 1.66517 140.388 1.70344C140.356 1.67837 140.334 1.64221 140.327 1.60191C140.32 1.65698 140.32 1.7127 140.327 1.76776C140.302 1.72911 140.286 1.68551 140.28 1.64005C140.274 1.59458 140.278 1.54835 140.292 1.50464Z" fill="white"/>
<path d="M139.503 0.663571C139.503 1.12125 139.541 1.03567 139.124 1.05161C138.933 1.05799 138.69 0.967629 138.563 1.09786C138.446 1.21587 138.529 1.45295 138.527 1.6374C138.523 2.29389 138.527 2.9509 138.524 3.60845C138.524 3.81523 138.52 3.82109 138.323 3.82109C137.778 3.81417 137.878 3.89922 137.87 3.37988C137.864 3.06094 137.87 2.742 137.87 2.42306C137.87 2.02279 137.866 1.62305 137.872 1.22437C137.872 1.09839 137.834 1.04789 137.705 1.05161C137.501 1.05852 137.297 1.0548 137.091 1.05161C136.886 1.04842 136.879 1.04736 136.879 0.85174C136.883 0.391402 136.819 0.461043 137.272 0.458385C137.947 0.454133 138.622 0.458385 139.298 0.458385C139.497 0.45679 139.503 0.461044 139.503 0.663571Z" fill="white"/>
<path d="M136.985 26.6113C136.985 20.2878 136.985 13.9634 136.985 7.63805C136.985 7.2128 136.985 7.21917 136.566 7.25054C135.903 7.30369 135.242 7.34516 134.579 7.38449C133.775 7.43286 132.971 7.4722 132.165 7.51738C131.865 7.53546 131.865 7.53971 131.865 7.84217C131.865 9.512 131.865 11.1822 131.865 12.8527C131.877 12.9597 131.868 13.0679 131.839 13.1717C131.179 12.9769 130.49 12.8946 129.802 12.9282C128.699 12.9235 127.607 13.1521 126.598 13.599C125.453 14.103 124.498 14.9597 123.873 16.0443C123.182 17.3601 122.853 18.836 122.921 20.3207C122.921 20.7009 122.945 21.0807 122.993 21.4578C123.088 22.3485 123.34 23.2153 123.738 24.0178C124.315 25.1191 125.237 26.0006 126.363 26.5268C127.624 27.1138 129.018 27.3572 130.403 27.2322C131.155 27.1663 131.887 26.9541 132.558 26.6076C132.931 26.4191 133.294 26.2106 133.645 25.983C133.852 26.2514 134.055 26.5092 134.251 26.7708C134.291 26.8333 134.346 26.8841 134.412 26.9179C134.478 26.9516 134.552 26.9671 134.626 26.9627C135.3 26.9489 135.975 26.9584 136.65 26.9568C137.029 26.9568 136.985 27.0036 136.985 26.6113ZM131.664 23.0556C131.386 23.2107 131.079 23.3046 130.762 23.3312C130.445 23.3578 130.126 23.3164 129.827 23.2099C129.527 23.1033 129.254 22.9339 129.025 22.7132C128.796 22.4924 128.617 22.2253 128.5 21.9298C128.371 21.6006 128.284 21.2564 128.241 20.9055C128.146 20.2201 128.18 19.523 128.343 18.8504C128.468 18.2839 128.754 17.7653 129.165 17.3562C129.373 17.1548 129.625 17.0049 129.901 16.9183C130.177 16.8317 130.469 16.8109 130.754 16.8576C131.078 16.907 131.395 16.9963 131.697 17.1233C131.751 17.1364 131.799 17.1693 131.831 17.2155C131.862 17.2618 131.875 17.3182 131.868 17.3737C131.86 18.0313 131.865 18.6872 131.865 19.3448V20.064C131.865 20.9432 131.858 21.8224 131.869 22.7021C131.876 22.7752 131.86 22.8485 131.823 22.9119C131.786 22.9753 131.731 23.0256 131.664 23.0556Z" fill="white"/>
<path d="M121.419 26.6314C121.419 26.9998 121.456 26.9547 121.089 26.9557C119.606 26.9557 118.122 26.9557 116.638 26.9557H116.558C116.301 26.9557 116.299 26.9557 116.299 26.6931C116.299 24.7997 116.299 22.9071 116.299 21.0154V7.87774C116.299 7.53647 116.299 7.53541 116.645 7.51734C117.448 7.47215 118.254 7.43282 119.058 7.38445C119.721 7.34511 120.383 7.28185 121.045 7.25474C121.506 7.2356 121.418 7.20158 121.418 7.60398C121.42 10.7665 121.42 13.9291 121.418 17.0919L121.419 26.6314Z" fill="white"/>
<path d="M114.579 17.8506C114.296 16.5136 113.595 15.301 112.579 14.387C111.929 13.8046 111.149 13.3855 110.304 13.1643C108.939 12.8176 107.507 12.8275 106.147 13.193C104.8 13.5209 103.591 14.2649 102.692 15.3193C101.69 16.5201 101.114 18.0192 101.055 19.582C101.001 20.3519 101.051 21.1257 101.205 21.8821C101.486 23.3147 102.262 24.603 103.397 25.5212C104.241 26.1898 105.221 26.6662 106.268 26.9171C107.224 27.1536 108.206 27.266 109.191 27.2514C110.379 27.2546 111.56 27.0861 112.699 26.7512C113.369 26.5774 114.009 26.3017 114.595 25.9337C114.793 25.8008 114.797 25.7992 114.707 25.5828C114.324 24.6489 113.942 23.7144 113.55 22.7831C113.504 22.6276 113.434 22.48 113.344 22.345C112.898 22.5641 112.436 22.7508 111.962 22.9037C110.946 23.2332 109.869 23.3315 108.811 23.1913C108.452 23.1529 108.105 23.0426 107.789 22.8671C107.474 22.6915 107.198 22.4543 106.976 22.1696C106.809 21.9643 106.688 21.7256 106.622 21.4696H114.542C114.808 21.4696 114.808 21.4696 114.808 21.2149C114.808 20.7365 114.808 20.2549 114.808 19.7754C114.81 19.1269 114.733 18.4805 114.579 17.8506ZM109.773 18.9233C109.241 18.926 108.707 18.9233 108.174 18.9233C107.685 18.9233 107.196 18.9233 106.707 18.9233C106.433 18.9233 106.445 18.9233 106.471 18.6576C106.505 18.3932 106.594 18.1391 106.733 17.9115C106.871 17.684 107.056 17.4883 107.276 17.3371C107.454 17.2084 107.656 17.1172 107.87 17.0691C108.084 17.0211 108.306 17.0172 108.521 17.0577C108.737 17.0981 108.942 17.1822 109.124 17.3046C109.307 17.4271 109.462 17.5854 109.581 17.7698C109.763 18.0738 109.883 18.4107 109.934 18.7612C109.951 18.9 109.932 18.9239 109.773 18.9239V18.9233Z" fill="white"/>
<path d="M99.6036 13.38C99.8476 13.38 99.8104 13.4008 99.8104 13.6373V26.6676C99.8104 26.9648 99.846 26.9579 99.5244 26.9579H94.9944C94.6728 26.9579 94.7068 26.9648 94.7068 26.6692V15.5563C94.7068 14.8992 94.7068 14.2422 94.7068 13.5852C94.7068 13.3853 94.7095 13.3811 94.912 13.3811C96.4759 13.38 98.0398 13.3797 99.6036 13.38Z" fill="white"/>
<path d="M100.043 8.83946C100.027 9.57218 99.7239 10.2693 99.1992 10.781C98.6745 11.2927 97.97 11.5781 97.2371 11.576C96.507 11.5788 95.8056 11.2915 95.2873 10.7774C94.7689 10.2632 94.476 9.56424 94.4729 8.83415C94.4736 8.09583 94.7676 7.38803 95.2901 6.86646C95.8127 6.3449 96.5211 6.05227 97.2594 6.05298C97.9977 6.05368 98.7055 6.34765 99.2271 6.87022C99.7486 7.39279 100.041 8.10115 100.041 8.83946H100.043Z" fill="white"/>
<path d="M93.4654 11.7035C93.4952 12.0623 93.5116 12.031 93.1831 12.031H86.0675C85.8087 12.031 85.8071 12.031 85.8071 12.2909C85.8071 13.3487 85.8071 14.4062 85.8071 15.4633C85.8071 15.7604 85.7619 15.7567 86.1165 15.7567H91.2875C91.3492 15.7567 91.4119 15.7594 91.4736 15.7567C91.5943 15.7498 91.6421 15.8003 91.6559 15.9252C91.7622 16.9086 91.8776 17.892 91.9913 18.8754C92.0259 19.1646 92.0652 19.4522 92.1078 19.7791H91.7776C89.8863 19.7791 87.9943 19.7791 86.1016 19.7791C85.7715 19.7791 85.8071 19.7472 85.8071 20.0816C85.8071 22.2759 85.8071 24.4702 85.8071 26.6645C85.8071 26.9834 85.8289 26.9574 85.5259 26.9574H80.9687C80.9333 26.9555 80.8978 26.9555 80.8624 26.9574C80.7173 26.9739 80.6721 26.9042 80.686 26.7697C80.6913 26.7166 80.686 26.6634 80.686 26.6103V8.32859C80.686 7.9533 80.6365 7.99688 81.0049 7.99688C84.9144 7.99688 88.8232 7.99688 92.7313 7.99688C92.7667 7.99873 92.8022 7.99873 92.8376 7.99688C92.9758 7.97881 93.0306 8.01975 93.0502 8.17762C93.1815 9.34707 93.3267 10.5117 93.468 11.6785L93.4654 11.7035Z" fill="white"/>
<path d="M77.8971 26.5694C77.8971 26.6305 77.8971 26.6938 77.8971 26.7554C77.8929 26.9526 77.8918 26.9569 77.6845 26.958C76.6447 26.958 75.6052 26.958 74.5658 26.958C74.0507 26.958 73.5356 26.958 73.0194 26.958C72.7988 26.958 72.7973 26.9542 72.7962 26.7406C72.793 26.4636 72.7962 26.1883 72.7962 25.9129C72.7962 23.4968 72.7962 21.0801 72.7962 18.6628C72.8024 18.3339 72.728 18.0085 72.5793 17.7151C72.486 17.5276 72.3418 17.3701 72.1632 17.2607C71.9846 17.1513 71.7788 17.0943 71.5693 17.0963C71.2147 17.0784 70.8595 17.1157 70.5163 17.2069C69.9516 17.356 69.3971 17.5414 68.8562 17.7618C68.785 17.7813 68.7233 17.8262 68.6829 17.888C68.6425 17.9497 68.626 18.0242 68.6367 18.0973C68.6452 19.4028 68.6425 20.7094 68.6425 22.0149V26.5731C68.6425 26.6263 68.6425 26.6794 68.6425 26.7326C68.6399 26.9532 68.6399 26.9558 68.4262 26.9569C68.1152 26.9569 67.8042 26.9569 67.4933 26.9569H63.8637C63.801 26.9569 63.7393 26.9542 63.6777 26.9569C63.5841 26.9596 63.5501 26.9117 63.5528 26.8256C63.5528 26.7725 63.5528 26.7193 63.5528 26.6661V13.6613C63.5549 13.6259 63.5549 13.5904 63.5528 13.555C63.532 13.4083 63.6059 13.3807 63.7377 13.3807C64.635 13.3849 65.5322 13.3849 66.4291 13.3807C66.4765 13.3764 66.5241 13.3866 66.5656 13.4098C66.6072 13.4331 66.6407 13.4683 66.6619 13.5109C66.8687 13.8522 67.0872 14.186 67.3056 14.5209C67.3481 14.6122 67.411 14.6924 67.4896 14.7553C68.0999 14.3801 68.7346 14.0461 69.3894 13.7554C70.3421 13.3189 71.3637 13.052 72.4082 12.9666C73.2317 12.8901 74.0622 12.97 74.856 13.2021C75.4178 13.3757 75.9346 13.6703 76.3702 14.0652C76.8058 14.4601 77.1495 14.9457 77.3772 15.4878C77.6538 16.1026 77.8199 16.7614 77.8679 17.4339C77.887 17.6736 77.8966 17.9123 77.8966 18.1504C77.8994 20.9546 77.8996 23.7609 77.8971 26.5694Z" fill="white"/>
<path d="M61.4781 26.5965C61.4781 26.6497 61.4781 26.7028 61.4781 26.756C61.4739 26.9532 61.4723 26.9575 61.2655 26.9585C60.1467 26.9585 59.0276 26.9585 57.9081 26.9585C57.4632 26.9585 57.0193 26.9585 56.5755 26.9585C56.3825 26.9585 56.3825 26.9527 56.3767 26.7693C56.374 26.7161 56.3767 26.663 56.3767 26.6098C56.3767 22.3116 56.3767 18.0124 56.3767 13.7124C56.3767 13.3403 56.3278 13.3834 56.6956 13.3834C58.1794 13.3834 59.6625 13.3834 61.1448 13.3834C61.19 13.3834 61.2336 13.3834 61.2788 13.3834C61.4749 13.3876 61.4776 13.3876 61.4776 13.596C61.4776 14.7591 61.4776 15.9225 61.4776 17.0863V26.6013L61.4781 26.5965Z" fill="white"/>
<path d="M61.7117 8.83793C61.6957 9.57098 61.3927 10.2685 60.8679 10.7805C60.3431 11.2925 59.6383 11.5782 58.905 11.576C58.5436 11.5776 58.1853 11.508 57.8508 11.3711C57.5162 11.2343 57.2119 11.0328 56.9552 10.7783C56.6985 10.5238 56.4944 10.2212 56.3547 9.8878C56.215 9.55441 56.1424 9.19676 56.1409 8.83528C56.1358 8.46643 56.2041 8.10024 56.3417 7.758C56.4793 7.41575 56.6836 7.10426 56.9426 6.84162C57.2016 6.57899 57.5103 6.37043 57.8506 6.22809C58.1909 6.08575 58.5561 6.01245 58.925 6.01245C59.2939 6.01245 59.6591 6.08575 59.9994 6.22809C60.3397 6.37043 60.6484 6.57899 60.9074 6.84162C61.1664 7.10426 61.3707 7.41575 61.5083 7.758C61.6459 8.10024 61.7142 8.46643 61.7091 8.83528L61.7117 8.83793Z" fill="white"/>
<path d="M54.7775 17.6043C54.4318 16.4785 53.7804 15.4708 52.8957 14.6935C52.1347 14.0372 51.2375 13.558 50.2687 13.2907C49.3018 13.0236 48.3007 12.9003 47.2978 12.925C45.8456 12.9146 44.4156 13.2809 43.1473 13.9881C41.979 14.6436 41.0441 15.647 40.4725 16.8585C40.0383 17.7828 39.8067 18.7892 39.7931 19.8103C39.7526 20.7492 39.8579 21.6886 40.1052 22.5952C40.3747 23.6033 40.9119 24.5197 41.66 25.2472C42.4139 25.9666 43.3233 26.5027 44.3178 26.8138C45.289 27.1273 46.307 27.2711 47.327 27.239C47.7422 27.2284 48.1584 27.239 48.5751 27.1912C49.4658 27.096 50.3378 26.8718 51.1639 26.5256C52.0525 26.1581 52.8493 25.5993 53.4975 24.8889C54.4854 23.7807 55.0623 22.3666 55.1315 20.8836C55.2209 19.778 55.1008 18.6654 54.7775 17.6043ZM49.5522 21.8872C49.3868 22.2394 49.1257 22.5379 48.7987 22.7486C48.4716 22.9594 48.0919 23.0739 47.7029 23.079C47.3843 23.1147 47.0619 23.0933 46.7508 23.0157C46.4422 22.9305 46.1574 22.775 45.9189 22.5614C45.6803 22.3478 45.4944 22.082 45.3757 21.7846C45.11 21.1429 45.0047 20.4461 45.0689 19.7545C45.0818 19.1759 45.2468 18.6109 45.5473 18.1162C45.7397 17.8001 46.0109 17.5395 46.3343 17.3599C46.6578 17.1803 47.0225 17.088 47.3924 17.0919C47.9293 17.0456 48.4632 17.2101 48.8808 17.5507C49.1739 17.8109 49.4031 18.1353 49.5506 18.4984C49.7783 19.0317 49.8889 19.6076 49.8748 20.1872C49.9036 20.7714 49.793 21.3541 49.5522 21.8872Z" fill="white"/>
<path d="M39.5713 25.6651C39.6947 25.9144 39.7435 25.8857 39.4618 26.0403C39.0733 26.2536 38.6674 26.4332 38.2483 26.5772C37.2687 26.9168 36.2533 27.142 35.222 27.2486C34.7968 27.2922 34.3715 27.2853 34.1307 27.2922C32.7927 27.3392 31.4572 27.1423 30.1897 26.7112C28.7112 26.2104 27.3936 25.3235 26.3732 24.1422C25.3529 22.9609 24.667 21.5282 24.3865 19.9927C24.1557 18.8711 24.0861 17.7224 24.1798 16.5811C24.2935 14.6659 24.9647 12.8258 26.111 11.2872C26.88 10.2615 27.8585 9.4111 28.9814 8.79258C30.1621 8.13553 31.4699 7.73912 32.8167 7.63004C34.6808 7.45817 36.5583 7.75416 38.2791 8.49118C38.6537 8.65244 39.0151 8.84298 39.3598 9.06101C39.3819 9.06976 39.4018 9.08337 39.418 9.10082C39.4342 9.11828 39.4463 9.13914 39.4534 9.16188C39.4605 9.18462 39.4624 9.20866 39.459 9.23223C39.4556 9.2558 39.4469 9.27831 39.4336 9.2981C38.968 10.3421 38.5073 11.3875 38.0516 12.4343C37.9649 12.6316 37.9734 12.6151 37.7858 12.5518C37.0526 12.2889 36.3024 12.0758 35.5405 11.9139C34.863 11.7753 34.1685 11.7407 33.4806 11.8113C32.7021 11.9184 31.9747 12.2606 31.3958 12.7921C30.4985 13.5733 29.8757 14.622 29.6193 15.7838C29.31 17.0205 29.3413 18.3178 29.7097 19.5382C30.0514 20.7664 30.8457 21.8196 31.9327 22.4858C32.7676 22.9901 33.7457 23.2042 34.7149 23.0949C35.7062 22.9992 36.6662 22.6954 37.5322 22.2035C37.7528 22.0818 37.7544 22.0828 37.8613 22.2939C38.3407 23.2443 38.8206 24.1944 39.3007 25.1441C39.3906 25.3201 39.4879 25.4896 39.5713 25.6651Z" fill="white"/>
<path d="M15.4661 21.5918C16.386 21.5954 17.2841 21.8715 18.0471 22.3852C18.8101 22.8989 19.4038 23.6272 19.7532 24.4781C20.1026 25.329 20.1919 26.2644 20.01 27.166C19.8281 28.0677 19.3831 28.8952 18.7311 29.5441C18.0792 30.193 17.2496 30.6342 16.3471 30.8119C15.4446 30.9896 14.5096 30.8958 13.6604 30.5425C12.8111 30.1892 12.0856 29.5921 11.5755 28.8267C11.0653 28.0612 10.7935 27.1618 10.7942 26.242C10.7947 25.6296 10.9161 25.0234 11.1514 24.4581C11.3866 23.8927 11.7311 23.3793 12.1651 22.9474C12.5991 22.5154 13.1141 22.1733 13.6806 21.9407C14.247 21.7081 14.8538 21.5895 15.4661 21.5918Z" fill="white"/>
<path d="M15.4573 10.7695C16.3781 10.7714 17.2775 11.0465 18.0418 11.5598C18.8062 12.0731 19.401 12.8017 19.7511 13.6532C20.1012 14.5048 20.1907 15.4411 20.0084 16.3436C19.8261 17.2461 19.3802 18.0742 18.727 18.7231C18.0739 19.372 17.2429 19.8126 16.3392 19.989C15.4356 20.1654 14.4999 20.0697 13.6506 19.7141C12.8014 19.3585 12.0767 18.7589 11.5683 17.9912C11.06 17.2235 10.7909 16.3223 10.795 15.4016C10.8006 14.1696 11.2946 12.9901 12.1686 12.1218C13.0426 11.2534 14.2253 10.7671 15.4573 10.7695Z" fill="white"/>
<path d="M15.4635 2.55343e-05C16.3833 0.00307242 17.2816 0.278632 18.0449 0.791902C18.8082 1.30517 19.4024 2.03313 19.7522 2.88384C20.102 3.73455 20.1919 4.66986 20.0106 5.57163C19.8292 6.47341 19.3846 7.3012 18.733 7.95047C18.0815 8.59975 17.2521 9.04137 16.3497 9.21957C15.4473 9.39778 14.5123 9.30457 13.6628 8.95172C12.8134 8.59887 12.0875 8.0022 11.5769 7.23707C11.0664 6.47194 10.794 5.57267 10.7942 4.65283C10.7943 4.04047 10.9153 3.43415 11.1502 2.86863C11.3851 2.30311 11.7293 1.78952 12.1631 1.35728C12.5969 0.925035 13.1117 0.582647 13.678 0.349743C14.2444 0.116839 14.8511 -0.00200288 15.4635 2.55343e-05Z" fill="white"/>
<path d="M9.30242 26.2551C9.29999 27.1756 9.02448 28.0747 8.51075 28.8385C7.99701 29.6024 7.26816 30.1966 6.4165 30.546C5.56484 30.8954 4.62866 30.9842 3.72651 30.8011C2.82435 30.6181 1.99679 30.1715 1.3486 29.5179C0.700411 28.8643 0.26075 28.033 0.0852826 27.1294C-0.0901843 26.2257 0.00643602 25.2903 0.362909 24.4416C0.719381 23.5929 1.31967 22.869 2.08778 22.3617C2.85589 21.8544 3.75726 21.5864 4.67778 21.5916C5.28837 21.5916 5.89294 21.7125 6.45657 21.9473C7.0202 22.1822 7.53174 22.5263 7.96169 22.9598C8.39164 23.3934 8.73148 23.9078 8.96159 24.4734C9.19171 25.039 9.30755 25.6445 9.30242 26.2551Z" fill="white"/>
<path d="M9.30355 15.4458C9.29847 16.366 9.02047 17.264 8.50474 18.026C7.98902 18.7881 7.25877 19.3801 6.40644 19.7269C5.55411 20.0737 4.61804 20.1598 3.71674 19.9743C2.81544 19.7888 1.98945 19.3401 1.34334 18.6849C0.69723 18.0297 0.260076 17.1975 0.087194 16.2937C-0.085688 15.3899 0.0134967 14.4551 0.372185 13.6077C0.730873 12.7603 1.33294 12.0384 2.10215 11.5334C2.87136 11.0283 3.77313 10.7629 4.69328 10.7707C5.30366 10.7725 5.90764 10.8952 6.47039 11.1316C7.03313 11.368 7.54349 11.7135 7.97207 12.1481C8.40065 12.5827 8.73897 13.0979 8.9675 13.6638C9.19602 14.2298 9.31022 14.8355 9.30355 15.4458Z" fill="white"/>
<path d="M9.30239 4.66991C9.29879 5.5905 9.02208 6.48931 8.50731 7.25254C7.99254 8.01576 7.26288 8.60905 6.41069 8.9573C5.5585 9.30554 4.62215 9.39307 3.72018 9.20879C2.81822 9.02451 1.99119 8.57671 1.34389 7.92211C0.696597 7.26751 0.258132 6.43555 0.0839842 5.53157C-0.090164 4.6276 0.00785099 3.69228 0.365633 2.84405C0.723416 1.99582 1.32486 1.27285 2.09381 0.766672C2.86276 0.260496 3.76463 -0.00611397 4.68521 0.000612491C5.29567 0.00156639 5.8999 0.123381 6.46306 0.359017C7.02621 0.594653 7.53713 0.939447 7.96637 1.37353C8.3956 1.80761 8.73466 2.32238 8.96396 2.88814C9.19327 3.45391 9.30828 4.05947 9.30239 4.66991Z" fill="white"/>
</svg>
