<svg width="134" height="39" viewBox="0 0 134 39" fill="none" xmlns="http://www.w3.org/2000/svg">
<path d="M14.1491 15.1039V30.2079H20.3231C20.8376 30.1865 21.2395 29.7594 21.2234 29.2415V15.1039H14.1491ZM0.000465985 29.2415C-0.015612 29.7541 0.386338 30.1865 0.900835 30.2079H7.07479V15.1039H0.000465985V29.2415ZM21.2181 7.5493V0.961014C21.2342 0.448473 20.8322 0.0213559 20.3177 0H0.900835C0.386338 0.0213559 -0.015612 0.448473 0.000465985 0.961014V7.5493H21.2181ZM54.7247 10.0052C53.8029 9.49268 52.4309 9.23641 50.6141 9.23641C48.749 9.23107 46.8947 9.44997 45.0832 9.88242V13.3207C46.5302 13.1339 47.9826 13.0217 49.4404 12.995C50.5283 12.995 51.3 13.0751 51.7717 13.2406C52.2379 13.4008 52.5648 13.7692 52.7578 14.3351C52.9454 14.9011 53.0365 15.846 53.0365 17.1648V18.1738C51.3215 18.0671 49.9817 18.019 49.0223 18.019C47.7843 18.019 46.8196 18.2219 46.1229 18.6276C45.4316 19.0334 44.9332 19.6901 44.6277 20.6084C44.3275 21.5267 44.1721 22.7814 44.1721 24.367C44.1721 26.524 44.5205 28.0883 45.2118 29.0546C45.9086 30.021 47.0501 30.5068 48.6418 30.5068H48.6793C49.4296 30.5229 51.7234 30.4481 52.7846 28.9959C52.9561 28.761 53.1061 28.5101 53.2187 28.2485L53.3366 30.1865H57.1256V17.405C57.1256 15.2748 56.9541 13.6357 56.6165 12.4932C56.2789 11.3506 55.6411 10.5178 54.7247 10.0052ZM53.0311 22.3382C53.0311 24.0894 52.8543 25.2213 52.5005 25.7338C52.2808 26.0328 51.9807 26.257 51.6323 26.3798C51.2411 26.4973 50.8284 26.5507 50.4211 26.5347C49.5154 26.5347 48.9205 26.3638 48.6418 26.0275C48.3631 25.6911 48.2238 24.997 48.2238 23.9453C48.2238 23.1604 48.2827 22.5838 48.3953 22.2048C48.465 21.8791 48.674 21.6014 48.9634 21.4359C49.226 21.3025 49.6386 21.2331 50.196 21.2331H53.0365V22.3382H53.0311ZM87.7543 11.1584C87.6739 11.0143 87.5828 10.8701 87.4809 10.7367C86.2001 8.98548 83.1345 9.24709 83.1345 9.24709C81.9233 9.27912 80.9693 9.57276 80.2887 10.144C79.5705 10.7527 79.0561 11.8098 78.7559 13.3154C78.4558 14.821 78.3004 16.9832 78.3004 19.7862C78.3004 22.5358 78.4451 24.65 78.7345 26.1342C79.0239 27.6185 79.5223 28.6649 80.2298 29.2842C80.9372 29.9089 81.9608 30.2239 83.2953 30.2239H83.4025L83.3918 30.2346C83.3918 30.2346 86.1625 30.4588 87.5345 28.9852C87.5345 30.6777 87.4541 31.879 87.3094 32.5784C87.1594 33.3098 86.8217 33.801 86.3072 34.0519C85.7874 34.3082 84.8977 34.4363 83.6383 34.4363L79.4044 34.3562V37.7999C80.1869 37.96 80.9747 38.0775 81.7732 38.1416C82.7433 38.2377 83.6758 38.2857 84.5547 38.2857C86.7038 38.2857 88.2795 37.9227 89.2924 37.1912C90.2999 36.4598 90.9484 35.3813 91.2271 33.9558C91.5058 32.525 91.6451 30.3947 91.6451 27.5651V9.56209H87.8507L87.7543 11.1584ZM87.2826 24.4845C87.154 25.1572 86.9182 25.6324 86.5645 25.8993C86.2108 26.1663 85.6963 26.3051 85.0103 26.3051C84.1742 26.3051 83.5847 26.1769 83.2471 25.9207C82.9094 25.6644 82.6843 25.1038 82.5664 24.2442C82.4539 23.3793 82.3949 21.9004 82.3949 19.7969C82.3949 17.6399 82.4539 16.145 82.5664 15.3068C82.679 14.4739 82.8987 13.9294 83.231 13.6891C83.5579 13.4489 84.1528 13.3261 85.0103 13.3261C85.7445 13.3261 86.2858 13.4809 86.6395 13.7959C86.9932 14.1109 87.2344 14.6928 87.3523 15.5471C87.4756 16.3319 87.5345 17.7467 87.5345 19.7969C87.5399 22.1407 87.4541 23.705 87.2826 24.4845ZM106.619 10.2668C105.746 9.5781 104.299 9.23641 102.283 9.23641C100.236 9.23641 98.7355 9.59412 97.7762 10.3095C96.8169 11.025 96.1952 12.0981 95.9219 13.5236C95.6432 14.9544 95.5039 17.0847 95.5039 19.9143C95.5039 22.7707 95.6486 24.9063 95.938 26.3211C96.2274 27.7359 96.8705 28.7877 97.8727 29.4764C98.8695 30.1651 100.429 30.5068 102.551 30.5068C103.57 30.5068 104.588 30.4428 105.601 30.3253C106.453 30.2399 107.294 30.0851 108.12 29.8555V26.4172C106.576 26.6094 105.017 26.7215 103.462 26.7429C102.198 26.7429 101.313 26.6254 100.81 26.3958C100.306 26.1663 99.9789 25.7071 99.8288 25.0237C99.6788 24.3403 99.5984 23.1177 99.5984 21.3612H108.575V19.8663C108.575 16.8765 108.468 14.6982 108.254 13.3367C108.039 11.9753 107.487 10.9502 106.619 10.2668ZM104.663 18.1365H99.5877C99.6145 16.5455 99.6842 15.4136 99.7967 14.7409C99.9092 14.0682 100.145 13.609 100.499 13.3634C100.852 13.1232 101.421 13.0004 102.203 13.0004C102.937 13.0004 103.457 13.1072 103.795 13.3261C104.132 13.545 104.352 13.9988 104.475 14.7035C104.599 15.4083 104.663 16.5348 104.663 18.0991V18.1365ZM133.625 12.333C133.384 11.2919 132.955 10.5178 132.333 10.0106C131.717 9.50336 130.811 9.24709 129.627 9.24175C129.573 9.24175 129.53 9.24709 129.471 9.24709C129.412 9.24709 126.4 9.05488 125.114 10.7473C124.97 10.9342 124.846 11.1371 124.744 11.3506C124.546 10.79 124.192 10.3042 123.726 9.93581C123.131 9.49268 122.242 9.27378 121.073 9.25243C119.905 9.23641 117.943 9.04421 116.716 10.7527C116.577 10.9449 116.454 11.1424 116.346 11.356L116.245 9.5781H112.514V30.2025H116.604V19.4285C116.604 17.6506 116.646 16.3639 116.738 15.5684C116.829 14.7729 117.032 14.2016 117.365 13.8493C117.697 13.4969 118.233 13.3207 118.994 13.3207C119.728 13.3207 120.232 13.4222 120.511 13.625C120.789 13.8279 120.971 14.2871 121.063 15.0025C121.148 15.7179 121.197 16.9886 121.197 18.8252V30.1865H125.286V19.4285C125.286 17.6506 125.329 16.3639 125.42 15.5684C125.511 14.7729 125.725 14.2016 126.063 13.8493C126.406 13.4969 126.952 13.3261 127.713 13.3207C128.448 13.3207 128.952 13.4222 129.23 13.625C129.509 13.8279 129.691 14.2871 129.777 15.0025C129.863 15.7179 129.911 16.9886 129.911 18.8252V30.1865H134V16.5935C133.984 14.7889 133.861 13.3688 133.625 12.333ZM72.866 10.0266C72.2229 9.49802 71.2689 9.23641 70.0041 9.23641H69.8809C69.838 9.23641 66.7778 9.05488 65.5237 10.7367C65.438 10.8541 65.3522 10.9823 65.2826 11.1104L65.1915 9.56209H61.4453V30.1865H65.5344V19.4285C65.513 18.1471 65.5612 16.8658 65.6684 15.5844C65.7542 14.8049 65.9793 14.2283 66.3276 13.8653C66.6813 13.5022 67.2602 13.3207 68.0694 13.3207C68.8251 13.3207 69.3557 13.4222 69.6611 13.625C69.9666 13.8279 70.1649 14.2924 70.2667 15.0185C70.3686 15.7446 70.4222 17.0153 70.4222 18.8199V30.1812H74.5113V16.791C74.5113 14.9331 74.3988 13.4702 74.1683 12.4024C73.9486 11.34 73.5145 10.5498 72.866 10.0266ZM39.2898 3.57711H35.2006V9.44997H32.6603V13.2086H35.2006V30.1865H39.2898V13.2086H42.3928V9.44997H39.2898V3.57711Z" fill="white"/>
</svg>
