<svg width="129" height="24" viewBox="0 0 129 24" fill="none" xmlns="http://www.w3.org/2000/svg">
<path d="M3.60618 0.88535H0L7.95735 22.9975H11.8119L19.7692 0.88535H16.163L10.0088 18.8947H9.76044L3.60618 0.88535Z" fill="#000E33"/>
<path d="M25.8668 23.3646C28.6092 23.3646 30.1532 21.9718 30.7686 20.7301H30.8982V22.9975H34.0509V11.9846C34.0509 7.15838 30.2504 6.19745 27.6159 6.19745C24.6143 6.19745 21.8503 7.40671 20.7706 10.4299L23.8046 11.1209C24.2796 9.94399 25.4889 8.81031 27.6591 8.81031C29.7429 8.81031 30.8118 9.9008 30.8118 11.7795V11.8551C30.8118 13.0319 29.6025 13.0103 26.6226 13.3558C23.4807 13.7229 20.2632 14.5435 20.2632 18.3116C20.2632 21.5723 22.7141 23.3646 25.8668 23.3646ZM26.5686 20.7733C24.7439 20.7733 23.4267 19.9528 23.4267 18.3548C23.4267 16.6273 24.9598 16.0119 26.8277 15.7635C27.875 15.6232 30.3583 15.3425 30.8226 14.8782V17.016C30.8226 18.981 29.257 20.7733 26.5686 20.7733Z" fill="#000E33"/>
<path d="M41.5791 0.88535H38.3508V22.9975H41.5791V0.88535Z" fill="#000E33"/>
<path d="M45.9221 22.9975H49.1504V6.41339H45.9221V22.9975ZM47.5525 3.85451C48.6645 3.85451 49.5931 2.99076 49.5931 1.93265C49.5931 0.874552 48.6645 0 47.5525 0C46.4296 0 45.5118 0.874552 45.5118 1.93265C45.5118 2.99076 46.4296 3.85451 47.5525 3.85451Z" fill="#000E33"/>
<path d="M59.7017 23.3214C62.7249 23.3214 63.9125 21.4751 64.4956 20.417H64.7655V22.9975H67.9182V0.88535H64.6899V9.10183H64.4956C63.9125 8.07612 62.8112 6.19745 59.7233 6.19745C55.7177 6.19745 52.7701 9.36096 52.7701 14.7378C52.7701 20.1039 55.6745 23.3214 59.7017 23.3214ZM60.4143 20.5682C57.5315 20.5682 56.0308 18.0309 56.0308 14.7054C56.0308 11.4124 57.4992 8.93988 60.4143 8.93988C63.2323 8.93988 64.7439 11.2396 64.7439 14.7054C64.7439 18.1929 63.1999 20.5682 60.4143 20.5682Z" fill="#000E33"/>
<path d="M77.352 23.3646C80.0945 23.3646 81.6384 21.9718 82.2539 20.7301H82.3834V22.9975H85.5361V11.9846C85.5361 7.15838 81.7356 6.19745 79.1012 6.19745C76.0996 6.19745 73.3356 7.40671 72.2559 10.4299L75.2898 11.1209C75.7649 9.94399 76.9742 8.81031 79.1443 8.81031C81.2281 8.81031 82.297 9.9008 82.297 11.7795V11.8551C82.297 13.0319 81.0878 13.0103 78.1078 13.3558C74.9659 13.7229 71.7484 14.5435 71.7484 18.3116C71.7484 21.5723 74.1993 23.3646 77.352 23.3646ZM78.0538 20.7733C76.2292 20.7733 74.9119 19.9528 74.9119 18.3548C74.9119 16.6273 76.4451 16.0119 78.313 15.7635C79.3603 15.6232 81.8436 15.3425 82.3078 14.8782V17.016C82.3078 18.981 80.7423 20.7733 78.0538 20.7733Z" fill="#000E33"/>
<path d="M97.5774 6.41339H94.1764V2.44011H90.9481V6.41339H88.5188V9.00466H90.9481V18.7975C90.9373 21.8098 93.2371 23.2674 95.7851 23.2134C96.8108 23.2026 97.5018 23.0083 97.8797 22.8679L97.2967 20.2011C97.0808 20.2443 96.6813 20.3415 96.163 20.3415C95.1157 20.3415 94.1764 19.996 94.1764 18.1281V9.00466H97.5774V6.41339Z" fill="#000E33"/>
<path d="M107.956 23.3322C112.631 23.3322 115.687 19.9096 115.687 14.781C115.687 9.62008 112.631 6.19745 107.956 6.19745C103.281 6.19745 100.225 9.62008 100.225 14.781C100.225 19.9096 103.281 23.3322 107.956 23.3322ZM107.967 20.6222C104.911 20.6222 103.486 17.9553 103.486 14.7702C103.486 11.5959 104.911 8.89669 107.967 8.89669C111.001 8.89669 112.426 11.5959 112.426 14.7702C112.426 17.9553 111.001 20.6222 107.967 20.6222Z" fill="#000E33"/>
<path d="M119.29 22.9975H122.518V12.87C122.518 10.6998 124.192 9.13422 126.481 9.13422C127.15 9.13422 127.906 9.25299 128.165 9.32857V6.24064C127.841 6.19745 127.204 6.16506 126.794 6.16506C124.851 6.16506 123.188 7.26635 122.583 9.04784H122.41V6.41339H119.29V22.9975Z" fill="#000E33"/>
</svg>
