<svg width="135" height="31" viewBox="0 0 135 31" fill="none" xmlns="http://www.w3.org/2000/svg">
<path d="M81.1507 6.58475C81.0059 6.76301 80.861 6.95241 80.7273 7.14181C78.6551 10.0385 76.5828 12.9352 74.4995 15.8319C74.4326 15.921 74.3769 16.0101 74.3101 16.0992C73.7196 16.8903 73.1625 16.8903 72.5943 16.0881C71.4579 14.4615 70.3215 12.8238 69.1963 11.1972C68.2159 9.78224 67.2243 8.36733 66.2328 6.95241C66.1325 6.80757 66.0099 6.67388 65.7648 6.58475C65.7648 6.79643 65.7648 7.00811 65.7648 7.21979C65.7648 11.9325 65.7648 16.6452 65.7648 21.369C65.7648 22.7728 64.9515 23.5861 63.57 23.5972C63.013 23.5972 62.4559 23.5861 61.8989 23.5972C61.5869 23.6083 61.4532 23.4746 61.4755 23.1738C61.4867 23.0401 61.4755 22.9176 61.4755 22.7839C61.4755 15.4642 61.4755 8.15564 61.4755 0.83595C61.4755 0.0560733 61.4755 0.0560733 62.2665 0.0560733C63.4029 0.0560733 64.5282 0.0783554 65.6646 0.0449322C66.2439 0.0337911 66.6338 0.234331 66.9569 0.713398C68.9958 3.67693 71.0569 6.62932 73.1068 9.59285C73.2294 9.7711 73.3631 9.94936 73.5413 10.1833C73.7084 9.97164 73.831 9.82681 73.9424 9.67083C76.0258 6.67388 78.1203 3.67693 80.1926 0.657692C80.4822 0.234331 80.8165 0.0337911 81.3401 0.0449322C82.5879 0.0672143 83.8245 0.0672143 85.0723 0.0449322C85.4734 0.0337911 85.6294 0.145202 85.6294 0.568563C85.6183 8.06652 85.6183 15.5645 85.6294 23.0736C85.6294 23.4969 85.4846 23.6195 85.0835 23.5972C84.5264 23.5638 83.9694 23.5972 83.4123 23.5861C82.198 23.5749 81.3512 22.7393 81.3512 21.5138C81.3401 16.8011 81.3512 12.0884 81.3512 7.36463C81.3512 7.13066 81.3512 6.8967 81.3512 6.6516C81.2732 6.62932 81.2064 6.60703 81.1507 6.58475Z" fill="white"/>
<path d="M0.00146484 11.7659C0.00146484 8.53502 0.00146484 5.3041 0.00146484 2.07319C0.00146484 0.814242 0.781341 0.0232248 2.04028 0.0232248C5.01495 0.0232248 7.97848 -0.0324807 10.9532 0.0343659C15.0308 0.123495 18.2617 3.39898 18.5848 7.27607C18.9859 12.1002 15.7661 15.3422 12.3346 15.9104C10.6858 16.1889 8.97004 16.0775 7.28774 16.1221C7.17633 16.1221 6.9535 15.8993 6.9535 15.7656C6.92008 15.1528 6.8978 14.5401 6.9535 13.9273C7.03149 12.9469 7.96734 12.2116 9.08145 12.1782C9.80562 12.1559 10.5409 12.1893 11.2428 12.0556C13.2148 11.6657 14.4069 9.94994 14.3066 7.75514C14.2286 5.98371 12.7023 4.32369 10.8417 4.20113C8.7695 4.07858 6.71954 4.12315 4.68072 4.07858C4.30192 4.06744 4.2685 4.29026 4.2685 4.57993C4.27964 6.00599 4.2685 7.44319 4.2685 8.86925C4.2685 13.5151 4.25736 18.1498 4.27964 22.7956C4.27964 23.3192 4.16823 23.5421 3.61118 23.4975C3.04298 23.4529 2.46365 23.4975 1.88431 23.4864C0.792482 23.4641 0.00146484 22.6731 0.00146484 21.5701C0.00146484 18.3058 0.00146484 15.0414 0.00146484 11.7659Z" fill="white"/>
<path d="M105.529 21.0229C104.705 21.9142 103.736 22.527 102.622 22.9392C100.015 23.9196 97.3742 24.0199 94.7337 23.162C92.2715 22.3599 90.6227 20.6776 89.8316 18.2265C88.9626 15.5638 88.9961 12.8899 90.2439 10.3275C91.5362 7.67591 93.7644 6.3167 96.6389 5.91562C98.1318 5.71508 99.6024 5.79307 101.051 6.183C104.204 7.05201 105.919 9.23566 106.443 12.3774C106.621 13.4581 106.554 14.5834 106.61 15.6864C106.632 16.1543 106.387 16.2211 105.997 16.2211C102.176 16.21 98.3546 16.21 94.522 16.21C94.3549 16.21 94.1878 16.2211 94.0207 16.21C93.653 16.1877 93.5416 16.3103 93.6196 16.7113C93.9427 18.2377 95.2351 19.5189 96.8839 19.8308C98.5105 20.1428 100.093 20.0091 101.608 19.2849C102.7 18.7613 103.468 18.9061 104.326 19.7528C104.716 20.1651 105.106 20.5884 105.529 21.0229ZM93.6196 12.7897C96.6277 12.7897 99.5801 12.7897 102.532 12.7897C102.454 11.4862 101.864 10.5169 100.75 9.99326C99.1122 9.22452 97.4521 9.21338 95.8144 9.98212C94.6446 10.5392 93.965 11.5196 93.6196 12.7897Z" fill="white"/>
<path d="M34.2608 8.95725C34.3722 8.65644 34.4613 8.24422 34.673 7.90999C35.152 7.13011 35.9208 6.92957 36.7898 6.94072C37.9373 6.95186 37.9373 6.94072 37.9373 8.07711C37.9373 12.9792 37.9262 17.8813 37.9485 22.7833C37.9485 23.3515 37.7925 23.5744 37.2354 23.4964C37.0572 23.4741 36.8678 23.4964 36.6784 23.4964C35.1743 23.4964 34.5727 22.9839 34.3276 21.491C34.3165 21.4464 34.283 21.4018 34.2385 21.3127C33.9488 21.647 33.7037 22.0035 33.3918 22.2709C31.8431 23.6301 30.016 24.1648 27.9883 23.9866C26.4731 23.8529 25.0359 23.4629 23.7547 22.5939C21.9721 21.3796 20.9583 19.6527 20.5906 17.547C20.2007 15.2854 20.2341 13.0349 21.2814 10.9181C22.518 8.4002 24.6237 7.13011 27.3199 6.71789C29.0244 6.45051 30.7067 6.50621 32.2331 7.3975C32.9572 7.832 33.5923 8.43362 34.2608 8.95725ZM34.0714 15.2631C34.0714 11.7648 31.1858 9.49202 27.7878 10.3053C25.6933 10.8067 24.3563 12.7007 24.1781 14.6615C23.8216 18.5274 26.8296 20.9339 30.3057 20.2432C32.6007 19.7864 34.0714 17.781 34.0714 15.2631Z" fill="white"/>
<path d="M43.9854 30.4822C44.6762 28.8667 45.3223 27.3738 45.9685 25.8698C46.2582 25.1902 46.5256 24.4994 46.8487 23.8309C47.0269 23.4633 47.0158 23.1513 46.8709 22.7837C44.8098 17.7368 42.7599 12.6898 40.7099 7.64294C40.6319 7.4424 40.5651 7.24186 40.4314 6.89648C41.7906 6.95219 43.0496 6.94105 44.2862 7.09702C45.0661 7.19729 45.456 7.8769 45.7123 8.60107C46.8375 11.754 47.9739 14.9181 49.0992 18.071C49.1772 18.2938 49.2774 18.4944 49.4223 18.8509C49.5559 18.5501 49.6451 18.3718 49.7231 18.1935C50.9597 14.9738 52.1964 11.7651 53.4442 8.54536C53.8787 7.40897 54.536 6.96333 55.7727 6.95219C56.6528 6.95219 57.5441 6.95219 58.5245 6.95219C58.0455 8.02173 57.6221 9.02443 57.1876 10.0271C54.4803 16.3218 51.7507 22.6166 49.0657 28.9336C48.5978 30.0477 47.8291 30.5379 46.6481 30.4933C45.8014 30.4487 44.9547 30.4822 43.9854 30.4822Z" fill="white"/>
<path d="M121.817 23.608C121.683 23.5745 121.561 23.5523 121.427 23.5188C120.113 23.1846 119.199 22.0371 119.199 20.6667C119.199 19.1515 119.199 17.6252 119.199 16.11C119.199 15.9986 119.188 15.876 119.166 15.7646C119.076 15.4638 118.809 15.2856 118.464 15.2856C116.937 15.2856 115.4 15.2744 113.874 15.2856C112.525 15.2967 111.255 14.372 110.966 12.9459C110.921 12.712 110.91 12.4669 110.91 12.2329C110.899 10.9963 110.91 9.74845 110.91 8.51179C110.91 8.28897 110.91 8.28897 111.122 8.28897C113.74 8.28897 116.369 8.28897 118.987 8.28897C119.21 8.28897 119.21 8.28897 119.21 8.06615C119.21 5.45913 119.21 2.86326 119.21 0.256245C119.21 0 119.21 0 119.466 0C120.748 0 122.018 0 123.299 0C124.881 0 126.184 1.30351 126.184 2.88554C126.184 4.40073 126.184 5.92706 126.184 7.44225C126.184 7.5648 126.196 7.69849 126.229 7.82104C126.318 8.13299 126.574 8.30011 126.953 8.30011C128.435 8.30011 129.906 8.30011 131.387 8.30011C131.51 8.30011 131.632 8.30011 131.755 8.31125C133.014 8.36696 134.139 9.31395 134.407 10.5395C134.462 10.7846 134.485 11.0408 134.485 11.2859C134.496 12.5337 134.485 13.7927 134.485 15.0405C134.485 15.2856 134.485 15.2856 134.251 15.2856C131.655 15.2856 129.048 15.2856 126.452 15.2856C126.184 15.2856 126.184 15.2856 126.184 15.553C126.184 18.1488 126.184 20.7447 126.184 23.3517C126.184 23.4408 126.184 23.5188 126.184 23.608C124.725 23.608 123.265 23.608 121.817 23.608Z" fill="white" fill-opacity="0.63"/>
<path d="M123.466 15.3298C122.775 15.3298 122.096 15.3521 121.405 15.3298C120.168 15.2853 119.221 14.3717 119.188 13.135C119.154 11.6867 119.166 8.2998 119.166 8.2998L119.656 8.31095C119.656 8.31095 122.508 8.28866 123.934 8.32209C125.171 8.35551 126.151 9.34707 126.173 10.5726C126.196 11.9764 126.184 14.7951 126.184 14.7951V15.341C126.207 15.3298 124.19 15.3298 123.466 15.3298Z" fill="white"/>
</svg>
