<svg width="134" height="37" viewBox="0 0 134 37" fill="none" xmlns="http://www.w3.org/2000/svg">
<path fill-rule="evenodd" clip-rule="evenodd" d="M43.565 22.8098C43.565 23.4755 43.69 24.0982 43.9393 24.6792C44.1889 25.2597 44.5272 25.7678 44.9548 26.2029C45.3829 26.6386 45.8843 26.9805 46.4607 27.2282C47.0368 27.4762 47.6517 27.6003 48.3053 27.6003C48.9585 27.6003 49.5731 27.4762 50.1495 27.2282C50.7255 26.9805 51.2277 26.6386 51.6554 26.2029C52.083 25.7678 52.4187 25.2597 52.6624 24.6792C52.9057 24.0982 53.0278 23.4755 53.0278 22.8098C53.0278 22.1444 52.9057 21.5217 52.6624 20.9408C52.4187 20.3602 52.083 19.8521 51.6554 19.4167C51.2277 18.9813 50.7255 18.6394 50.1495 18.3917C49.5731 18.1437 48.9585 18.0193 48.3053 18.0193C47.6517 18.0193 47.0368 18.1437 46.4607 18.3917C45.8843 18.6394 45.3829 18.9813 44.9548 19.4167C44.5272 19.8521 44.1889 20.3602 43.9393 20.9408C43.69 21.5217 43.565 22.1444 43.565 22.8098ZM39.5911 9.61594C39.5911 9.32643 39.6415 9.05464 39.7428 8.80094C39.8433 8.54724 39.9831 8.32747 40.1615 8.14012C40.3396 7.95314 40.5502 7.80462 40.7939 7.69605C41.0373 7.58749 41.3017 7.5332 41.5869 7.5332C41.8722 7.5332 42.1333 7.58749 42.3711 7.69605C42.6084 7.80462 42.8165 7.95314 42.9949 8.14012C43.173 8.32747 43.3095 8.54724 43.4048 8.80094C43.4997 9.05464 43.5472 9.32643 43.5472 9.61594V16.4255C43.749 16.0756 44.0224 15.7496 44.3669 15.4476C44.7111 15.146 45.0976 14.8833 45.5253 14.6598C45.953 14.4366 46.4044 14.2613 46.8795 14.1346C47.3546 14.008 47.8298 13.9443 48.3053 13.9443C49.493 13.9443 50.6157 14.1772 51.6732 14.6417C52.7303 15.1068 53.6513 15.7405 54.4354 16.5435C55.2195 17.3464 55.84 18.2854 56.2974 19.3598C56.7547 20.4345 56.9835 21.5812 56.9835 22.8007C56.9835 24.0206 56.7547 25.1643 56.2974 26.233C55.84 27.3013 55.2195 28.2339 54.4354 29.0309C53.6513 29.8278 52.7303 30.4588 51.6732 30.9236C50.6157 31.3884 49.493 31.621 48.3053 31.621C47.105 31.621 45.9797 31.3884 44.9281 30.9236C43.877 30.4588 42.953 29.8278 42.157 29.0309C41.3611 28.2339 40.7342 27.3013 40.2773 26.233C39.8195 25.1643 39.5911 24.0206 39.5911 22.8007V9.61594ZM59.5854 15.9547C59.5854 15.6893 59.6384 15.4326 59.7449 15.1849C59.8513 14.9377 59.9964 14.7235 60.1796 14.5422C60.3628 14.3609 60.5791 14.2161 60.8272 14.1076C61.0757 13.9986 61.3357 13.9443 61.6076 13.9443C61.8799 13.9443 62.1339 13.9986 62.3706 14.1076C62.6068 14.2161 62.8112 14.3609 62.9826 14.5422C63.1539 14.7235 63.2901 14.9377 63.3906 15.1849C63.4911 15.4326 63.5415 15.6893 63.5415 15.9547V29.5926C63.5415 29.8704 63.4911 30.1298 63.3906 30.371C63.2901 30.6127 63.1513 30.8238 62.9737 31.0051C62.796 31.186 62.5894 31.3282 62.3528 31.4307C62.1161 31.5329 61.8621 31.5845 61.5902 31.5845C61.3179 31.5845 61.0605 31.5329 60.8183 31.4307C60.5757 31.3282 60.3628 31.186 60.1796 31.0051C59.9964 30.8238 59.8513 30.6127 59.7449 30.371C59.6384 30.1298 59.5854 29.8704 59.5854 29.5926V15.9547ZM59.4252 9.9421C59.4252 9.64052 59.4812 9.35629 59.5935 9.0909C59.7059 8.82514 59.8599 8.59255 60.055 8.39352C60.2501 8.19448 60.4778 8.03728 60.7382 7.92269C60.9986 7.80809 61.2827 7.75041 61.5902 7.75041C61.8858 7.75041 62.1636 7.80809 62.424 7.92269C62.6844 8.03728 62.9121 8.19448 63.1072 8.39352C63.3027 8.59255 63.4592 8.82514 63.5775 9.0909C63.6958 9.35629 63.7552 9.64052 63.7552 9.9421C63.7552 10.2561 63.6958 10.5456 63.5775 10.8114C63.4592 11.0771 63.3027 11.3094 63.1072 11.5088C62.9121 11.7078 62.6844 11.865 62.424 11.9796C62.1636 12.0946 61.8858 12.1515 61.5902 12.1515C61.2827 12.1515 60.9986 12.0946 60.7382 11.9796C60.4778 11.865 60.2501 11.7078 60.055 11.5088C59.8599 11.3094 59.7059 11.0771 59.5935 10.8114C59.4812 10.5456 59.4252 10.2561 59.4252 9.9421ZM66.1235 10.7207C66.1235 10.4312 66.1769 10.1624 66.2837 9.91476C66.3909 9.66747 66.5359 9.45298 66.7203 9.27204C66.9046 9.09072 67.1153 8.94596 67.353 8.83739C67.5904 8.72845 67.846 8.67417 68.1194 8.67417C68.3923 8.67417 68.6538 8.72581 68.9035 8.82835C69.1531 8.93088 69.3727 9.07564 69.563 9.26261C69.7525 9.45034 69.9042 9.66747 70.0169 9.91476C70.1301 10.1624 70.1865 10.4312 70.1865 10.7207V13.6366H76.4415C76.7145 13.6366 76.973 13.6908 77.2164 13.7998C77.4601 13.9083 77.6707 14.0531 77.8491 14.2344C78.0276 14.4154 78.17 14.6299 78.2768 14.8772C78.3836 15.1248 78.437 15.3876 78.437 15.665C78.437 15.9308 78.3836 16.1815 78.2768 16.4167C78.17 16.6523 78.0276 16.8577 77.8491 17.0323C77.6707 17.2076 77.4601 17.3467 77.2164 17.4492C76.973 17.5517 76.7145 17.603 76.4415 17.603H70.1865V22.8915C70.1865 23.5557 70.3051 24.1743 70.5429 24.748C70.7803 25.3214 71.1071 25.8224 71.5229 26.251C71.9386 26.6796 72.4286 27.0147 72.9932 27.256C73.5573 27.4976 74.1719 27.6182 74.8373 27.6182C75.4193 27.6182 75.9601 27.5338 76.4593 27.3649C76.9582 27.1957 77.4215 26.9243 77.8491 26.5499C78.0865 26.3445 78.3183 26.1786 78.5442 26.0516C78.7698 25.9249 79.0368 25.8616 79.3461 25.8616C79.5717 25.8616 79.7916 25.9102 80.0053 26.0063C80.2193 26.1032 80.4092 26.2389 80.5757 26.4138C80.7419 26.5891 80.8754 26.7942 80.9767 27.0298C81.0776 27.265 81.128 27.5161 81.128 27.7815C81.128 28.0955 81.0683 28.3971 80.95 28.6869C80.8309 28.9765 80.6529 29.2366 80.4151 29.4658C79.667 30.1899 78.8202 30.7335 77.8758 31.0958C76.9315 31.4577 75.9185 31.639 74.8373 31.639C73.6259 31.639 72.4913 31.4128 71.4338 30.9597C70.3764 30.5069 69.4558 29.8853 68.6716 29.0941C67.8875 28.3036 67.2666 27.374 66.8097 26.3053C66.352 25.2366 66.1235 24.0868 66.1235 22.8553V10.7207ZM83.7341 23.2088C83.7341 21.9399 83.9748 20.7404 84.4559 19.6102C84.937 18.4801 85.5902 17.4951 86.4162 16.6548C87.2415 15.8149 88.207 15.1503 89.3119 14.6607C90.4165 14.1714 91.5927 13.9263 92.84 13.9263H92.876C93.5292 13.9263 94.034 14.1144 94.3905 14.4903C94.7469 14.8665 94.9253 15.3456 94.9253 15.9276C94.9253 16.219 94.8719 16.4886 94.7647 16.7374C94.6579 16.9858 94.5121 17.1984 94.3281 17.3741C94.1438 17.5501 93.9272 17.6896 93.6779 17.7925C93.4283 17.8954 93.1609 17.9471 92.876 17.9471H92.7866C92.1097 17.9591 91.4651 18.1009 90.8534 18.3727C90.2414 18.6444 89.704 19.0127 89.2407 19.4775C88.7771 19.9423 88.4058 20.4825 88.1268 21.0985C87.8475 21.7141 87.7018 22.3783 87.6903 23.0904V29.4295C87.6903 29.7073 87.6395 29.9666 87.539 30.2083C87.4377 30.4499 87.3008 30.661 87.1291 30.842C86.9566 31.0233 86.7515 31.165 86.5141 31.2675C86.2764 31.3705 86.0267 31.4217 85.7656 31.4217C85.4923 31.4217 85.2337 31.3705 84.9904 31.2675C84.7467 31.165 84.5301 31.0229 84.3402 30.8416C84.1499 30.6606 84.0015 30.4488 83.8944 30.2071C83.7875 29.9651 83.7341 29.7054 83.7341 29.4276V23.2088ZM97.5043 15.9368C97.5043 15.659 97.5547 15.3996 97.6556 15.158C97.7565 14.9164 97.8963 14.7053 98.0744 14.5239C98.2528 14.343 98.4605 14.2013 98.6982 14.0983C98.9356 13.9962 99.1912 13.9445 99.4645 13.9445C99.7375 13.9445 99.9961 13.9962 100.24 14.0983C100.483 14.2013 100.694 14.343 100.872 14.5239C101.051 14.7053 101.193 14.9164 101.3 15.158C101.407 15.3996 101.46 15.659 101.46 15.9368V23.1086C101.46 23.7487 101.573 24.3401 101.799 24.8837C102.025 25.4269 102.337 25.9008 102.735 26.3053C103.133 26.7098 103.599 27.0268 104.133 27.256C104.668 27.4856 105.25 27.6002 105.88 27.6002C106.497 27.6002 107.056 27.4825 107.555 27.2469C108.054 27.0117 108.481 26.692 108.838 26.2872C109.194 25.8827 109.467 25.4058 109.658 24.8566C109.848 24.307 109.943 23.7125 109.943 23.0724V15.9368C109.943 15.659 109.996 15.3996 110.103 15.158C110.21 14.9164 110.358 14.7053 110.549 14.5239C110.738 14.343 110.952 14.2013 111.19 14.0983C111.428 13.9962 111.683 13.9445 111.957 13.9445C112.23 13.9445 112.485 13.9962 112.722 14.0983C112.96 14.2013 113.165 14.343 113.337 14.5239C113.51 14.7053 113.646 14.9164 113.747 15.158C113.848 15.3996 113.899 15.659 113.899 15.9368V23.0724C113.899 24.2557 113.696 25.3636 113.293 26.3957C112.889 27.4283 112.331 28.3337 111.618 29.1125C110.905 29.891 110.059 30.5043 109.078 30.9506C108.098 31.3977 107.032 31.6209 105.88 31.6209C104.715 31.6209 103.625 31.3977 102.61 30.9506C101.594 30.5043 100.706 29.891 99.9456 29.1125C99.1852 28.3337 98.5885 27.4283 98.1549 26.3957C97.7209 25.3636 97.5043 24.2557 97.5043 23.0724V15.9368ZM120.92 24.6118C121.074 25.0709 121.294 25.4931 121.579 25.8799C121.864 26.2663 122.194 26.5984 122.568 26.8758C122.943 27.1536 123.358 27.3708 123.816 27.528C124.273 27.6848 124.751 27.7632 125.25 27.7632C125.785 27.7632 126.224 27.718 126.569 27.6275C126.913 27.5366 127.24 27.3953 127.549 27.2019C127.977 26.9482 128.362 26.8215 128.707 26.8215C128.98 26.8215 129.236 26.8788 129.474 26.9934C129.711 27.1084 129.916 27.2626 130.088 27.4552C130.26 27.6486 130.397 27.8718 130.498 28.1255C130.599 28.3792 130.65 28.6389 130.65 28.9043C130.65 29.3148 130.519 29.6891 130.258 30.0269C129.996 30.365 129.628 30.6519 129.153 30.8875C128.677 31.1227 128.107 31.304 127.442 31.4307C126.777 31.5574 126.046 31.6207 125.25 31.6207C124.05 31.6207 122.919 31.3885 121.856 30.9237C120.792 30.4589 119.862 29.8278 119.067 29.0309C118.271 28.234 117.644 27.3014 117.186 26.2331C116.729 25.1644 116.501 24.0207 116.501 22.8008C116.501 21.5693 116.729 20.4165 117.186 19.3414C117.644 18.267 118.271 17.3314 119.067 16.5341C119.862 15.7372 120.792 15.1065 121.856 14.6417C122.919 14.1769 124.05 13.9443 125.25 13.9443C126.438 13.9443 127.558 14.1739 128.609 14.6327C129.661 15.0918 130.581 15.7135 131.372 16.4979C132.161 17.2831 132.791 18.2097 133.26 19.278C133.73 20.3467 133.976 21.4848 134 22.6922C134 23.2716 133.819 23.7368 133.456 24.0866C133.094 24.4368 132.628 24.6118 132.057 24.6118H120.92ZM129.937 21.2432C129.794 20.7362 129.578 20.2717 129.286 19.8488C128.995 19.4262 128.651 19.0609 128.253 18.7529C127.855 18.4453 127.407 18.2067 126.907 18.0375C126.408 17.8686 125.88 17.7841 125.321 17.7841C124.763 17.7841 124.237 17.8746 123.745 18.0559C123.251 18.2369 122.809 18.4811 122.417 18.7891C122.025 19.0971 121.689 19.4624 121.41 19.885C121.131 20.3075 120.926 20.7603 120.795 21.2432H129.937Z" fill="white"/>
<path fill-rule="evenodd" clip-rule="evenodd" d="M26.6438 24.1807V6.14753L31.9772 9.14948V27.188L22.2172 32.7026L16.8889 29.6951L26.6438 24.1807ZM0.00543879 16.1353L5.33373 13.1334V24.14H5.33917L21.3295 33.1514V33.1567L16.0012 36.1587L0 27.1472L0.00543879 16.1353ZM16.0012 0H16.0066L25.7641 5.49002V11.5045L16.0012 6.0148V6.00949H15.9958L0.00543879 15.026H0V9.01675H0.00543879L16.0012 0ZM10.0188 10.6956L13.6433 8.66243V16.2094C14.018 15.9512 14.8734 15.2867 16.2084 15.2867C17.9182 15.2867 19.3747 15.874 20.5775 17.0477C21.7795 18.2216 22.3812 19.6433 22.3812 21.3124C22.3812 22.982 21.7795 24.406 20.5775 25.5855C19.3747 26.7647 17.9182 27.3546 16.2084 27.3546C14.4872 27.3546 13.025 26.7647 11.8228 25.5855C10.6202 24.406 10.0188 22.982 10.0188 21.3124V10.6956ZM14.3962 23.0815C14.898 23.5719 15.5023 23.8166 16.2084 23.8166C16.9035 23.8166 17.5017 23.5719 18.0041 23.0815C18.5059 22.5916 18.7569 22.002 18.7569 21.3124C18.7569 20.6233 18.5059 20.0362 18.0041 19.5517C17.5017 19.0668 16.9035 18.8249 16.2084 18.8249C15.5023 18.8249 14.898 19.0668 14.3962 19.5517C13.8938 20.0362 13.6433 20.6233 13.6433 21.3124C13.6433 22.002 13.8938 22.5916 14.3962 23.0815Z" fill="white"/>
</svg>
