<svg width="111" height="32" viewBox="0 0 111 32" fill="none" xmlns="http://www.w3.org/2000/svg">
<g clip-path="url(#clip0)">
<path d="M106.682 23.9922H98.8701V31.8036H106.682V23.9922Z" fill="white"/>
<path d="M-0.000280142 0.0698242V20.2262C-0.000280142 20.2262 -0.209516 28.0376 6.62551 30.6182C13.4605 33.2685 20.8535 30.6182 20.8535 30.6182C20.8535 30.6182 26.2936 27.4099 26.4331 22.179C26.5726 16.9481 26.4331 0.0698242 26.4331 0.0698242H20.3653V19.7379C20.3653 19.7379 20.435 24.6201 16.5991 25.8058C12.6933 26.9914 8.02041 26.2242 6.97423 22.8765C5.92805 19.5287 6.27678 0.0698242 6.27678 0.0698242H-0.000280142Z" fill="white"/>
<path d="M34.5936 21.8301C34.5936 25.1081 34.5936 28.3164 34.5936 31.7339C33.5474 31.8734 32.571 31.8037 31.5248 31.8037C31.5248 31.4549 31.4551 31.176 31.4551 30.8272C31.4551 22.1091 31.4551 13.391 31.4551 4.67282C31.4551 2.99894 32.2223 1.88301 33.6869 1.25531C36.2675 0.0696415 39.0573 -0.139594 41.8471 0.139387C43.5907 0.348622 45.2646 0.906583 46.7293 2.0225C48.4031 3.34766 49.3796 5.09129 49.9375 7.1139C50.7745 10.4617 50.8442 13.8094 49.5888 17.0177C48.4031 20.0865 46.1016 21.8301 42.8933 22.5276C40.4522 23.0855 38.1506 22.7368 35.849 21.9696C35.57 21.8999 35.2213 21.7604 34.9423 21.6906C34.8028 21.7604 34.8028 21.7604 34.5936 21.8301ZM34.5936 11.5078C34.5936 13.5304 34.5936 15.6228 34.5936 17.6454C34.5936 18.2731 34.8028 18.5521 35.3608 18.8311C36.686 19.4588 38.0809 19.8075 39.5455 19.947C43.1025 20.226 45.8226 18.3429 46.7293 14.9951C47.4965 12.1355 47.2175 9.34574 46.3108 6.62568C45.7528 5.02154 44.7067 3.83588 43.0328 3.41741C40.6614 2.71996 38.2204 2.85945 35.849 3.69639C34.9423 4.04511 34.5936 4.67282 34.5936 5.64925C34.5936 7.53237 34.5936 9.48523 34.5936 11.5078Z" fill="white"/>
<path d="M70.3036 10.2526C70.3036 8.99722 70.3734 7.8813 70.3036 6.76538C70.0944 4.81252 68.9087 3.62685 67.0256 3.20838C64.1661 2.51093 61.3763 2.9294 58.726 4.25455C58.447 4.39404 58.0982 4.60328 57.8193 4.74277C57.61 4.3243 57.4705 2.23195 57.6798 1.95297C57.8193 1.74373 58.0982 1.53449 58.3772 1.395C59.6326 0.767299 60.9578 0.488318 62.283 0.279083C64.4451 -0.0696428 66.6072 -0.209133 68.7692 0.418573C71.6985 1.25551 73.3724 3.27812 73.5817 6.34691C73.5817 6.76538 73.5817 7.18385 73.5817 7.60232C73.5817 10.7408 73.5817 13.8794 73.5817 16.9482C73.5817 17.2969 73.5817 17.7154 73.5817 18.0641C73.4422 19.738 72.675 20.9236 71.2103 21.6908C70.0944 22.2488 68.9087 22.458 67.7231 22.5975C65.4912 22.8068 63.1896 23.0857 61.0275 22.5278C60.1209 22.3185 59.1444 21.9698 58.3075 21.4816C56.7731 20.6447 55.8664 19.2498 55.5874 17.5061C55.3782 16.2507 55.4479 14.9256 55.7967 13.6701C56.4244 11.2291 57.9588 9.76442 60.3301 9.13671C63.4686 8.36952 66.5374 8.57875 69.5364 9.83416C69.7457 9.97365 70.0247 10.1131 70.3036 10.2526ZM70.3734 15.623C70.3734 15.623 70.4431 15.623 70.3734 15.623C70.3734 14.9953 70.3734 14.3676 70.3734 13.7399C70.3734 12.9029 70.3734 12.9029 69.5364 12.5542C67.3743 11.7173 65.0728 11.508 62.7712 11.787C61.9342 11.8568 61.167 12.2055 60.3998 12.5542C59.4931 12.9727 58.9352 13.8096 58.726 14.7861C58.2377 17.0179 59.2839 18.901 61.446 19.5985C63.8871 20.3657 66.3979 20.2262 68.839 19.6682C69.8852 19.3892 70.3036 18.8313 70.3036 17.7851C70.4431 17.0877 70.3734 16.3205 70.3734 15.623Z" fill="white"/>
<path d="M88.367 18.1338C90.6686 12.1357 92.9702 6.34687 95.2021 0.488281C96.2482 0.488281 97.1549 0.488281 98.2708 0.488281C98.2011 0.767262 98.1314 1.04624 98.0616 1.32522C95.0626 9.06693 91.9938 16.8086 88.9947 24.6201C88.367 26.294 87.5301 27.8284 86.2049 29.0838C84.9495 30.1997 83.4849 30.8972 81.7413 30.7577C81.532 30.7577 81.3228 30.7577 81.1136 30.6879C80.1371 30.4787 80.0674 30.4089 80.0674 29.3628C80.0674 28.8048 80.0674 28.1771 80.0674 27.5494C80.4858 27.6191 80.8346 27.6889 81.1136 27.7586C82.7874 28.0376 84.1823 27.6191 85.089 26.1545C85.7167 25.1083 86.2049 23.9226 86.6932 22.8067C86.8327 22.458 86.6234 21.9 86.4839 21.5513C84.1126 15.7625 81.7413 9.97362 79.3699 4.25452C79.0212 3.34783 78.6027 2.44114 78.254 1.53446C78.1145 1.25548 78.0448 0.976497 77.9053 0.488281C79.0212 0.488281 79.9976 0.488281 81.0438 0.488281C81.532 0.488281 81.6018 0.906752 81.7413 1.25548C82.5085 3.27809 83.2756 5.23095 84.1126 7.25356C85.368 10.5316 86.6932 13.8793 87.9486 17.1574C87.9486 17.3666 88.0881 17.6456 88.367 18.1338Z" fill="white"/>
</g>
<defs>
<clipPath id="clip0">
<rect width="110.895" height="31.8038" fill="white"/>
</clipPath>
</defs>
</svg>
