<svg width="160" height="57" viewBox="0 0 160 57" fill="none" xmlns="http://www.w3.org/2000/svg">
<g clip-path="url(#clip0)">
<path d="M6.86145 28.492C6.86145 25.8925 6.81418 23.3008 6.8772 20.7013C6.94022 17.6922 7.96427 14.9824 9.79967 12.5956C12.1944 9.46832 15.361 7.55414 19.2603 6.9791C27.1297 5.81326 34.3138 11.0201 35.7868 18.6532C35.9601 19.5512 36.031 20.4729 36.0389 21.3866C36.0704 24.9551 36.0546 28.5235 36.0468 32.0919C36.0468 34.5811 34.4634 36.511 32.0215 36.9994C29.5008 37.5036 26.8697 35.7312 26.4129 33.2026C26.3498 32.856 26.3262 32.5015 26.3262 32.147C26.3183 28.5786 26.3262 25.0102 26.3183 21.4418C26.3105 18.6769 24.0733 16.4791 21.3084 16.5185C19.1264 16.55 17.0625 18.3224 16.6765 20.5201C16.6214 20.8431 16.5899 21.1661 16.5899 21.4969C16.582 26.2075 16.5741 30.9182 16.5899 35.6209C16.5978 37.7005 17.6061 39.2129 19.4887 40.0479C21.3793 40.8829 23.1438 40.5284 24.7271 39.1972C24.9871 38.9766 25.3022 38.7561 25.6251 38.6773C26.2868 38.5119 26.8934 38.8269 27.1927 39.3784C27.5157 39.9849 27.4212 40.6308 26.9013 41.1429C25.7275 42.2929 24.3333 43.0334 22.6948 43.2697C19.2288 43.7739 16.0857 42.1827 14.5024 39.1263C13.9589 38.0707 13.6674 36.9443 13.6595 35.7627C13.6438 30.9654 13.6359 26.1603 13.6595 21.363C13.6753 17.5662 16.5426 14.2892 20.2843 13.7063C24.3963 13.0682 28.3428 15.8725 29.0911 19.9687C29.1699 20.3941 29.1935 20.8274 29.1935 21.2606C29.2014 24.8133 29.2014 28.3738 29.2014 31.9264C29.2014 32.596 29.3432 33.2026 29.871 33.6594C30.4775 34.1872 31.1707 34.3369 31.9191 34.0061C32.6674 33.6752 33.1007 33.1002 33.1007 32.2573C33.1007 28.5156 33.1637 24.7818 33.0849 21.04C33.0061 17.5977 31.541 14.7382 28.9415 12.5011C26.5231 10.4215 23.6716 9.46044 20.497 9.76765C16.0464 10.2009 12.8403 12.5405 10.871 16.5421C10.0754 18.1491 9.75241 19.8821 9.75241 21.6781C9.75241 26.3887 9.68939 31.0993 9.77604 35.8021C9.87845 41.2295 13.7462 45.885 19.0082 47.0036C24.3096 48.13 29.5008 45.5778 31.9348 40.7254C32.8801 38.8348 34.4162 37.8738 36.543 37.8817C38.7408 37.8895 40.7968 39.6462 41.1749 41.8124C41.3718 42.9074 41.23 43.9551 40.7259 44.9397C37.6695 50.9264 32.8722 54.7391 26.3656 56.409C24.3017 56.9368 22.1985 57.0944 20.0874 56.9447C14.9435 56.5823 10.4771 54.613 6.74329 51.0525C3.48209 47.941 1.37886 44.1677 0.488728 39.7486C0.228778 38.4725 0.0791097 37.157 0.0633551 35.8572C0.0160914 30.9418 0.0160914 26.0185 0.0554778 21.1031C0.0948642 16.2585 1.63881 11.9182 4.65581 8.13706C7.86186 4.11964 11.9738 1.48075 17.031 0.472462C23.6479 -0.850922 29.6583 0.590621 34.9203 4.84435C38.9771 8.1213 41.4742 12.3829 42.4746 17.5031C42.7031 18.6926 42.837 19.9215 42.8449 21.1267C42.8843 25.924 42.8449 30.7291 42.8685 35.5264C42.8764 36.7158 41.6948 37.4248 40.718 36.8891C40.1823 36.5977 39.9618 36.125 39.9618 35.5185C39.9697 30.9103 39.9775 26.3099 39.9618 21.7017C39.9381 16.5342 38.1343 12.0678 34.5107 8.38913C31.6434 5.48241 28.1695 3.72578 24.1127 3.11135C14.6127 1.69344 5.45142 7.95588 3.37181 17.2983C3.0646 18.6769 2.92281 20.0869 2.91493 21.5048C2.90705 26.1603 2.8913 30.8158 2.91493 35.4712C2.97007 43.7581 8.32662 50.7453 15.7785 53.1872C17.7872 53.8489 19.859 54.2034 21.9622 54.0774C29.2408 53.6284 34.621 50.186 38.0397 43.7266C38.6069 42.6553 38.2445 41.521 37.2362 41.0089C36.2358 40.489 35.0857 40.8829 34.5501 41.9857C33.2031 44.7349 31.1944 46.846 28.5318 48.3348C26.6886 49.3667 24.7192 49.9575 22.6081 50.1308C15.3689 50.7453 8.8544 45.8535 7.26319 39.0239C7.01112 37.9368 6.89296 36.8025 6.86933 35.6839C6.81418 33.2813 6.85357 30.8866 6.85357 28.4841C6.84569 28.492 6.85357 28.492 6.86145 28.492Z" fill="#0D4693"/>
<path d="M56.3936 27.1528C56.7954 26.7668 57.205 26.3808 57.5989 25.987C60.0093 23.5923 62.4276 21.2054 64.8381 18.8108C65.1532 18.4957 65.4919 18.2672 65.9724 18.2751C66.5238 18.2909 66.9334 18.5272 67.1698 19.0234C67.4061 19.5355 67.3509 20.0317 66.9807 20.4492C66.6814 20.7958 66.3348 21.103 66.0118 21.426C62.9712 24.4509 59.9384 27.4836 56.8742 30.4849C56.4409 30.9103 56.2676 31.3199 56.2834 31.9186C56.3227 33.7303 56.2991 35.5421 56.2991 37.346C56.2991 38.1967 55.795 38.7166 54.9836 38.7245C54.1722 38.7245 53.6523 38.1967 53.6523 37.3618C53.6523 31.4617 53.6523 25.5537 53.6523 19.6536C53.6523 18.8265 54.188 18.2909 54.9915 18.2909C55.7792 18.2909 56.2991 18.8265 56.2991 19.6379C56.2991 21.9695 56.2991 24.3091 56.2991 26.6408C56.2991 26.7983 56.2991 26.948 56.2991 27.1055C56.3149 27.1134 56.3543 27.1292 56.3936 27.1528Z" fill="#0D4693"/>
<path d="M88.8244 34.3449C88.336 35.0932 87.8712 35.8179 87.3356 36.645C86.7448 36.0306 86.1382 35.4949 85.6341 34.8726C83.8302 32.6828 83.2315 30.1463 83.4599 27.3498C83.8223 23.041 87.5561 19.0235 92.0777 18.3855C95.0474 17.968 97.7493 18.6297 100.144 20.4808C100.774 20.9692 100.908 21.7963 100.451 22.3871C100.01 22.9701 99.183 23.0803 98.5607 22.6077C97.8123 22.0405 97.0167 21.5837 96.1187 21.2922C91.802 19.89 87.1859 22.4895 86.2643 26.9323C85.6971 29.6658 86.4297 32.0683 88.4857 34.014C88.5802 34.1085 88.6826 34.2109 88.8244 34.3449Z" fill="#0D4693"/>
<path d="M75.1882 32.9821C75.1882 31.5957 75.196 30.2014 75.1803 28.815C75.1803 28.4605 75.2512 28.1612 75.4481 27.8619C77.4174 24.8921 79.371 21.9145 81.3324 18.9369C81.7893 18.2516 82.6243 18.0625 83.2466 18.48C83.8926 18.9133 84.0501 19.7561 83.5775 20.4572C81.7578 23.1591 79.9224 25.861 78.1027 28.5708C77.9531 28.7914 77.8586 29.0986 77.8586 29.3664C77.8428 32.0132 77.8507 34.6599 77.8428 37.3067C77.8428 38.2205 77.315 38.7325 76.4328 38.7167C75.7632 38.701 75.2197 38.2205 75.1882 37.5509C75.1566 36.7238 75.1724 35.8967 75.1724 35.0774C75.1881 34.3764 75.1882 33.6832 75.1882 32.9821Z" fill="#0D4693"/>
<path d="M147.699 28.4765C147.699 25.3177 150.188 22.8521 153.386 22.8443C156.561 22.8364 159.121 25.3098 159.121 28.3977C159.121 31.5802 156.624 34.0694 153.426 34.0694C150.212 34.0694 147.699 31.6195 147.699 28.4765ZM157.979 28.4608C157.979 25.9558 155.954 23.9471 153.41 23.9471C150.873 23.9471 148.817 25.9637 148.809 28.445C148.809 30.9342 150.858 32.9587 153.394 32.9666C155.93 32.9744 157.979 30.9657 157.979 28.4608Z" fill="#565555"/>
<path d="M88.6426 37.4174C89.1231 36.6769 89.5957 35.9522 90.0605 35.2354C90.6198 35.4402 91.1397 35.6844 91.6911 35.8183C94.1015 36.4012 96.3308 36.031 98.3631 34.55C98.5995 34.3767 98.8909 34.2428 99.1745 34.2034C99.7889 34.1168 100.332 34.4713 100.553 35.0227C100.774 35.5741 100.616 36.1728 100.104 36.5666C98.8515 37.5355 97.4651 38.2287 95.9054 38.5202C93.5422 38.9613 91.2421 38.7644 89.0601 37.6773C88.9655 37.6301 88.8789 37.5828 88.7844 37.5276C88.745 37.5119 88.7214 37.4804 88.6426 37.4174Z" fill="#0D4693"/>
<path d="M59.1348 30.477C59.7649 29.839 60.3715 29.2246 61.0096 28.5786C61.0726 28.6495 61.1592 28.7204 61.2222 28.8071C63.1364 31.3672 65.0427 33.9273 66.949 36.4953C67.3744 37.0624 67.398 37.5981 67.0514 38.1338C66.563 38.89 65.4366 38.9687 64.9009 38.2519C62.9868 35.6918 61.0805 33.1317 59.1742 30.5637C59.1584 30.5322 59.1505 30.4928 59.1348 30.477Z" fill="#0D4693"/>
<path d="M103.886 28.3028C103.925 30.2564 104.744 31.5719 106.257 32.399C107.801 33.2419 109.376 33.171 110.904 32.2809C111.03 32.21 111.141 32.1154 111.259 32.0367C111.582 31.8161 111.944 31.8555 112.125 32.1312C112.299 32.3911 112.22 32.722 111.92 32.9504C109.746 34.6204 106.485 34.4314 104.516 32.5172C102.814 30.8629 102.286 28.5076 103.145 26.3808C104.012 24.246 106.099 22.8518 108.447 22.8439C109.723 22.836 110.873 23.2062 111.897 23.9546C112.283 24.2382 112.377 24.5611 112.157 24.8447C111.936 25.1283 111.605 25.1362 111.227 24.8526C108.604 22.9384 104.854 24.1988 104.043 27.2867C103.941 27.6805 103.917 28.0901 103.886 28.3028Z" fill="#565555"/>
<path d="M74.0068 27.1764C73.0537 25.7664 72.1478 24.4194 71.234 23.0724C70.6354 22.1823 70.0209 21.3 69.438 20.402C68.926 19.6221 69.2332 18.6611 70.0603 18.3539C70.6905 18.1176 71.2971 18.3303 71.6988 18.9211C72.8174 20.5674 73.9281 22.2216 75.0388 23.8759C75.6059 24.7266 75.6059 24.7266 75.0545 25.5774C74.7158 26.0894 74.385 26.6014 74.0068 27.1764Z" fill="#0D4693"/>
<path d="M117.954 29.3115C118.545 30.2411 119.12 31.1627 119.703 32.0765C119.924 32.4231 120.144 32.7618 120.357 33.1084C120.585 33.4786 120.554 33.7701 120.27 33.9749C119.971 34.1797 119.648 34.093 119.404 33.7228C118.616 32.5018 117.836 31.273 117.072 30.0362C116.907 29.7763 116.733 29.6503 116.418 29.666C115.749 29.6896 115.079 29.6739 114.41 29.6739C114.055 29.6739 113.827 29.5242 113.787 29.1619C113.748 28.8074 113.929 28.5553 114.276 28.5159C114.78 28.4608 115.292 28.4608 115.796 28.4372C116.237 28.4135 116.694 28.4529 117.119 28.3505C118.206 28.0984 118.947 27.0114 118.805 25.9716C118.648 24.79 117.742 23.9786 116.56 23.9707C115.891 23.9707 115.221 23.9786 114.551 23.9629C114.213 23.955 113.882 23.892 113.787 23.4902C113.701 23.12 113.921 22.7813 114.307 22.7655C115.182 22.7419 116.072 22.6789 116.938 22.7813C118.356 22.9467 119.601 24.1598 119.869 25.4989C120.168 26.972 119.546 28.319 118.191 29.1304C118.128 29.1934 118.057 29.2485 117.954 29.3115Z" fill="#565555"/>
<path d="M125.256 27.4132C125.43 27.169 125.595 26.9485 125.745 26.72C126.532 25.5621 127.32 24.3962 128.108 23.2383C128.163 23.1516 128.226 23.0571 128.297 22.9941C128.518 22.7893 128.778 22.7735 129.014 22.9389C129.242 23.0965 129.329 23.3249 129.203 23.5927C129.14 23.7345 129.053 23.8684 128.959 23.9945C127.974 25.4439 126.981 26.8933 126.005 28.3585C125.887 28.5318 125.816 28.7681 125.816 28.9729C125.8 30.4696 125.808 31.9584 125.808 33.4551C125.808 33.7544 125.682 34.0065 125.39 34.0301C125.193 34.0459 124.941 33.9356 124.784 33.7938C124.689 33.7072 124.689 33.4787 124.689 33.3133C124.681 31.8954 124.697 30.4854 124.673 29.0674C124.666 28.7996 124.571 28.5003 124.429 28.2718C123.437 26.7752 122.421 25.3021 121.412 23.8133C121.16 23.4431 121.2 23.1122 121.499 22.9232C121.798 22.7262 122.105 22.8208 122.365 23.191C122.428 23.2776 122.484 23.3643 122.539 23.4509C123.358 24.6562 124.169 25.8535 124.989 27.0587C125.075 27.169 125.154 27.2714 125.256 27.4132Z" fill="#565555"/>
<path d="M142.524 23.9471C141.736 23.9471 141.019 23.9471 140.302 23.9471C140.003 23.9471 139.696 23.955 139.396 23.9392C139.018 23.9235 138.814 23.7187 138.806 23.3957C138.806 23.0649 139.01 22.8443 139.389 22.8443C141.854 22.8364 144.32 22.8364 146.785 22.8443C147.14 22.8443 147.376 23.0885 147.368 23.3957C147.368 23.7029 147.132 23.9314 146.77 23.9392C145.879 23.955 144.989 23.9629 144.091 23.9392C143.729 23.9314 143.627 24.0416 143.627 24.404C143.642 27.3265 143.634 30.2489 143.634 33.1714C143.634 33.3132 143.642 33.4629 143.619 33.6047C143.579 33.9119 143.374 34.0615 143.075 34.0615C142.776 34.0615 142.579 33.904 142.524 33.6047C142.5 33.4786 142.516 33.3447 142.516 33.2108C142.516 30.3041 142.516 27.3895 142.516 24.4828C142.524 24.3331 142.524 24.1755 142.524 23.9471Z" fill="#565555"/>
<path d="M133.079 28.9886C133.449 28.9886 133.811 28.9807 134.182 28.9886C135.489 29.0359 136.639 28.0512 136.773 26.7593C136.915 25.4517 135.985 24.1677 134.678 24.0102C133.835 23.9078 132.976 23.9629 132.126 23.9471C131.944 23.9471 131.755 23.955 131.574 23.9393C131.235 23.9156 131.031 23.7345 131.007 23.4036C130.983 23.0649 131.165 22.8049 131.487 22.7971C132.858 22.7734 134.245 22.6001 135.568 23.0885C137.206 23.6951 138.097 25.3178 137.844 27.1296C137.624 28.6814 136.167 30.0127 134.497 30.1151C133.559 30.1781 132.614 30.1544 131.669 30.1544C131.22 30.1544 130.991 29.926 130.991 29.5636C130.999 29.2013 131.251 28.9886 131.684 28.9807C132.157 28.9807 132.622 28.9886 133.079 28.9886Z" fill="#565555"/>
<path d="M21.5363 34.975C20.7407 34.975 20.0869 34.3212 20.0869 33.5256V24.0256C20.0869 23.23 20.7407 22.5762 21.5363 22.5762C22.3319 22.5762 22.9858 23.23 22.9858 24.0256V33.5177C22.9936 34.3212 22.3398 34.975 21.5363 34.975Z" fill="#FDC727"/>
</g>
<defs>
<clipPath id="clip0">
<rect width="159.113" height="57" fill="white"/>
</clipPath>
</defs>
</svg>
