<svg width="47" height="49" viewBox="0 0 47 49" fill="none" xmlns="http://www.w3.org/2000/svg">
<path d="M37.9653 0.736816H21.2113L12.7896 15.2797L21.2113 29.9123H37.9653L46.387 15.2797L37.9653 0.736816Z" fill="#0087FF"/>
<path d="M2 43.25C2 42.2554 2.39509 41.3016 3.09835 40.5983C3.80161 39.8951 4.75544 39.5 5.75 39.5H26" stroke="#000E33" stroke-width="2.42" stroke-linecap="round" stroke-linejoin="round"/>
<path d="M5.75049 17H26.0005V47H5.75049C4.75593 47 3.8021 46.6049 3.09884 45.9017C2.39558 45.1984 2.00049 44.2446 2.00049 43.25V20.75C2.00049 19.7554 2.39558 18.8016 3.09884 18.0983C3.8021 17.3951 4.75593 17 5.75049 17V17Z" stroke="#000E33" stroke-width="2.42" stroke-linecap="round" stroke-linejoin="round"/>
</svg>
