<svg width="47" height="49" viewBox="0 0 47 49" fill="none" xmlns="http://www.w3.org/2000/svg">
<path d="M37.9648 0.736816H21.2108L12.7891 15.2797L21.2108 29.9123H37.9648L46.3866 15.2797L37.9648 0.736816Z" fill="#0087FF"/>
<path d="M2 43.25C2 42.2554 2.39509 41.3016 3.09835 40.5983C3.80161 39.8951 4.75544 39.5 5.75 39.5H26" stroke="white" stroke-width="2.42" stroke-linecap="round" stroke-linejoin="round"/>
<path d="M5.75 17H26V47H5.75C4.75544 47 3.80161 46.6049 3.09835 45.9017C2.39509 45.1984 2 44.2446 2 43.25V20.75C2 19.7554 2.39509 18.8016 3.09835 18.0983C3.80161 17.3951 4.75544 17 5.75 17V17Z" stroke="white" stroke-width="2.42" stroke-linecap="round" stroke-linejoin="round"/>
</svg>
