<svg width="159" height="31" viewBox="0 0 159 31" fill="none" xmlns="http://www.w3.org/2000/svg">
<path d="M13.2413 0L0 7.63747V22.9124L13.2413 30.5499L26.4673 22.9124V7.63747L13.2413 0ZM25.3061 22.2378L13.2413 29.2031L1.17389 22.2378V8.30957L13.2413 1.34165L25.3061 8.30957V22.2378Z" fill="white"/>
<path d="M18.4236 6.59375H8.02915L6.82471 11.8916H19.6764L18.4236 6.59375Z" fill="white"/>
<path d="M9.87248 19.1854V15.6645L6.79388 13.7068L3.30786 16.2959L8.05944 24.5545H9.95651L12.1999 22.467V21.4155L9.87248 19.1854Z" fill="white"/>
<path d="M16.6154 12.6912H9.88525L11.0184 15.652L10.6721 18.9692H13.2389L15.8285 18.9564L15.5052 15.652L16.6154 12.6912Z" fill="white"/>
<path d="M19.6966 13.6807L16.6511 15.6639V19.1847L14.3237 21.4149V22.4663L16.5697 24.531H18.4413L23.1674 16.2952L19.6966 13.6807Z" fill="white"/>
<path d="M41.2849 22.3347C40.4809 22.3443 39.6833 22.1926 38.939 21.8887C38.1947 21.5847 37.519 21.1345 36.9518 20.5648C36.3846 19.9952 35.9375 19.3175 35.6368 18.572C35.3362 17.8266 35.1882 17.0284 35.2015 16.2247C35.2015 12.8616 37.7861 10.0562 41.3129 10.0562C43.541 10.0562 44.9237 10.8785 46.0135 12.0928L44.3431 13.8953C43.518 13.0271 42.6497 12.4263 41.2874 12.4263C39.3267 12.4263 37.9007 14.1193 37.9007 16.189C37.9007 18.3046 39.347 20.0078 41.4198 20.0078C42.693 20.0078 43.625 19.407 44.4755 18.5388L46.1026 20.1427C44.9338 21.4207 43.5792 22.3347 41.2849 22.3347Z" fill="white"/>
<path d="M51.2108 22.3342H48.5142V10.0837H51.2108V12.958C51.9467 11.1988 53.3039 9.99463 55.3767 10.0837V12.9351H55.2214C52.8583 12.9351 51.2108 14.4626 51.2108 17.5888V22.3342Z" fill="white"/>
<path d="M69.484 10.0615L63.528 25.6318H60.7957L62.0969 22.3375L56.9939 10.0615H59.8688L63.3497 19.1297L66.6931 10.0615H69.484Z" fill="white"/>
<path d="M78.0599 22.3114C76.1221 22.3114 74.8973 21.3312 74.0723 20.2391V25.6286H71.3782V10.0532H74.0723V12.2579C74.9406 11.0308 76.1679 10.0532 78.0599 10.0532C80.8457 10.0532 83.5398 12.2579 83.5398 16.1632C83.5398 20.0685 80.8661 22.3114 78.0599 22.3114ZM77.4361 12.4005C75.6103 12.4005 74.0061 13.8923 74.0061 16.1861C74.0061 18.4799 75.6103 19.9819 77.4361 19.9819C79.2618 19.9819 80.7999 18.5359 80.7999 16.1963C80.7999 13.8567 79.2644 12.4005 77.4361 12.4005Z" fill="white"/>
<path d="M89.4499 12.6249V18.3912C89.4499 19.4375 89.9796 19.8601 90.8963 19.8601H91.953V22.2736H90.1094C88.1487 22.2736 86.7533 21.3952 86.7533 18.8214V12.6249H85.2585V10.3082H86.7533V7.08008H89.4499V10.3082H91.953V12.6223L89.4499 12.6249Z" fill="white"/>
<path d="M100.479 22.3343C96.8932 22.3343 94.2424 19.595 94.2424 16.2243C94.2424 12.8536 96.9136 10.0532 100.524 10.0532C104.135 10.0532 106.783 12.7925 106.783 16.1632C106.783 19.5339 104.11 22.3343 100.479 22.3343ZM100.479 12.4234C98.3192 12.4234 96.9365 14.1164 96.9365 16.1861C96.9365 18.2559 98.4287 20.0048 100.524 20.0048C102.707 20.0048 104.089 18.3119 104.089 16.2421C104.089 14.1724 102.595 12.4234 100.479 12.4234Z" fill="white"/>
<path d="M132.553 22.3343C128.965 22.3343 126.314 19.595 126.314 16.2243C126.314 12.8536 128.988 10.0532 132.596 10.0532C136.204 10.0532 138.855 12.7925 138.855 16.1632C138.855 19.5339 136.184 22.3343 132.553 22.3343ZM132.553 12.4234C130.391 12.4234 129.011 14.1164 129.011 16.1861C129.011 18.2559 130.503 20.0048 132.596 20.0048C134.778 20.0048 136.161 18.3119 136.161 16.2421C136.161 14.1724 134.669 12.4234 132.553 12.4234Z" fill="white"/>
<path d="M154.877 10.0532C157.439 10.0532 159 11.6775 159 14.5517V22.3241H156.303V15.374C156.303 13.5028 155.435 12.5023 153.92 12.5023C152.451 12.5023 151.404 13.5206 151.404 15.4198V22.3241H148.707V15.3638C148.707 13.5359 147.816 12.5125 146.324 12.5125C144.832 12.5125 143.806 13.625 143.806 15.4529V22.3266H141.112V10.0532H143.806V12.0899C144.57 11.041 145.588 10.0532 147.394 10.0532C149.087 10.0532 150.268 10.8755 150.89 12.123C151.85 10.8857 153.097 10.0532 154.877 10.0532Z" fill="white"/>
<path d="M111.716 19.8622V21.2191C111.717 21.247 111.71 21.2746 111.696 21.2989C111.682 21.3231 111.661 21.3431 111.637 21.3566L110.463 22.0338C110.439 22.0487 110.412 22.0566 110.384 22.0566C110.356 22.0566 110.329 22.0487 110.305 22.0338L109.126 21.3566C109.103 21.3422 109.083 21.3219 109.07 21.2978C109.057 21.2738 109.05 21.2467 109.05 21.2191V19.8622C109.05 19.8348 109.058 19.8079 109.071 19.784C109.084 19.76 109.103 19.7397 109.126 19.7247L110.305 19.0475C110.329 19.0326 110.356 19.0247 110.384 19.0247C110.412 19.0247 110.439 19.0326 110.463 19.0475L111.65 19.7273C111.671 19.7425 111.688 19.7628 111.7 19.7863C111.711 19.8099 111.717 19.836 111.716 19.8622Z" fill="white"/>
<path d="M119.923 22.3193C119.12 22.3137 118.326 22.1471 117.588 21.8295C116.85 21.5118 116.184 21.0496 115.628 20.47C115.072 19.8904 114.638 19.2053 114.351 18.4551C114.065 17.7049 113.931 16.9049 113.959 16.1024C114.025 12.7394 116.661 9.99241 120.18 10.051C122.408 10.0942 123.773 10.9446 124.842 12.1665L123.136 13.9486C122.329 13.0652 121.471 12.4466 120.114 12.4211C118.153 12.3829 116.697 14.0479 116.656 16.1202C116.615 18.2358 118.031 19.9542 120.101 19.995C121.374 20.0179 122.319 19.4349 123.182 18.5846L124.776 20.219C123.592 21.4766 122.217 22.3651 119.923 22.3193Z" fill="white"/>
</svg>
