<svg width="78" height="23" viewBox="0 0 78 23" fill="none" xmlns="http://www.w3.org/2000/svg">
<path d="M8.34704 9.51542V18.1959H11.8953C12.191 18.1836 12.422 17.9381 12.4128 17.6405V9.51542H8.34704ZM0.2156 17.6405C0.20636 17.9351 0.437366 18.1836 0.733055 18.1959H4.28132V9.51542H0.2156V17.6405ZM12.4097 5.17365V1.38727C12.4189 1.09271 12.1879 0.847234 11.8922 0.834961H0.733055C0.437366 0.847234 0.20636 1.09271 0.2156 1.38727V5.17365H12.4097ZM31.6664 6.58511C31.1366 6.29055 30.3481 6.14326 29.304 6.14326C28.2321 6.14019 27.1664 6.266 26.1253 6.51454V8.49058C26.957 8.38318 27.7917 8.31875 28.6294 8.3034C29.2547 8.3034 29.6982 8.34943 29.9693 8.44455C30.2372 8.5366 30.4251 8.74832 30.536 9.07357C30.6438 9.39882 30.6962 9.94192 30.6962 10.6998V11.2797C29.7106 11.2184 28.9405 11.1908 28.3892 11.1908C27.6777 11.1908 27.1233 11.3074 26.7229 11.5405C26.3255 11.7737 26.0391 12.1512 25.8635 12.6789C25.691 13.2067 25.6017 13.9278 25.6017 14.8391C25.6017 16.0787 25.8019 16.9777 26.1992 17.5331C26.5997 18.0885 27.2557 18.3677 28.1705 18.3677H28.1921C28.6233 18.3769 29.9416 18.3339 30.5514 17.4993C30.65 17.3643 30.7362 17.2201 30.8009 17.0698L30.8687 18.1836H33.0463V10.8379C33.0463 9.6136 32.9477 8.67161 32.7537 8.01498C32.5596 7.35834 32.1931 6.87967 31.6664 6.58511ZM30.6931 13.6731C30.6931 14.6795 30.5915 15.33 30.3882 15.6246C30.2619 15.7964 30.0894 15.9253 29.8892 15.9958C29.6644 16.0633 29.4272 16.094 29.1931 16.0848C28.6726 16.0848 28.3307 15.9866 28.1705 15.7933C28.0103 15.6 27.9303 15.2011 27.9303 14.5967C27.9303 14.1456 27.9641 13.8142 28.0288 13.5964C28.0689 13.4092 28.189 13.2496 28.3553 13.1545C28.5062 13.0778 28.7434 13.0379 29.0637 13.0379H30.6962V13.6731H30.6931ZM50.649 7.24788C50.6028 7.16503 50.5505 7.08219 50.4919 7.00548C49.7558 5.99905 47.994 6.1494 47.994 6.1494C47.2979 6.16781 46.7496 6.33657 46.3584 6.66489C45.9457 7.01468 45.65 7.62222 45.4775 8.48751C45.3051 9.35279 45.2157 10.5955 45.2157 12.2064C45.2157 13.7866 45.2989 15.0017 45.4652 15.8547C45.6315 16.7077 45.918 17.3091 46.3246 17.665C46.7311 18.024 47.3194 18.2051 48.0864 18.2051H48.148L48.1418 18.2112C48.1418 18.2112 49.7342 18.3401 50.5227 17.4932C50.5227 18.4659 50.4765 19.1563 50.3934 19.5582C50.3071 19.9786 50.1131 20.2609 49.8174 20.4051C49.5186 20.5524 49.0073 20.626 48.2835 20.626L45.8502 20.58V22.5591C46.2999 22.6512 46.7527 22.7187 47.2116 22.7555C47.7691 22.8107 48.3051 22.8383 48.8102 22.8383C50.0453 22.8383 50.9509 22.6297 51.533 22.2093C52.1121 21.7889 52.4847 21.1691 52.6449 20.3499C52.8051 19.5275 52.8852 18.3033 52.8852 16.677V6.33043H50.7045L50.649 7.24788ZM50.378 14.9066C50.304 15.2932 50.1685 15.5663 49.9652 15.7197C49.7619 15.8731 49.4663 15.9529 49.072 15.9529C48.5915 15.9529 48.2527 15.8792 48.0587 15.732C47.8646 15.5847 47.7352 15.2625 47.6675 14.7685C47.6028 14.2714 47.5689 13.4215 47.5689 12.2125C47.5689 10.9729 47.6028 10.1138 47.6675 9.63202C47.7322 9.15335 47.8585 8.84037 48.0494 8.70229C48.2373 8.56422 48.5792 8.49364 49.072 8.49364C49.494 8.49364 49.8051 8.58263 50.0084 8.76366C50.2116 8.9447 50.3502 9.27915 50.418 9.77009C50.4888 10.2211 50.5227 11.0343 50.5227 12.2125C50.5258 13.5595 50.4765 14.4586 50.378 14.9066ZM61.4909 6.73546C60.9889 6.33964 60.1573 6.14326 58.9991 6.14326C57.8225 6.14326 56.9601 6.34885 56.4088 6.76001C55.8574 7.17117 55.5002 7.78792 55.3431 8.60717C55.1829 9.4295 55.1028 10.6538 55.1028 12.28C55.1028 13.9216 55.186 15.149 55.3523 15.9621C55.5186 16.7752 55.8882 17.3797 56.4642 17.7755C57.0371 18.1713 57.9334 18.3677 59.1531 18.3677C59.7384 18.3677 60.3236 18.3309 60.9057 18.2634C61.3955 18.2143 61.879 18.1253 62.3534 17.9934V16.0173C61.4663 16.1278 60.57 16.1922 59.6768 16.2045C58.9499 16.2045 58.4416 16.137 58.1521 16.005C57.8626 15.8731 57.6747 15.6092 57.5885 15.2165C57.5022 14.8237 57.456 14.1211 57.456 13.1116H62.6152V12.2524C62.6152 10.5341 62.5536 9.28222 62.4304 8.49978C62.3072 7.71734 61.9899 7.12821 61.4909 6.73546ZM60.3667 11.2583H57.4499C57.4653 10.3439 57.5053 9.69338 57.57 9.30677C57.6347 8.92015 57.7702 8.65627 57.9735 8.51512C58.1768 8.37705 58.5032 8.30647 58.9529 8.30647C59.3749 8.30647 59.6737 8.36784 59.8677 8.49364C60.0618 8.61945 60.1881 8.88026 60.2589 9.28529C60.3297 9.69031 60.3667 10.3377 60.3667 11.2368V11.2583ZM77.0115 7.92293C76.8729 7.32459 76.6265 6.87968 76.2692 6.58818C75.915 6.29668 75.3945 6.1494 74.7138 6.14633C74.683 6.14633 74.6583 6.1494 74.6245 6.1494C74.5906 6.1494 72.8596 6.03894 72.1203 7.01162C72.0372 7.11901 71.9663 7.23561 71.9078 7.35834C71.7938 7.03616 71.5906 6.75694 71.3226 6.54522C70.9807 6.29055 70.4694 6.16474 69.798 6.15247C69.1265 6.14326 67.9992 6.0328 67.2938 7.01468C67.2138 7.12515 67.1429 7.23868 67.0813 7.36141L67.0228 6.33964H64.879V18.1928H67.2291V12.0008C67.2291 10.979 67.2538 10.2396 67.3062 9.78237C67.3585 9.32518 67.4756 8.99686 67.6665 8.79435C67.8575 8.59183 68.1655 8.49058 68.6029 8.49058C69.0248 8.49058 69.3144 8.54888 69.4745 8.66547C69.6347 8.78207 69.7394 9.04595 69.7918 9.45712C69.8411 9.86828 69.8688 10.5986 69.8688 11.6541V18.1836H72.2189V12.0008C72.2189 10.979 72.2435 10.2396 72.2959 9.78237C72.3483 9.32518 72.4715 8.99686 72.6655 8.79435C72.8626 8.59183 73.1768 8.49364 73.6142 8.49058C74.0361 8.49058 74.3257 8.54888 74.4858 8.66547C74.646 8.78207 74.7507 9.04595 74.8 9.45712C74.8493 9.86828 74.877 10.5986 74.877 11.6541V18.1836H77.2271V10.3715C77.2179 9.33438 77.147 8.51819 77.0115 7.92293ZM42.0925 6.59738C41.7229 6.29361 41.1747 6.14326 40.4478 6.14326H40.3769C40.3523 6.14326 38.5935 6.03894 37.8728 7.00548C37.8235 7.07298 37.7742 7.14662 37.7342 7.22027L37.6818 6.33043H35.5288V18.1836H37.879V12.0008C37.8666 11.2644 37.8944 10.528 37.956 9.79157C38.0052 9.34359 38.1346 9.0122 38.3348 8.80355C38.5381 8.5949 38.8707 8.49058 39.3358 8.49058C39.7701 8.49058 40.0751 8.54888 40.2506 8.66547C40.4262 8.78207 40.5402 9.04902 40.5987 9.46632C40.6572 9.88362 40.688 10.6139 40.688 11.651V18.1805H43.0381V10.485C43.0381 9.41723 42.9734 8.57649 42.841 7.96281C42.7147 7.35221 42.4652 6.89809 42.0925 6.59738ZM22.7957 2.89078H20.4456V6.266H18.9857V8.42614H20.4456V18.1836H22.7957V8.42614H24.5791V6.266H22.7957V2.89078Z" fill="black"/>
</svg>
