<svg width="120" height="33" viewBox="0 0 120 33" fill="none" xmlns="http://www.w3.org/2000/svg">
<g clip-path="url(#clip0)">
<path d="M4.13171 0.586426V15.8161C5.76517 14.0865 7.68689 13.2218 9.75275 13.2218C12.1549 13.2218 14.1727 14.1346 15.8062 15.9122C17.3916 17.6898 18.2083 19.9478 18.2083 22.5902C18.2083 25.3286 17.3916 27.6347 15.7581 29.4603C14.1727 31.2379 12.1069 32.1507 9.65666 32.1507C7.59081 32.1507 5.71713 31.334 4.08366 29.7486V31.6223H0V0.586426H4.13171ZM13.9805 22.8304C13.9805 21.1008 13.5001 19.7076 12.5873 18.6506C11.6264 17.5456 10.4734 17.0172 9.0321 17.0172C7.49472 17.0172 6.29365 17.5456 5.33278 18.6026C4.37192 19.6595 3.89149 21.0528 3.89149 22.7343C3.89149 24.4638 4.37192 25.8571 5.28474 26.914C6.19756 27.971 7.44668 28.4995 8.98406 28.4995C10.4254 28.4995 11.6264 27.971 12.5392 26.914C13.5001 25.8091 13.9805 24.4638 13.9805 22.8304Z" fill="#EB5745"/>
<path d="M22.6281 13.7502H26.7598V15.3356C27.5285 14.5188 28.2011 13.9904 28.7776 13.7021C29.4022 13.4139 30.0748 13.2217 30.8915 13.2217C31.9965 13.2217 33.1015 13.558 34.3026 14.2786L32.4289 18.074C31.6602 17.4975 30.8915 17.2093 30.1228 17.2093C27.8648 17.2093 26.7118 18.9388 26.7118 22.3499V31.6702H22.5801V13.7502H22.6281Z" fill="#EB5745"/>
<path d="M36.6572 6.3035C36.6572 5.58286 36.8974 4.9583 37.4259 4.42982C37.9544 3.90135 38.579 3.66113 39.2996 3.66113C40.0683 3.66113 40.6928 3.90135 41.2213 4.42982C41.7498 4.9583 41.99 5.58286 41.99 6.3035C41.99 7.07219 41.7498 7.69675 41.2213 8.22523C40.6928 8.7537 40.0683 8.99392 39.3476 8.99392C38.5789 8.99392 37.9544 8.7537 37.4259 8.22523C36.8974 7.69675 36.6572 7.07219 36.6572 6.3035ZM41.4135 13.7502V31.6703H37.2818V13.7502H41.4135Z" fill="#EB5745"/>
<path d="M57.0752 16.8249L53.6641 18.6505C53.1356 17.5456 52.463 17.0171 51.6463 17.0171C51.2619 17.0171 50.9256 17.1612 50.6854 17.4014C50.3972 17.6416 50.3011 17.9779 50.3011 18.3623C50.3011 19.0349 51.1178 19.7075 52.7032 20.4281C54.9132 21.389 56.4026 22.2538 57.1232 23.0225C57.8919 23.8392 58.2762 24.8962 58.2762 26.2414C58.2762 27.9709 57.6517 29.4122 56.3545 30.5652C55.1054 31.6702 53.6161 32.1987 51.8385 32.1987C48.8117 32.1987 46.6979 30.7094 45.4487 27.7787L49.0039 26.1453C49.4844 27.01 49.8687 27.5385 50.1089 27.7787C50.5893 28.2592 51.2139 28.4994 51.9345 28.4994C53.3278 28.4994 54.0484 27.8748 54.0484 26.5777C54.0484 25.857 53.52 25.1364 52.415 24.5118C51.9826 24.3196 51.5982 24.0794 51.1659 23.8872C50.7335 23.6951 50.3011 23.5029 49.9167 23.2627C48.7157 22.6862 47.8509 22.0616 47.3705 21.4851C46.7459 20.7164 46.4096 19.7555 46.4096 18.6025C46.4096 17.0651 46.9381 15.768 47.995 14.7591C49.1 13.7502 50.3972 13.2217 51.9826 13.2217C54.2887 13.2697 55.9702 14.4228 57.0752 16.8249Z" fill="#EB5745"/>
<path d="M66.1068 0.586426V19.5634L71.92 13.7502H77.493L69.71 21.293L78.0695 31.7184H72.6887L66.7794 24.1275L66.1068 24.8001V31.7184H61.9751V0.586426H66.1068Z" fill="#EB5745"/>
<path d="M81.9614 29.6044C81.9614 28.9318 82.2016 28.3072 82.7301 27.8268C83.2105 27.3464 83.8351 27.0581 84.5558 27.0581C85.2764 27.0581 85.8529 27.2983 86.3814 27.8268C86.8618 28.3072 87.1501 28.9318 87.1501 29.6524C87.1501 30.3731 86.9099 30.9496 86.3814 31.4781C85.901 31.9585 85.2764 32.1987 84.5558 32.1987C83.8351 32.1987 83.2105 31.9585 82.7301 31.4781C82.2016 30.9496 81.9614 30.3731 81.9614 29.6044Z" fill="#CDCCCC"/>
<path d="M92.3389 6.3035C92.3389 5.58286 92.5791 4.9583 93.1076 4.42982C93.636 3.90135 94.2606 3.66113 94.9812 3.66113C95.7499 3.66113 96.3745 3.90135 96.903 4.42982C97.4314 4.9583 97.6717 5.58286 97.6717 6.3035C97.6717 7.07219 97.4314 7.69675 96.903 8.22523C96.3745 8.7537 95.7499 8.99392 95.0293 8.99392C94.2606 8.99392 93.636 8.7537 93.1076 8.22523C92.5791 7.69675 92.3389 7.07219 92.3389 6.3035ZM97.0951 13.7502V31.6703H92.9634V13.7502H97.0951Z" fill="#CDCCCC"/>
<path d="M115.544 0.586426H119.723V31.6703H115.544V29.7966C113.91 31.3821 112.085 32.1988 110.019 32.1988C107.569 32.1988 105.503 31.286 103.917 29.5084C102.332 27.6827 101.515 25.3767 101.515 22.6382C101.515 19.9478 102.332 17.7378 103.917 15.9602C105.503 14.1346 107.521 13.2698 109.923 13.2698C112.037 13.2698 113.91 14.1346 115.544 15.8641V0.586426ZM105.743 22.6382C105.743 24.3678 106.223 25.761 107.136 26.818C108.097 27.9229 109.25 28.4514 110.691 28.4514C112.229 28.4514 113.478 27.9229 114.391 26.866C115.352 25.761 115.832 24.3678 115.832 22.6863C115.832 21.0047 115.352 19.6115 114.391 18.5065C113.43 17.4496 112.229 16.9211 110.691 16.9211C109.25 16.9211 108.097 17.4496 107.136 18.5545C106.223 19.7076 105.743 21.0528 105.743 22.6382Z" fill="#CDCCCC"/>
</g>
<defs>
<clipPath id="clip0">
<rect width="119.723" height="31.6124" fill="white" transform="translate(0 0.586426)"/>
</clipPath>
</defs>
</svg>
