<svg width="161" height="24" viewBox="0 0 161 24" fill="none" xmlns="http://www.w3.org/2000/svg">
<path d="M15.0459 4.2247C15.3819 4.2247 15.619 4.30376 15.7574 4.46188C15.9056 4.61011 15.9797 4.86705 15.9797 5.2327C15.9797 5.59834 15.9056 5.86023 15.7574 6.01834C15.619 6.16658 15.3819 6.2407 15.0459 6.2407H14.0823L9.67975 10.8805L14.4381 15.9056H15.1941C15.5301 15.9056 15.7673 15.9847 15.9056 16.1428C16.0539 16.291 16.128 16.548 16.128 16.9136C16.128 17.2793 16.0539 17.5412 15.9056 17.6993C15.7673 17.8475 15.5301 17.9216 15.1941 17.9216H10.0948C9.75881 17.9216 9.51669 17.8475 9.36846 17.6993C9.2301 17.5412 9.16093 17.2793 9.16093 16.9136C9.16093 16.548 9.2301 16.291 9.36846 16.1428C9.51669 15.9847 9.75881 15.9056 10.0948 15.9056H11.5179L7.96022 12.0812L4.41741 15.9056H5.58846C5.92446 15.9056 6.16164 15.9847 6.29999 16.1428C6.44823 16.291 6.52234 16.548 6.52234 16.9136C6.52234 17.2793 6.44823 17.5412 6.29999 17.6993C6.16164 17.8475 5.92446 17.9216 5.58846 17.9216H0.933881C0.597881 17.9216 0.355764 17.8475 0.207529 17.6993C0.0691764 17.5412 0 17.2793 0 16.9136C0 16.548 0.0691764 16.291 0.207529 16.1428C0.355764 15.9847 0.597881 15.9056 0.933881 15.9056H1.67506L6.4927 10.8508L2.13459 6.2407H1.08212C0.746117 6.2407 0.503999 6.16658 0.355764 6.01834C0.217411 5.86023 0.148235 5.59834 0.148235 5.2327C0.148235 4.86705 0.217411 4.61011 0.355764 4.46188C0.503999 4.30376 0.746117 4.2247 1.08212 4.2247H6.1814C6.5174 4.2247 6.75458 4.30376 6.89293 4.46188C7.04117 4.61011 7.11528 4.86705 7.11528 5.2327C7.11528 5.59834 7.04117 5.86023 6.89293 6.01834C6.75458 6.16658 6.5174 6.2407 6.1814 6.2407H5.05482L8.1974 9.6501L11.3548 6.2407H10.5395C10.2035 6.2407 9.9614 6.16658 9.81316 6.01834C9.67481 5.86023 9.60563 5.59834 9.60563 5.2327C9.60563 4.86705 9.67481 4.61011 9.81316 4.46188C9.9614 4.30376 10.2035 4.2247 10.5395 4.2247H15.0459Z" fill="white"/>
<path d="M27.3938 0.326117C28.7082 0.326117 29.8348 0.558352 30.7736 1.02282C31.7124 1.48729 32.424 2.14447 32.9082 2.99435C33.4023 3.84423 33.6494 4.82752 33.6494 5.94423C33.6494 7.06093 33.4023 8.03928 32.9082 8.87928C32.424 9.7094 31.7124 10.3567 30.7736 10.8212C29.8348 11.2757 28.7082 11.503 27.3938 11.503H23.9103V15.9056H27.468C27.804 15.9056 28.0411 15.9847 28.1795 16.1428C28.3277 16.291 28.4018 16.548 28.4018 16.9136C28.4018 17.2793 28.3277 17.5412 28.1795 17.6993C28.0411 17.8475 27.804 17.9216 27.468 17.9216H19.2854C18.9494 17.9216 18.7073 17.8475 18.559 17.6993C18.4207 17.5412 18.3515 17.2793 18.3515 16.9136C18.3515 16.548 18.4207 16.291 18.559 16.1428C18.7073 15.9847 18.9494 15.9056 19.2854 15.9056H21.6868V2.34211H19.2854C18.9494 2.34211 18.7073 2.268 18.559 2.11976C18.4207 1.96164 18.3515 1.69976 18.3515 1.33412C18.3515 0.968469 18.4207 0.711528 18.559 0.563293C18.7073 0.405176 18.9494 0.326117 19.2854 0.326117H27.3938ZM23.9103 9.48705H27.0826C28.4562 9.48705 29.5037 9.17575 30.2251 8.55316C30.9465 7.93058 31.3072 7.06093 31.3072 5.94423C31.3072 4.80776 30.9416 3.92329 30.2103 3.29082C29.4889 2.65835 28.4463 2.34211 27.0826 2.34211H23.9103V9.48705Z" fill="white"/>
<path d="M44.5298 3.89858C46.3877 3.89858 47.7811 4.31364 48.71 5.14376C49.639 5.97387 50.1035 7.20423 50.1035 8.83481V14.7346C50.1035 15.5153 50.4296 15.9056 51.0818 15.9056H51.6006C51.9366 15.9056 52.1738 15.9847 52.3122 16.1428C52.4604 16.291 52.5345 16.548 52.5345 16.9136C52.5345 17.2793 52.4604 17.5412 52.3122 17.6993C52.1738 17.8475 51.9366 17.9216 51.6006 17.9216H50.6519C50.0096 17.9216 49.4562 17.7635 48.9917 17.4473C48.5371 17.1212 48.2406 16.6468 48.1023 16.0242C47.2919 16.7357 46.4124 17.2842 45.4637 17.6696C44.5249 18.055 43.5268 18.2477 42.4694 18.2477C41.4712 18.2477 40.5868 18.0797 39.8159 17.7437C39.055 17.3979 38.4571 16.8988 38.0223 16.2466C37.5875 15.5943 37.3701 14.8186 37.3701 13.9193C37.3701 12.3579 37.9284 11.2066 39.0451 10.4654C40.1618 9.71434 41.6046 9.33881 43.3736 9.33881C44.9449 9.33881 46.447 9.59081 47.8799 10.0948V8.83481C47.8799 7.87622 47.6082 7.17458 47.0646 6.72987C46.531 6.27528 45.6663 6.04799 44.4705 6.04799C43.7294 6.04799 42.9585 6.15176 42.1581 6.35928C41.3576 6.56681 40.5966 6.8534 39.8752 7.21905C39.7072 7.30799 39.5541 7.35246 39.4157 7.35246C39.0896 7.35246 38.8178 7.11528 38.6004 6.64093C38.4917 6.40376 38.4374 6.20611 38.4374 6.04799C38.4374 5.70211 38.6202 5.43529 38.9858 5.24752C39.8159 4.8127 40.7054 4.48164 41.6541 4.25435C42.6126 4.01717 43.5712 3.89858 44.5298 3.89858ZM43.3884 11.4289C42.2519 11.4289 41.3526 11.6266 40.6905 12.0219C40.0383 12.4073 39.7122 13.0249 39.7122 13.8748C39.7122 14.5962 39.9592 15.1595 40.4534 15.5647C40.9574 15.96 41.659 16.1576 42.5583 16.1576C44.5249 16.1576 46.2988 15.3423 47.8799 13.7117V12.096C47.2079 11.8786 46.4865 11.7155 45.7157 11.6068C44.9449 11.4882 44.1691 11.4289 43.3884 11.4289Z" fill="white"/>
<path d="M70.1004 4.2247C70.4364 4.2247 70.6735 4.30376 70.8119 4.46188C70.9601 4.61011 71.0342 4.86705 71.0342 5.2327C71.0342 5.59834 70.9601 5.86023 70.8119 6.01834C70.6735 6.16658 70.4364 6.2407 70.1004 6.2407H69.1813L63.1185 18.6628C62.4761 19.9771 61.8486 21.0099 61.2359 21.7609C60.6232 22.512 59.9314 23.0604 59.1606 23.4063C58.3997 23.7621 57.4707 23.9597 56.3738 23.9993C56.0279 24.0091 55.7611 23.9202 55.5733 23.7324C55.3856 23.5546 55.2917 23.2334 55.2917 22.7689C55.2917 22.1266 55.5536 21.7906 56.0773 21.7609C57.026 21.7115 57.7771 21.5534 58.3305 21.2866C58.8938 21.0197 59.4077 20.5602 59.8722 19.908C60.3465 19.2656 60.9246 18.2576 61.6065 16.884L56.1811 6.2407H55.2472C54.9112 6.2407 54.6691 6.16658 54.5209 6.01834C54.3825 5.86023 54.3133 5.59834 54.3133 5.2327C54.3133 4.86705 54.3825 4.61011 54.5209 4.46188C54.6691 4.30376 54.9112 4.2247 55.2472 4.2247H60.4947C60.8307 4.2247 61.0679 4.30376 61.2063 4.46188C61.3545 4.61011 61.4286 4.86705 61.4286 5.2327C61.4286 5.59834 61.3545 5.86023 61.2063 6.01834C61.0679 6.16658 60.8307 6.2407 60.4947 6.2407H58.5973L62.7776 14.5715L66.7651 6.2407H65.4458C65.1098 6.2407 64.8677 6.16658 64.7194 6.01834C64.5811 5.86023 64.5119 5.59834 64.5119 5.2327C64.5119 4.86705 64.5811 4.61011 64.7194 4.46188C64.8677 4.30376 65.1098 4.2247 65.4458 4.2247H70.1004Z" fill="white"/>
<path d="M89.4302 15.9056C89.7662 15.9056 90.0034 15.9847 90.1418 16.1428C90.29 16.291 90.3641 16.548 90.3641 16.9136C90.3641 17.2793 90.29 17.5412 90.1418 17.6993C90.0034 17.8475 89.7662 17.9216 89.4302 17.9216H87.2215C86.8855 17.9216 86.6434 17.8475 86.4952 17.6993C86.3568 17.5412 86.2876 17.2793 86.2876 16.9136V8.13811C86.2876 7.45622 86.174 6.94728 85.9467 6.61128C85.7293 6.2654 85.3735 6.09246 84.8794 6.09246C84.4149 6.09246 83.9851 6.30987 83.5898 6.7447C83.1945 7.16964 82.8782 7.76752 82.6411 8.53834C82.4138 9.29928 82.3001 10.1689 82.3001 11.1473V15.9056H83.1451C83.4811 15.9056 83.7182 15.9847 83.8566 16.1428C84.0048 16.291 84.0789 16.548 84.0789 16.9136C84.0789 17.2793 84.0048 17.5412 83.8566 17.6993C83.7182 17.8475 83.4811 17.9216 83.1451 17.9216H81.0105C80.6745 17.9216 80.4324 17.8475 80.2841 17.6993C80.1458 17.5412 80.0766 17.2793 80.0766 16.9136V8.13811C80.0766 7.45622 79.963 6.94728 79.7357 6.61128C79.5182 6.2654 79.1625 6.09246 78.6684 6.09246C78.2039 6.09246 77.774 6.30987 77.3787 6.7447C76.9834 7.16964 76.6672 7.76752 76.43 8.53834C76.2027 9.29928 76.0891 10.1689 76.0891 11.1473V15.9056H76.8599C77.1959 15.9056 77.4331 15.9847 77.5714 16.1428C77.7197 16.291 77.7938 16.548 77.7938 16.9136C77.7938 17.2793 77.7197 17.5412 77.5714 17.6993C77.4331 17.8475 77.1959 17.9216 76.8599 17.9216H72.65C72.314 17.9216 72.0719 17.8475 71.9237 17.6993C71.7853 17.5412 71.7161 17.2793 71.7161 16.9136C71.7161 16.548 71.7853 16.291 71.9237 16.1428C72.0719 15.9847 72.314 15.9056 72.65 15.9056H73.8655V6.2407H72.65C72.314 6.2407 72.0719 6.16658 71.9237 6.01834C71.7853 5.86023 71.7161 5.59834 71.7161 5.2327C71.7161 4.86705 71.7853 4.61011 71.9237 4.46188C72.0719 4.30376 72.314 4.2247 72.65 4.2247H74.8587C75.1947 4.2247 75.4319 4.30376 75.5702 4.46188C75.7185 4.61011 75.7926 4.86705 75.7926 5.2327V6.70023C76.2175 5.77129 76.7265 5.07458 77.3194 4.61011C77.9124 4.13576 78.5547 3.89858 79.2465 3.89858C79.9185 3.89858 80.5065 4.12588 81.0105 4.58046C81.5145 5.03505 81.8554 5.70211 82.0333 6.58164C82.9128 4.79293 84.0493 3.89858 85.4427 3.89858C86.0258 3.89858 86.5446 4.04682 86.9992 4.34329C87.4636 4.62988 87.8293 5.07458 88.0961 5.6774C88.3728 6.27034 88.5112 7.00164 88.5112 7.87128V15.9056H89.4302Z" fill="white"/>
<path d="M99.2137 3.89858C100.647 3.89858 101.867 4.19011 102.875 4.77317C103.893 5.34634 104.674 6.14681 105.217 7.17458C105.761 8.19246 106.072 9.36846 106.151 10.7026C106.151 11.0386 106.077 11.2757 105.929 11.4141C105.79 11.5525 105.553 11.6216 105.217 11.6216H94.485C94.5542 13.0941 94.989 14.2108 95.7895 14.9717C96.5999 15.7228 97.7413 16.0983 99.2137 16.0983C100.123 16.0983 101.022 15.9847 101.912 15.7574C102.801 15.5202 103.582 15.2089 104.254 14.8235C104.422 14.7346 104.575 14.6901 104.713 14.6901C105.059 14.6901 105.341 14.952 105.558 15.4757C105.647 15.6833 105.692 15.871 105.692 16.039C105.692 16.4343 105.474 16.7407 105.039 16.9581C104.278 17.3435 103.379 17.6548 102.341 17.892C101.304 18.1291 100.261 18.2477 99.2137 18.2477C97.7215 18.2477 96.4467 17.9611 95.3893 17.388C94.3319 16.8148 93.5265 15.9896 92.973 14.9124C92.4196 13.8353 92.1429 12.5555 92.1429 11.0732C92.1429 9.65999 92.4443 8.40987 93.0472 7.32281C93.65 6.23576 94.485 5.39576 95.5523 4.80282C96.6196 4.19999 97.8401 3.89858 99.2137 3.89858ZM99.2137 6.04799C97.9982 6.04799 96.9902 6.35928 96.1897 6.98187C95.3992 7.59458 94.8803 8.4494 94.6333 9.54634H103.69C103.483 8.40987 103.004 7.54517 102.253 6.95223C101.511 6.3494 100.498 6.04799 99.2137 6.04799Z" fill="white"/>
<path d="M118.959 3.89858C119.858 3.89858 120.639 4.09623 121.301 4.49152C121.963 4.87693 122.472 5.43529 122.828 6.16658C123.183 6.89787 123.361 7.75269 123.361 8.73105V15.9056H124.577C124.913 15.9056 125.15 15.9847 125.288 16.1428C125.437 16.291 125.511 16.548 125.511 16.9136C125.511 17.2793 125.437 17.5412 125.288 17.6993C125.15 17.8475 124.913 17.9216 124.577 17.9216H119.774C119.438 17.9216 119.196 17.8475 119.048 17.6993C118.909 17.5412 118.84 17.2793 118.84 16.9136C118.84 16.548 118.909 16.291 119.048 16.1428C119.196 15.9847 119.438 15.9056 119.774 15.9056H121.138V8.9534C121.138 8.07387 120.935 7.37717 120.53 6.86328C120.125 6.3494 119.527 6.09246 118.736 6.09246C117.896 6.09246 117.111 6.33458 116.379 6.81881C115.658 7.30305 115.08 7.97011 114.645 8.81999C114.21 9.66987 113.993 10.6186 113.993 11.6661V15.9056H115.357C115.693 15.9056 115.93 15.9847 116.068 16.1428C116.216 16.291 116.29 16.548 116.29 16.9136C116.29 17.2793 116.216 17.5412 116.068 17.6993C115.93 17.8475 115.693 17.9216 115.357 17.9216H110.554C110.218 17.9216 109.976 17.8475 109.827 17.6993C109.689 17.5412 109.62 17.2793 109.62 16.9136C109.62 16.548 109.689 16.291 109.827 16.1428C109.976 15.9847 110.218 15.9056 110.554 15.9056H111.769V6.2407H110.257C109.921 6.2407 109.679 6.16658 109.531 6.01834C109.393 5.86023 109.323 5.59834 109.323 5.2327C109.323 4.86705 109.393 4.61011 109.531 4.46188C109.679 4.30376 109.921 4.2247 110.257 4.2247H112.911C113.247 4.2247 113.484 4.30376 113.622 4.46188C113.77 4.61011 113.845 4.86705 113.845 5.2327V7.01152C114.497 6.00352 115.258 5.2327 116.127 4.69905C117.007 4.16541 117.951 3.89858 118.959 3.89858Z" fill="white"/>
<path d="M133.174 0C133.58 0 133.866 0.0741175 134.034 0.222353C134.202 0.370588 134.286 0.617646 134.286 0.963528V5.41058H140.379C140.715 5.41058 140.952 5.48964 141.09 5.64776C141.238 5.79599 141.313 6.05293 141.313 6.41858C141.313 6.78423 141.238 7.04611 141.09 7.20422C140.952 7.35246 140.715 7.42658 140.379 7.42658H134.286V12.8223C134.286 13.9489 134.479 14.7741 134.864 15.2979C135.26 15.8216 135.941 16.0835 136.91 16.0835C137.572 16.0835 138.269 15.9501 139 15.6833C139.731 15.4164 140.438 15.0607 141.12 14.616C141.258 14.5172 141.411 14.4677 141.579 14.4677C141.915 14.4677 142.202 14.695 142.439 15.1496C142.568 15.4066 142.632 15.6289 142.632 15.8167C142.632 16.1329 142.469 16.3899 142.143 16.5875C141.372 17.0717 140.512 17.472 139.563 17.7882C138.615 18.0946 137.73 18.2477 136.91 18.2477C135.23 18.2477 134 17.8129 133.219 16.9433C132.448 16.0637 132.063 14.7543 132.063 13.015V7.42658H129.053C128.717 7.42658 128.475 7.35246 128.327 7.20422C128.189 7.04611 128.12 6.78423 128.12 6.41858C128.12 6.05293 128.189 5.79599 128.327 5.64776C128.475 5.48964 128.717 5.41058 129.053 5.41058H132.063V0.963528C132.063 0.617646 132.147 0.370588 132.315 0.222353C132.483 0.0741175 132.769 0 133.174 0Z" fill="white"/>
<path d="M158.36 3.89858C158.765 3.89858 159.051 3.9727 159.219 4.12093C159.387 4.26917 159.471 4.51623 159.471 4.86211V7.67858C159.471 8.02446 159.387 8.27152 159.219 8.41975C159.051 8.56799 158.765 8.64211 158.36 8.64211C158.024 8.64211 157.786 8.51363 157.648 8.25669C157.223 7.44634 156.605 6.87811 155.795 6.55199C154.985 6.21599 153.957 6.04799 152.712 6.04799C151.753 6.04799 151.002 6.22093 150.459 6.56681C149.925 6.90281 149.658 7.37717 149.658 7.98987C149.658 8.30611 149.757 8.56305 149.955 8.76069C150.162 8.95834 150.464 9.1214 150.859 9.24987C151.185 9.35857 151.56 9.44257 151.985 9.50187C152.42 9.56116 152.979 9.6254 153.66 9.69457C154.619 9.80328 155.39 9.90704 155.973 10.0059C156.566 10.0948 157.124 10.2332 157.648 10.4209C158.439 10.7075 159.051 11.1226 159.486 11.6661C159.931 12.2096 160.153 12.9261 160.153 13.8155C160.153 14.7049 159.926 15.4856 159.471 16.1576C159.027 16.8197 158.369 17.3336 157.5 17.6993C156.64 18.0649 155.607 18.2477 154.402 18.2477C153.334 18.2477 152.396 18.0995 151.585 17.803C150.775 17.5066 150.068 17.0569 149.465 16.4541V17.2842C149.465 17.6301 149.381 17.8771 149.213 18.0254C149.045 18.1736 148.759 18.2477 148.354 18.2477C147.949 18.2477 147.662 18.1736 147.494 18.0254C147.326 17.8771 147.242 17.6301 147.242 17.2842V13.7266C147.242 13.3807 147.326 13.1336 147.494 12.9854C147.662 12.8372 147.949 12.763 148.354 12.763C148.561 12.763 148.724 12.8125 148.843 12.9113C148.961 13.0002 149.065 13.1534 149.154 13.3708C149.51 14.3195 150.103 15.0113 150.933 15.4461C151.763 15.8809 152.87 16.0983 154.253 16.0983C155.4 16.0983 156.279 15.8908 156.892 15.4757C157.505 15.0607 157.811 14.5073 157.811 13.8155C157.811 13.4795 157.702 13.2028 157.485 12.9854C157.268 12.768 156.956 12.5901 156.551 12.4517C156.205 12.343 155.805 12.2541 155.35 12.1849C154.906 12.1059 154.337 12.0317 153.646 11.9626C152.717 11.8637 151.941 11.76 151.318 11.6513C150.696 11.5426 150.123 11.3845 149.599 11.1769C148.877 10.8903 148.314 10.495 147.909 9.99104C147.514 9.47716 147.316 8.8101 147.316 7.98987C147.316 7.13011 147.538 6.39387 147.983 5.78117C148.438 5.15858 149.06 4.68917 149.851 4.37293C150.651 4.0567 151.556 3.89858 152.564 3.89858C153.522 3.89858 154.397 4.04188 155.187 4.32846C155.988 4.61505 156.675 5.01529 157.248 5.52917V4.86211C157.248 4.51623 157.332 4.26917 157.5 4.12093C157.668 3.9727 157.954 3.89858 158.36 3.89858Z" fill="white"/>
</svg>
